<svg xmlns="http://www.w3.org/2000/svg" xmlns:xlink="http://www.w3.org/1999/xlink" width="500" zoomAndPan="magnify" viewBox="0 0 375 374.999991" height="500" preserveAspectRatio="xMidYMid meet" version="1.0"><defs><g/><clipPath id="446d4c409b"><path d="M 37.5 17.28125 L 330.0625 17.28125 L 330.0625 357.84375 L 37.5 357.84375 Z M 37.5 17.28125 " clip-rule="nonzero"/></clipPath><clipPath id="c4b07c2565"><path d="M 183.78125 17.28125 L 330.0625 102.390625 L 330.0625 272.609375 L 183.78125 357.71875 L 37.5 272.609375 L 37.5 102.390625 Z M 183.78125 17.28125 " clip-rule="nonzero"/></clipPath><clipPath id="fa201ed920"><path d="M 44.265625 24.046875 L 323.921875 24.046875 L 323.921875 187.5 L 44.265625 187.5 Z M 44.265625 24.046875 " clip-rule="nonzero"/></clipPath><clipPath id="8ae6f2aa7c"><path d="M 183.78125 24.046875 L 323.296875 105.773438 L 183.78125 187.5 L 44.265625 105.773438 Z M 183.78125 24.046875 " clip-rule="nonzero"/></clipPath></defs><g clip-path="url(#446d4c409b)"><g clip-path="url(#c4b07c2565)"><path fill="#050a30" d="M 37.5 17.28125 L 330.0625 17.28125 L 330.0625 357.84375 L 37.5 357.84375 Z M 37.5 17.28125 " fill-opacity="1" fill-rule="nonzero"/></g></g><g clip-path="url(#fa201ed920)"><g clip-path="url(#8ae6f2aa7c)"><path fill="#233dff" d="M 44.265625 24.046875 L 323.285156 24.046875 L 323.285156 187.5 L 44.265625 187.5 Z M 44.265625 24.046875 " fill-opacity="1" fill-rule="nonzero"/></g></g><g fill="#ffffff" fill-opacity="1"><g transform="translate(130.618926, 277.128706)"><g><path d="M 6.734375 0 C 4.691406 0 3.671875 -1.019531 3.671875 -3.0625 L 3.671875 -33.203125 C 3.671875 -35.242188 4.691406 -36.265625 6.734375 -36.265625 L 15.328125 -36.265625 C 18.953125 -36.265625 22.085938 -35.585938 24.734375 -34.234375 C 27.378906 -32.890625 29.414062 -30.867188 30.84375 -28.171875 C 32.28125 -25.484375 33 -22.132812 33 -18.125 C 33 -14.15625 32.28125 -10.820312 30.84375 -8.125 C 29.414062 -5.4375 27.378906 -3.410156 24.734375 -2.046875 C 22.085938 -0.679688 18.953125 0 15.328125 0 Z M 9.640625 -5.546875 L 14.859375 -5.546875 C 18.585938 -5.546875 21.5 -6.625 23.59375 -8.78125 C 25.6875 -10.9375 26.734375 -14.050781 26.734375 -18.125 C 26.734375 -22.238281 25.6875 -25.363281 23.59375 -27.5 C 21.5 -29.644531 18.585938 -30.71875 14.859375 -30.71875 L 9.640625 -30.71875 Z M 9.640625 -5.546875 "/></g></g></g><g fill="#ffffff" fill-opacity="1"><g transform="translate(128.540679, 223.350854)"><g><path d="M 6.140625 0 C 4.296875 0 3.375 -0.9375 3.375 -2.8125 L 3.375 -30.53125 C 3.375 -31.613281 3.648438 -32.351562 4.203125 -32.75 C 4.765625 -33.144531 5.585938 -33.34375 6.671875 -33.34375 C 8.128906 -33.34375 9.238281 -32.707031 10 -31.4375 L 18.4375 -17.34375 L 26.78125 -31.390625 C 27.21875 -32.191406 27.726562 -32.71875 28.3125 -32.96875 C 28.90625 -33.21875 29.679688 -33.34375 30.640625 -33.34375 C 32.503906 -33.34375 33.4375 -32.40625 33.4375 -30.53125 L 33.4375 -2.8125 C 33.4375 -0.9375 32.503906 0 30.640625 0 C 28.765625 0 27.828125 -0.9375 27.828125 -2.8125 L 27.828125 -23.765625 L 21.109375 -12.140625 C 20.441406 -10.835938 19.535156 -10.1875 18.390625 -10.1875 C 17.242188 -10.1875 16.335938 -10.835938 15.671875 -12.140625 L 8.90625 -23.765625 L 8.90625 -2.8125 C 8.90625 -0.9375 7.984375 0 6.140625 0 Z M 6.140625 0 "/></g></g></g><g fill="#ffffff" fill-opacity="1"><g transform="translate(173.497885, 223.350854)"><g><path d="M 12.765625 0.53125 C 10.671875 0.53125 8.789062 0.03125 7.125 -0.96875 C 5.457031 -1.976562 4.140625 -3.378906 3.171875 -5.171875 C 2.203125 -6.960938 1.71875 -9.066406 1.71875 -11.484375 C 1.71875 -13.898438 2.203125 -16.003906 3.171875 -17.796875 C 4.140625 -19.585938 5.457031 -20.984375 7.125 -21.984375 C 8.789062 -22.984375 10.671875 -23.484375 12.765625 -23.484375 C 14.921875 -23.484375 16.832031 -22.984375 18.5 -21.984375 C 20.175781 -20.984375 21.488281 -19.585938 22.4375 -17.796875 C 23.394531 -16.003906 23.875 -13.898438 23.875 -11.484375 C 23.875 -9.066406 23.394531 -6.960938 22.4375 -5.171875 C 21.488281 -3.378906 20.175781 -1.976562 18.5 -0.96875 C 16.832031 0.03125 14.921875 0.53125 12.765625 0.53125 Z M 12.765625 -4.328125 C 14.453125 -4.328125 15.828125 -4.945312 16.890625 -6.1875 C 17.953125 -7.425781 18.484375 -9.191406 18.484375 -11.484375 C 18.484375 -13.765625 17.953125 -15.523438 16.890625 -16.765625 C 15.828125 -18.003906 14.453125 -18.625 12.765625 -18.625 C 11.117188 -18.625 9.769531 -18.003906 8.71875 -16.765625 C 7.664062 -15.523438 7.140625 -13.765625 7.140625 -11.484375 C 7.140625 -9.191406 7.664062 -7.425781 8.71875 -6.1875 C 9.769531 -4.945312 11.117188 -4.328125 12.765625 -4.328125 Z M 12.765625 -4.328125 "/></g></g></g><g fill="#ffffff" fill-opacity="1"><g transform="translate(207.264142, 223.350854)"><g><path d="M 12.296875 0.53125 C 10.035156 0.53125 8.304688 0.117188 7.109375 -0.703125 C 5.921875 -1.535156 5.328125 -3.191406 5.328125 -5.671875 L 5.328125 -18.296875 L 3.765625 -18.296875 C 1.890625 -18.296875 0.953125 -19.070312 0.953125 -20.625 C 0.953125 -21.351562 1.148438 -21.914062 1.546875 -22.3125 C 1.941406 -22.71875 2.664062 -22.921875 3.71875 -22.921875 L 5.328125 -22.921875 L 5.328125 -28.15625 C 5.328125 -30.03125 6.234375 -30.96875 8.046875 -30.96875 C 9.796875 -30.96875 10.671875 -30.03125 10.671875 -28.15625 L 10.671875 -22.921875 L 14.203125 -22.921875 C 16.066406 -22.921875 17 -22.15625 17 -20.625 C 17 -19.070312 16.082031 -18.296875 14.25 -18.296875 L 10.671875 -18.296875 L 10.671875 -7.046875 C 10.671875 -5.972656 10.929688 -5.242188 11.453125 -4.859375 C 11.984375 -4.472656 12.738281 -4.28125 13.71875 -4.28125 C 14.738281 -4.28125 15.539062 -4.160156 16.125 -3.921875 C 16.707031 -3.691406 17 -3.082031 17 -2.09375 C 17 -1.300781 16.769531 -0.722656 16.3125 -0.359375 C 15.851562 0.00390625 15.265625 0.242188 14.546875 0.359375 C 13.835938 0.472656 13.085938 0.53125 12.296875 0.53125 Z M 12.296875 0.53125 "/></g></g></g><g fill="#ffffff" fill-opacity="1"><g transform="translate(233.791989, 223.350854)"><g><path d="M 12.765625 0.53125 C 10.671875 0.53125 8.789062 0.03125 7.125 -0.96875 C 5.457031 -1.976562 4.140625 -3.378906 3.171875 -5.171875 C 2.203125 -6.960938 1.71875 -9.066406 1.71875 -11.484375 C 1.71875 -13.898438 2.203125 -16.003906 3.171875 -17.796875 C 4.140625 -19.585938 5.457031 -20.984375 7.125 -21.984375 C 8.789062 -22.984375 10.671875 -23.484375 12.765625 -23.484375 C 14.921875 -23.484375 16.832031 -22.984375 18.5 -21.984375 C 20.175781 -20.984375 21.488281 -19.585938 22.4375 -17.796875 C 23.394531 -16.003906 23.875 -13.898438 23.875 -11.484375 C 23.875 -9.066406 23.394531 -6.960938 22.4375 -5.171875 C 21.488281 -3.378906 20.175781 -1.976562 18.5 -0.96875 C 16.832031 0.03125 14.921875 0.53125 12.765625 0.53125 Z M 12.765625 -4.328125 C 14.453125 -4.328125 15.828125 -4.945312 16.890625 -6.1875 C 17.953125 -7.425781 18.484375 -9.191406 18.484375 -11.484375 C 18.484375 -13.765625 17.953125 -15.523438 16.890625 -16.765625 C 15.828125 -18.003906 14.453125 -18.625 12.765625 -18.625 C 11.117188 -18.625 9.769531 -18.003906 8.71875 -16.765625 C 7.664062 -15.523438 7.140625 -13.765625 7.140625 -11.484375 C 7.140625 -9.191406 7.664062 -7.425781 8.71875 -6.1875 C 9.769531 -4.945312 11.117188 -4.328125 12.765625 -4.328125 Z M 12.765625 -4.328125 "/></g></g></g><g fill="#ffffff" fill-opacity="1"><g transform="translate(175.291078, 277.589033)"><g><path d="M 12.90625 0.53125 C 9.570312 0.53125 6.875 -0.476562 4.8125 -2.5 C 2.75 -4.519531 1.71875 -7.515625 1.71875 -11.484375 C 1.71875 -13.960938 2.175781 -16.097656 3.09375 -17.890625 C 4.019531 -19.679688 5.304688 -21.0625 6.953125 -22.03125 C 8.609375 -23 10.5 -23.484375 12.625 -23.484375 C 14.75 -23.484375 16.554688 -22.988281 18.046875 -22 C 19.546875 -21.019531 20.691406 -19.75 21.484375 -18.1875 C 22.273438 -16.632812 22.671875 -15.019531 22.671875 -13.34375 C 22.671875 -12.164062 22.429688 -11.394531 21.953125 -11.03125 C 21.484375 -10.664062 20.785156 -10.484375 19.859375 -10.484375 L 7 -10.484375 C 7.125 -8.191406 7.726562 -6.5625 8.8125 -5.59375 C 9.894531 -4.625 11.289062 -4.140625 13 -4.140625 C 14.9375 -4.140625 16.445312 -4.804688 17.53125 -6.140625 C 18.164062 -6.804688 18.757812 -7.242188 19.3125 -7.453125 C 19.875 -7.660156 20.472656 -7.539062 21.109375 -7.09375 C 21.742188 -6.65625 22.109375 -6.082031 22.203125 -5.375 C 22.296875 -4.675781 22.007812 -3.945312 21.34375 -3.1875 C 20.257812 -1.882812 19.019531 -0.9375 17.625 -0.34375 C 16.226562 0.238281 14.65625 0.53125 12.90625 0.53125 Z M 7.234375 -14.625 L 17.390625 -14.625 C 17.128906 -16.113281 16.578125 -17.265625 15.734375 -18.078125 C 14.898438 -18.890625 13.832031 -19.296875 12.53125 -19.296875 C 11.132812 -19.296875 9.984375 -18.910156 9.078125 -18.140625 C 8.171875 -17.378906 7.554688 -16.207031 7.234375 -14.625 Z M 7.234375 -14.625 "/></g></g></g><g fill="#ffffff" fill-opacity="1"><g transform="translate(206.437516, 277.589033)"><g><path d="M 11.140625 0.46875 C 9.710938 0.46875 8.351562 0.285156 7.0625 -0.078125 C 5.78125 -0.441406 4.601562 -1.003906 3.53125 -1.765625 C 2.726562 -2.304688 2.300781 -2.898438 2.25 -3.546875 C 2.207031 -4.203125 2.457031 -4.832031 3 -5.4375 C 3.539062 -6 4.101562 -6.265625 4.6875 -6.234375 C 5.28125 -6.203125 5.972656 -5.96875 6.765625 -5.53125 C 8.035156 -4.632812 9.59375 -4.1875 11.4375 -4.1875 C 12.738281 -4.1875 13.679688 -4.367188 14.265625 -4.734375 C 14.859375 -5.097656 15.15625 -5.773438 15.15625 -6.765625 C 15.15625 -7.242188 15.007812 -7.632812 14.71875 -7.9375 C 14.4375 -8.238281 13.90625 -8.515625 13.125 -8.765625 C 12.34375 -9.015625 11.207031 -9.285156 9.71875 -9.578125 C 7.5 -10.023438 5.71875 -10.753906 4.375 -11.765625 C 3.039062 -12.785156 2.375 -14.390625 2.375 -16.578125 C 2.375 -18.003906 2.753906 -19.234375 3.515625 -20.265625 C 4.285156 -21.296875 5.320312 -22.097656 6.625 -22.671875 C 7.925781 -23.242188 9.367188 -23.53125 10.953125 -23.53125 C 13.429688 -23.53125 15.53125 -23.007812 17.25 -21.96875 C 18.101562 -21.519531 18.582031 -20.96875 18.6875 -20.3125 C 18.800781 -19.664062 18.625 -19.039062 18.15625 -18.4375 C 17.644531 -17.800781 17.09375 -17.484375 16.5 -17.484375 C 15.914062 -17.484375 15.226562 -17.660156 14.4375 -18.015625 C 13.925781 -18.296875 13.390625 -18.5 12.828125 -18.625 C 12.273438 -18.75 11.679688 -18.8125 11.046875 -18.8125 C 9.878906 -18.8125 9.046875 -18.601562 8.546875 -18.1875 C 8.054688 -17.78125 7.8125 -17.289062 7.8125 -16.71875 C 7.8125 -16.3125 7.929688 -15.960938 8.171875 -15.671875 C 8.410156 -15.390625 8.878906 -15.117188 9.578125 -14.859375 C 10.273438 -14.609375 11.289062 -14.320312 12.625 -14 C 15.164062 -13.394531 17.132812 -12.519531 18.53125 -11.375 C 19.925781 -10.238281 20.625 -8.640625 20.625 -6.578125 C 20.625 -4.253906 19.742188 -2.5 17.984375 -1.3125 C 16.222656 -0.125 13.941406 0.46875 11.140625 0.46875 Z M 11.140625 0.46875 "/></g></g></g><g fill="#ffffff" fill-opacity="1"><g transform="translate(234.726683, 277.589033)"><g><path d="M 12.296875 9.484375 C 8.703125 9.484375 5.859375 8.4375 3.765625 6.34375 C 3.097656 5.632812 2.828125 4.945312 2.953125 4.28125 C 3.078125 3.613281 3.488281 3.0625 4.1875 2.625 C 4.882812 2.144531 5.519531 1.984375 6.09375 2.140625 C 6.664062 2.296875 7.300781 2.644531 8 3.1875 C 9.113281 4.144531 10.546875 4.625 12.296875 4.625 C 14.171875 4.625 15.550781 4.050781 16.4375 2.90625 C 17.320312 1.757812 17.765625 -0.0664062 17.765625 -2.578125 L 17.765625 -3.859375 C 16.273438 -2.304688 14.382812 -1.53125 12.09375 -1.53125 C 10.09375 -1.53125 8.304688 -1.945312 6.734375 -2.78125 C 5.171875 -3.625 3.941406 -4.863281 3.046875 -6.5 C 2.160156 -8.132812 1.71875 -10.144531 1.71875 -12.53125 C 1.71875 -14.945312 2.160156 -16.960938 3.046875 -18.578125 C 3.941406 -20.203125 5.171875 -21.425781 6.734375 -22.25 C 8.304688 -23.070312 10.09375 -23.484375 12.09375 -23.484375 C 13.332031 -23.484375 14.523438 -23.222656 15.671875 -22.703125 C 16.816406 -22.179688 17.753906 -21.300781 18.484375 -20.0625 L 18.484375 -20.859375 C 18.484375 -21.660156 18.6875 -22.203125 19.09375 -22.484375 C 19.507812 -22.773438 20.082031 -22.921875 20.8125 -22.921875 C 22.34375 -22.921875 23.109375 -21.984375 23.109375 -20.109375 L 23.109375 -2.578125 C 23.109375 1.203125 22.222656 4.15625 20.453125 6.28125 C 18.691406 8.414062 15.972656 9.484375 12.296875 9.484375 Z M 12.53125 -6.234375 C 14.175781 -6.234375 15.523438 -6.796875 16.578125 -7.921875 C 17.628906 -9.054688 18.15625 -10.59375 18.15625 -12.53125 C 18.15625 -14.5 17.628906 -16.03125 16.578125 -17.125 C 15.523438 -18.21875 14.175781 -18.765625 12.53125 -18.765625 C 10.875 -18.765625 9.5625 -18.21875 8.59375 -17.125 C 7.625 -16.03125 7.140625 -14.5 7.140625 -12.53125 C 7.140625 -10.59375 7.625 -9.054688 8.59375 -7.921875 C 9.5625 -6.796875 10.875 -6.234375 12.53125 -6.234375 Z M 12.53125 -6.234375 "/></g></g></g><g fill="#ffffff" fill-opacity="1"><g transform="translate(267.111265, 277.589033)"><g><path d="M 6.34375 0 C 4.5625 0 3.671875 -0.9375 3.671875 -2.8125 L 3.671875 -20.109375 C 3.671875 -21.984375 4.5625 -22.921875 6.34375 -22.921875 C 8.113281 -22.921875 9 -21.984375 9 -20.109375 L 9 -2.8125 C 9 -0.9375 8.113281 0 6.34375 0 Z M 6.28125 -26.671875 C 5.363281 -26.671875 4.570312 -27.003906 3.90625 -27.671875 C 3.238281 -28.335938 2.90625 -29.132812 2.90625 -30.0625 C 2.90625 -30.976562 3.238281 -31.769531 3.90625 -32.4375 C 4.570312 -33.101562 5.363281 -33.4375 6.28125 -33.4375 C 7.207031 -33.4375 8.003906 -33.101562 8.671875 -32.4375 C 9.335938 -31.769531 9.671875 -30.976562 9.671875 -30.0625 C 9.671875 -29.132812 9.335938 -28.335938 8.671875 -27.671875 C 8.003906 -27.003906 7.207031 -26.671875 6.28125 -26.671875 Z M 6.28125 -26.671875 "/></g></g></g><g fill="#ffffff" fill-opacity="1"><g transform="translate(286.019087, 277.589033)"><g><path d="M 5.625 0 C 3.8125 0 2.90625 -0.9375 2.90625 -2.8125 L 2.90625 -20.109375 C 2.90625 -21.984375 3.710938 -22.921875 5.328125 -22.921875 C 6.953125 -22.921875 7.796875 -22.503906 7.859375 -21.671875 L 8 -20.203125 C 8.632812 -21.085938 9.472656 -21.851562 10.515625 -22.5 C 11.566406 -23.15625 12.8125 -23.484375 14.25 -23.484375 C 16.625 -23.484375 18.566406 -22.71875 20.078125 -21.1875 C 21.585938 -19.664062 22.34375 -17.429688 22.34375 -14.484375 L 22.34375 -2.8125 C 22.34375 -0.9375 21.453125 0 19.671875 0 C 17.859375 0 16.953125 -0.9375 16.953125 -2.8125 L 16.953125 -13.203125 C 16.953125 -15.003906 16.585938 -16.359375 15.859375 -17.265625 C 15.128906 -18.171875 14.144531 -18.625 12.90625 -18.625 C 11.539062 -18.625 10.429688 -18.15625 9.578125 -17.21875 C 8.722656 -16.28125 8.296875 -14.890625 8.296875 -13.046875 L 8.296875 -2.8125 C 8.296875 -0.9375 7.40625 0 5.625 0 Z M 5.625 0 "/></g></g></g></svg>