<svg xmlns="http://www.w3.org/2000/svg" xmlns:xlink="http://www.w3.org/1999/xlink" width="500" zoomAndPan="magnify" viewBox="0 0 375 374.999991" height="500" preserveAspectRatio="xMidYMid meet" version="1.0"><defs><clipPath id="757c99598c"><path d="M 37.5 17.28125 L 330.0625 17.28125 L 330.0625 357.84375 L 37.5 357.84375 Z M 37.5 17.28125 " clip-rule="nonzero"/></clipPath><clipPath id="32806413e5"><path d="M 183.78125 17.28125 L 330.0625 102.390625 L 330.0625 272.609375 L 183.78125 357.71875 L 37.5 272.609375 L 37.5 102.390625 Z M 183.78125 17.28125 " clip-rule="nonzero"/></clipPath><clipPath id="c6bec8d8f9"><path d="M 44.265625 24.046875 L 323.921875 24.046875 L 323.921875 187.5 L 44.265625 187.5 Z M 44.265625 24.046875 " clip-rule="nonzero"/></clipPath><clipPath id="7d51d0dec1"><path d="M 183.78125 24.046875 L 323.296875 105.773438 L 183.78125 187.5 L 44.265625 105.773438 Z M 183.78125 24.046875 " clip-rule="nonzero"/></clipPath></defs><rect x="-37.5" width="450" fill="#ffffff" y="-37.499999" height="449.999989" fill-opacity="1"/><rect x="-37.5" width="450" fill="#ffffff" y="-37.499999" height="449.999989" fill-opacity="1"/><g clip-path="url(#757c99598c)"><g clip-path="url(#32806413e5)"><path fill="#050a30" d="M 37.5 17.28125 L 330.0625 17.28125 L 330.0625 357.84375 L 37.5 357.84375 Z M 37.5 17.28125 " fill-opacity="1" fill-rule="nonzero"/></g></g><g clip-path="url(#c6bec8d8f9)"><g clip-path="url(#7d51d0dec1)"><path fill="#233dff" d="M 44.265625 24.046875 L 323.285156 24.046875 L 323.285156 187.5 L 44.265625 187.5 Z M 44.265625 24.046875 " fill-opacity="1" fill-rule="nonzero"/></g></g></svg>