<svg xmlns="http://www.w3.org/2000/svg" xmlns:xlink="http://www.w3.org/1999/xlink" width="500" zoomAndPan="magnify" viewBox="0 0 375 225" height="300" preserveAspectRatio="xMidYMid meet" version="1.0"><defs><g/><clipPath id="b534581b02"><path d="M 117 218 L 122 218 L 122 218.632812 L 117 218.632812 Z M 117 218 " clip-rule="nonzero"/></clipPath><clipPath id="d741ec5ebc"><path d="M 22.5 12.710938 L 352.15625 12.710938 L 352.15625 218.632812 L 22.5 218.632812 Z M 22.5 12.710938 " clip-rule="nonzero"/></clipPath></defs><g fill="#0f3800" fill-opacity="1"><g transform="translate(45.458201, 180.732408)"><g><path d="M 15.203125 -85.109375 C 13.796875 -85.671875 12.953125 -87.007812 12.671875 -89.125 C 12.671875 -89.832031 12.738281 -90.535156 12.875 -91.234375 C 13.019531 -91.941406 13.304688 -92.578125 13.734375 -93.140625 C 14.296875 -93.703125 14.859375 -94.054688 15.421875 -94.203125 C 15.984375 -94.335938 17.003906 -93.910156 18.484375 -92.921875 C 19.960938 -91.941406 20.769531 -91.171875 20.90625 -90.609375 C 21.46875 -88.640625 20.90625 -87.160156 19.21875 -86.171875 C 17.945312 -84.898438 16.609375 -84.546875 15.203125 -85.109375 Z M 18.15625 -33.796875 C 17.738281 -33.929688 17.351562 -34.140625 17 -34.421875 C 16.644531 -34.703125 16.328125 -34.984375 16.046875 -35.265625 C 15.910156 -35.410156 15.84375 -35.765625 15.84375 -36.328125 C 15.695312 -39.140625 15.550781 -41.914062 15.40625 -44.65625 C 15.269531 -47.40625 15.132812 -50.117188 15 -52.796875 C 14.851562 -53.078125 14.816406 -53.320312 14.890625 -53.53125 C 14.960938 -53.75 15 -53.925781 15 -54.0625 C 15.28125 -55.476562 15.734375 -56.570312 16.359375 -57.34375 C 16.992188 -58.113281 17.59375 -58.359375 18.15625 -58.078125 C 19.289062 -57.796875 19.890625 -57.234375 19.953125 -56.390625 C 20.023438 -55.546875 20.0625 -54.703125 20.0625 -53.859375 C 20.0625 -53.015625 20.097656 -51.460938 20.171875 -49.203125 C 20.242188 -46.953125 20.347656 -44.734375 20.484375 -42.546875 C 20.628906 -40.367188 20.703125 -38.859375 20.703125 -38.015625 C 20.703125 -37.597656 20.703125 -37.175781 20.703125 -36.75 C 20.703125 -36.320312 20.628906 -35.898438 20.484375 -35.484375 C 19.921875 -34.210938 19.144531 -33.648438 18.15625 -33.796875 Z M 18.15625 -33.796875 "/></g></g></g><g fill="#0f3800" fill-opacity="1"><g transform="translate(83.474212, 180.732408)"><g><path d="M 7.609375 -14.578125 C 6.617188 -14.859375 5.910156 -15.28125 5.484375 -15.84375 C 5.203125 -16.257812 4.988281 -16.75 4.84375 -17.3125 C 4.707031 -17.875 4.5 -18.441406 4.21875 -19.015625 C 3.09375 -24.078125 2.320312 -28.929688 1.90625 -33.578125 C 1.195312 -44.421875 0.664062 -55.332031 0.3125 -66.3125 C -0.0390625 -77.300781 -0.0703125 -88.210938 0.21875 -99.046875 C 0.5 -102.710938 0.640625 -106.335938 0.640625 -109.921875 C 0.640625 -113.515625 0.707031 -117.070312 0.84375 -120.59375 C 0.988281 -121.71875 1.164062 -122.804688 1.375 -123.859375 C 1.582031 -124.921875 1.757812 -125.945312 1.90625 -126.9375 C 2.1875 -127.914062 2.890625 -128.265625 4.015625 -127.984375 C 4.859375 -127.984375 5.28125 -127.632812 5.28125 -126.9375 C 5.414062 -125.945312 5.519531 -124.957031 5.59375 -123.96875 C 5.664062 -122.988281 5.703125 -122.003906 5.703125 -121.015625 C 5.554688 -115.390625 5.445312 -109.6875 5.375 -103.90625 C 5.3125 -98.132812 5.28125 -92.363281 5.28125 -86.59375 C 5.28125 -80.113281 5.347656 -73.632812 5.484375 -67.15625 C 5.628906 -60.6875 5.984375 -54.210938 6.546875 -47.734375 C 6.546875 -46.742188 6.757812 -45.265625 7.1875 -43.296875 C 7.882812 -44.421875 8.269531 -45.40625 8.34375 -46.25 C 8.414062 -47.09375 8.519531 -47.867188 8.65625 -48.578125 C 8.9375 -49.421875 9.113281 -50.265625 9.1875 -51.109375 C 9.257812 -51.953125 9.363281 -52.796875 9.5 -53.640625 C 11.1875 -62.796875 12.910156 -71.878906 14.671875 -80.890625 C 16.429688 -89.898438 18.648438 -98.769531 21.328125 -107.5 C 22.453125 -111.164062 23.613281 -114.722656 24.8125 -118.171875 C 26.007812 -121.617188 27.453125 -124.960938 29.140625 -128.203125 C 31.960938 -133.972656 35.34375 -139.253906 39.28125 -144.046875 C 41.53125 -146.710938 43.992188 -148.820312 46.671875 -150.375 C 50.335938 -152.207031 53.648438 -151.644531 56.609375 -148.6875 C 58.429688 -146.71875 59.625 -144.394531 60.1875 -141.71875 C 60.46875 -139.882812 60.710938 -138.085938 60.921875 -136.328125 C 61.140625 -134.566406 61.25 -132.703125 61.25 -130.734375 C 61.25 -125.378906 61.035156 -119.992188 60.609375 -114.578125 C 60.191406 -109.160156 59.769531 -103.773438 59.34375 -98.421875 C 58.925781 -91.660156 58.46875 -84.863281 57.96875 -78.03125 C 57.476562 -71.207031 57.304688 -64.414062 57.453125 -57.65625 C 57.585938 -55.539062 57.796875 -53.460938 58.078125 -51.421875 C 58.359375 -49.378906 58.710938 -47.164062 59.140625 -44.78125 C 60.265625 -45.90625 60.929688 -46.957031 61.140625 -47.9375 C 61.347656 -48.925781 61.523438 -49.914062 61.671875 -50.90625 L 65.46875 -77.296875 C 65.894531 -80.253906 66.53125 -83.210938 67.375 -86.171875 C 68.21875 -89.128906 69.132812 -92.015625 70.125 -94.828125 C 71.25 -97.785156 72.726562 -100.390625 74.5625 -102.640625 C 76.101562 -104.328125 77.71875 -105.03125 79.40625 -104.75 C 81.101562 -104.46875 82.375 -103.273438 83.21875 -101.171875 C 83.78125 -99.898438 84.164062 -98.5625 84.375 -97.15625 C 84.582031 -95.75 84.757812 -94.335938 84.90625 -92.921875 C 85.1875 -89.546875 85.394531 -86.203125 85.53125 -82.890625 C 85.675781 -79.585938 85.890625 -76.242188 86.171875 -72.859375 C 86.453125 -69.054688 86.875 -65.394531 87.4375 -61.875 C 87.863281 -59.0625 88.847656 -56.457031 90.390625 -54.0625 C 92.222656 -51.53125 94.6875 -50.6875 97.78125 -51.53125 C 99.332031 -51.8125 100.671875 -52.335938 101.796875 -53.109375 C 102.921875 -53.890625 103.976562 -54.703125 104.96875 -55.546875 C 106.65625 -57.097656 108.203125 -58.679688 109.609375 -60.296875 C 111.015625 -61.921875 112.351562 -63.578125 113.625 -65.265625 C 114.613281 -66.523438 115.53125 -67.789062 116.375 -69.0625 C 117.21875 -70.332031 118.132812 -71.53125 119.125 -72.65625 C 119.40625 -73.070312 119.96875 -73.707031 120.8125 -74.5625 C 121.789062 -75.257812 122.773438 -75.257812 123.765625 -74.5625 C 124.753906 -73.988281 125.035156 -73.070312 124.609375 -71.8125 C 124.609375 -71.53125 124.46875 -71.109375 124.1875 -70.546875 C 121.9375 -67.441406 119.679688 -64.375 117.421875 -61.34375 C 115.171875 -58.320312 112.707031 -55.472656 110.03125 -52.796875 C 108.488281 -51.390625 106.800781 -50.085938 104.96875 -48.890625 C 103.132812 -47.691406 101.160156 -46.742188 99.046875 -46.046875 C 94.117188 -44.773438 90.035156 -46.113281 86.796875 -50.0625 C 85.671875 -51.601562 84.753906 -53.179688 84.046875 -54.796875 C 83.347656 -56.421875 82.789062 -58.148438 82.375 -59.984375 C 81.53125 -63.503906 81 -67.054688 80.78125 -70.640625 C 80.570312 -74.234375 80.328125 -77.789062 80.046875 -81.3125 C 79.898438 -83.28125 79.828125 -85.25 79.828125 -87.21875 C 79.828125 -89.195312 79.757812 -91.097656 79.625 -92.921875 C 79.476562 -93.492188 79.367188 -94.023438 79.296875 -94.515625 C 79.234375 -95.003906 79.0625 -95.53125 78.78125 -96.09375 C 78.632812 -96.375 78.382812 -96.550781 78.03125 -96.625 C 77.6875 -96.695312 77.441406 -96.59375 77.296875 -96.3125 C 76.734375 -95.75 76.238281 -95.039062 75.8125 -94.1875 C 75.394531 -93.34375 75.046875 -92.570312 74.765625 -91.875 C 73.359375 -87.789062 72.234375 -83.632812 71.390625 -79.40625 C 70.546875 -75.1875 69.84375 -70.894531 69.28125 -66.53125 C 68.851562 -63.425781 68.425781 -60.328125 68 -57.234375 C 67.582031 -54.140625 67.09375 -51.039062 66.53125 -47.9375 C 66.382812 -46.394531 66.097656 -44.847656 65.671875 -43.296875 C 65.253906 -41.742188 64.695312 -40.195312 64 -38.65625 C 63.570312 -37.664062 63.039062 -36.75 62.40625 -35.90625 C 61.769531 -35.0625 60.75 -34.707031 59.34375 -34.84375 C 58.082031 -34.988281 57.132812 -35.484375 56.5 -36.328125 C 55.863281 -37.171875 55.40625 -38.085938 55.125 -39.078125 C 53.71875 -43.296875 52.875 -47.726562 52.59375 -52.375 C 52.164062 -57.726562 52.054688 -63.078125 52.265625 -68.421875 C 52.484375 -73.773438 52.734375 -79.054688 53.015625 -84.265625 C 53.429688 -91.453125 53.882812 -98.671875 54.375 -105.921875 C 54.875 -113.171875 55.332031 -120.382812 55.75 -127.5625 C 55.894531 -129.539062 55.859375 -131.515625 55.640625 -133.484375 C 55.429688 -135.453125 55.257812 -137.351562 55.125 -139.1875 C 55.125 -139.601562 54.984375 -140.234375 54.703125 -141.078125 C 53.148438 -146.285156 50.332031 -147.0625 46.25 -143.40625 C 43.71875 -141.289062 41.394531 -138.472656 39.28125 -134.953125 C 37.03125 -131.578125 35.054688 -128.09375 33.359375 -124.5 C 31.671875 -120.914062 30.195312 -117.222656 28.9375 -113.421875 C 26.6875 -106.941406 24.75 -100.320312 23.125 -93.5625 C 21.507812 -86.800781 20.066406 -80.039062 18.796875 -73.28125 C 17.109375 -64.976562 15.628906 -57.09375 14.359375 -49.625 C 13.796875 -46.113281 13.375 -42.664062 13.09375 -39.28125 C 12.8125 -35.90625 12.457031 -32.457031 12.03125 -28.9375 L 10.765625 -18.578125 C 10.765625 -17.734375 10.554688 -16.890625 10.140625 -16.046875 C 9.578125 -14.785156 8.734375 -14.296875 7.609375 -14.578125 Z M 7.609375 -14.578125 "/></g></g></g><g fill="#0f3800" fill-opacity="1"><g transform="translate(204.069419, 180.732408)"><g><path d="M 6.125 -57.453125 C 3.445312 -59.703125 1.648438 -62.691406 0.734375 -66.421875 C -0.179688 -70.148438 0.0664062 -73.847656 1.484375 -77.515625 C 2.179688 -79.335938 3.019531 -81.023438 4 -82.578125 C 4.988281 -84.128906 6.257812 -85.394531 7.8125 -86.375 C 9.78125 -87.789062 12.035156 -88.078125 14.578125 -87.234375 C 15.835938 -86.941406 16.328125 -86.09375 16.046875 -84.6875 C 16.046875 -83.5625 15.554688 -83 14.578125 -83 C 11.472656 -82.71875 9.21875 -81.238281 7.8125 -78.5625 C 5.976562 -75.75 5.273438 -72.441406 5.703125 -68.640625 C 6.128906 -66.390625 6.972656 -64.421875 8.234375 -62.734375 C 10.347656 -60.753906 12.285156 -60.1875 14.046875 -61.03125 C 15.804688 -61.882812 17.210938 -63.398438 18.265625 -65.578125 C 19.328125 -67.765625 19.785156 -69.703125 19.640625 -71.390625 C 19.222656 -72.515625 19.296875 -73.5 19.859375 -74.34375 C 20.421875 -75.1875 21.191406 -75.679688 22.171875 -75.828125 C 22.597656 -75.960938 23.234375 -76.03125 24.078125 -76.03125 C 27.453125 -76.175781 30.796875 -76.28125 34.109375 -76.34375 C 37.421875 -76.414062 40.765625 -76.453125 44.140625 -76.453125 C 45.410156 -76.453125 46.675781 -76.242188 47.9375 -75.828125 C 48.925781 -75.546875 49.421875 -74.910156 49.421875 -73.921875 C 49.421875 -73.078125 49 -72.375 48.15625 -71.8125 C 47.59375 -71.382812 46.992188 -71.171875 46.359375 -71.171875 C 45.722656 -71.171875 45.054688 -71.171875 44.359375 -71.171875 C 42.097656 -71.035156 39.769531 -70.96875 37.375 -70.96875 C 34.988281 -70.96875 32.597656 -70.894531 30.203125 -70.75 L 25.140625 -70.75 C 25.273438 -69.34375 24.847656 -67.441406 23.859375 -65.046875 C 22.878906 -62.648438 21.507812 -60.429688 19.75 -58.390625 C 17.988281 -56.347656 15.945312 -55.113281 13.625 -54.6875 C 11.300781 -54.269531 8.800781 -55.191406 6.125 -57.453125 Z M 6.125 -57.453125 "/></g></g></g><g fill="#0f3800" fill-opacity="1"><g transform="translate(249.266211, 180.732408)"><g><path d="M 42.875 -114.046875 C 43.15625 -112.359375 42.238281 -111.441406 40.125 -111.296875 C 36.882812 -111.296875 32.484375 -111.15625 26.921875 -110.875 C 21.359375 -110.59375 15.550781 -110.3125 9.5 -110.03125 C 9.363281 -108.207031 9.1875 -106.554688 8.96875 -105.078125 C 8.757812 -103.597656 8.65625 -102.644531 8.65625 -102.21875 C 8.375 -99.539062 8.019531 -96.796875 7.59375 -93.984375 C 7.175781 -91.171875 6.828125 -88.351562 6.546875 -85.53125 C 6.410156 -81.03125 6.164062 -76.488281 5.8125 -71.90625 C 5.457031 -67.332031 5.5625 -62.796875 6.125 -58.296875 C 6.40625 -56.890625 6.722656 -55.445312 7.078125 -53.96875 C 7.429688 -52.488281 7.890625 -51.039062 8.453125 -49.625 C 8.734375 -48.925781 9.117188 -48.1875 9.609375 -47.40625 C 10.097656 -46.632812 10.625 -45.898438 11.1875 -45.203125 C 12.457031 -43.929688 14.007812 -43.71875 15.84375 -44.5625 C 17.101562 -45.269531 18.226562 -46.148438 19.21875 -47.203125 C 20.207031 -48.253906 21.125 -49.273438 21.96875 -50.265625 C 24.5 -53.640625 26.75 -57.367188 28.71875 -61.453125 C 29.425781 -63.003906 30.203125 -64.554688 31.046875 -66.109375 C 31.890625 -67.660156 32.664062 -69.207031 33.375 -70.75 L 35.265625 -73.28125 C 36.109375 -74.132812 36.882812 -74.347656 37.59375 -73.921875 C 38.71875 -73.492188 39.28125 -72.648438 39.28125 -71.390625 C 39.28125 -70.960938 39.140625 -70.328125 38.859375 -69.484375 C 37.023438 -65.960938 35.226562 -62.40625 33.46875 -58.8125 C 31.707031 -55.226562 29.632812 -51.816406 27.25 -48.578125 C 25.414062 -45.617188 23.09375 -43.082031 20.28125 -40.96875 C 14.644531 -36.882812 9.785156 -37.660156 5.703125 -43.296875 C 4.578125 -44.984375 3.660156 -46.742188 2.953125 -48.578125 C 2.253906 -50.410156 1.765625 -52.238281 1.484375 -54.0625 C 0.640625 -58.144531 0.21875 -62.265625 0.21875 -66.421875 C 0.21875 -70.578125 0.425781 -74.695312 0.84375 -78.78125 C 1.125 -82.582031 1.507812 -86.414062 2 -90.28125 C 2.5 -94.15625 2.957031 -98.066406 3.375 -102.015625 L 4.4375 -109.609375 C -0.351562 -109.472656 -4.929688 -109.296875 -9.296875 -109.078125 C -13.660156 -108.867188 -17.390625 -108.765625 -20.484375 -108.765625 C -21.046875 -108.765625 -21.570312 -108.800781 -22.0625 -108.875 C -22.5625 -108.945312 -23.019531 -109.191406 -23.4375 -109.609375 C -23.863281 -109.890625 -24.109375 -110.347656 -24.171875 -110.984375 C -24.242188 -111.617188 -24.070312 -112.078125 -23.65625 -112.359375 C -22.945312 -112.921875 -22.238281 -113.269531 -21.53125 -113.40625 C -20.832031 -113.550781 -20.132812 -113.625 -19.4375 -113.625 C -14.644531 -113.90625 -10.242188 -114.148438 -6.234375 -114.359375 C -2.222656 -114.578125 1.539062 -114.753906 5.0625 -114.890625 C 5.34375 -117.003906 5.585938 -118.941406 5.796875 -120.703125 C 6.015625 -122.460938 6.195312 -123.765625 6.34375 -124.609375 C 6.476562 -125.597656 6.828125 -126.582031 7.390625 -127.5625 C 7.953125 -128.550781 8.65625 -128.832031 9.5 -128.40625 C 10.207031 -128.269531 10.628906 -127.847656 10.765625 -127.140625 C 10.910156 -126.722656 10.984375 -126.300781 10.984375 -125.875 C 10.984375 -125.457031 10.984375 -125.035156 10.984375 -124.609375 C 10.984375 -123.203125 10.628906 -120.035156 9.921875 -115.109375 L 39.5 -116.375 C 41.46875 -116.375 42.59375 -115.597656 42.875 -114.046875 Z M 42.875 -114.046875 "/></g></g><g transform="translate(284.325407, 180.732408)"><g><path d="M 6.125 -57.453125 C 3.445312 -59.703125 1.648438 -62.691406 0.734375 -66.421875 C -0.179688 -70.148438 0.0664062 -73.847656 1.484375 -77.515625 C 2.179688 -79.335938 3.019531 -81.023438 4 -82.578125 C 4.988281 -84.128906 6.257812 -85.394531 7.8125 -86.375 C 9.78125 -87.789062 12.035156 -88.078125 14.578125 -87.234375 C 15.835938 -86.941406 16.328125 -86.09375 16.046875 -84.6875 C 16.046875 -83.5625 15.554688 -83 14.578125 -83 C 11.472656 -82.71875 9.21875 -81.238281 7.8125 -78.5625 C 5.976562 -75.75 5.273438 -72.441406 5.703125 -68.640625 C 6.128906 -66.390625 6.972656 -64.421875 8.234375 -62.734375 C 10.347656 -60.753906 12.285156 -60.1875 14.046875 -61.03125 C 15.804688 -61.882812 17.210938 -63.398438 18.265625 -65.578125 C 19.328125 -67.765625 19.785156 -69.703125 19.640625 -71.390625 C 19.222656 -72.515625 19.296875 -73.5 19.859375 -74.34375 C 20.421875 -75.1875 21.191406 -75.679688 22.171875 -75.828125 C 22.597656 -75.960938 23.234375 -76.03125 24.078125 -76.03125 C 27.453125 -76.175781 30.796875 -76.28125 34.109375 -76.34375 C 37.421875 -76.414062 40.765625 -76.453125 44.140625 -76.453125 C 45.410156 -76.453125 46.675781 -76.242188 47.9375 -75.828125 C 48.925781 -75.546875 49.421875 -74.910156 49.421875 -73.921875 C 49.421875 -73.078125 49 -72.375 48.15625 -71.8125 C 47.59375 -71.382812 46.992188 -71.171875 46.359375 -71.171875 C 45.722656 -71.171875 45.054688 -71.171875 44.359375 -71.171875 C 42.097656 -71.035156 39.769531 -70.96875 37.375 -70.96875 C 34.988281 -70.96875 32.597656 -70.894531 30.203125 -70.75 L 25.140625 -70.75 C 25.273438 -69.34375 24.847656 -67.441406 23.859375 -65.046875 C 22.878906 -62.648438 21.507812 -60.429688 19.75 -58.390625 C 17.988281 -56.347656 15.945312 -55.113281 13.625 -54.6875 C 11.300781 -54.269531 8.800781 -55.191406 6.125 -57.453125 Z M 6.125 -57.453125 "/></g></g></g><path fill="#0f3800" d="M 142.929688 45.433594 C 143.082031 45.433594 143.160156 45.359375 143.238281 45.359375 C 143.160156 45.359375 143.160156 45.359375 143.082031 45.359375 Z M 142.929688 45.433594 " fill-opacity="1" fill-rule="nonzero"/><path fill="#0f3800" d="M 142.164062 45.664062 L 140.015625 46.277344 C 139.9375 46.433594 141.089844 45.972656 142.164062 45.664062 Z M 142.164062 45.664062 " fill-opacity="1" fill-rule="nonzero"/><path fill="#0f3800" d="M 157.660156 40.449219 C 157.582031 40.449219 157.503906 40.371094 157.351562 40.371094 C 157.429688 40.449219 157.503906 40.449219 157.660156 40.449219 Z M 157.660156 40.449219 " fill-opacity="1" fill-rule="nonzero"/><path fill="#0f3800" d="M 68.832031 82.792969 C 69.292969 82.40625 69.523438 82.253906 69.523438 82.179688 C 69.0625 82.5625 68.679688 82.867188 68.832031 82.792969 Z M 68.832031 82.792969 " fill-opacity="1" fill-rule="nonzero"/><path fill="#0f3800" d="M 58.167969 90.691406 C 57.9375 90.847656 57.632812 91.074219 57.480469 91.230469 C 57.707031 91.074219 57.9375 90.847656 58.167969 90.691406 Z M 58.167969 90.691406 " fill-opacity="1" fill-rule="nonzero"/><path fill="#0f3800" d="M 177.066406 35.539062 L 177.679688 35.386719 C 177.832031 35.308594 178.0625 35.234375 178.214844 35.078125 Z M 177.066406 35.539062 " fill-opacity="1" fill-rule="nonzero"/><path fill="#0f3800" d="M 142.929688 45.433594 C 142.699219 45.511719 142.394531 45.589844 142.085938 45.664062 C 142.394531 45.589844 142.699219 45.511719 142.929688 45.433594 Z M 142.929688 45.433594 " fill-opacity="1" fill-rule="nonzero"/><path fill="#0f3800" d="M 210.355469 30.859375 C 210.507812 30.785156 210.585938 30.707031 210.585938 30.707031 Z M 210.355469 30.859375 " fill-opacity="1" fill-rule="nonzero"/><path fill="#0f3800" d="M 254.617188 25.566406 C 254.464844 25.644531 254.308594 25.722656 253.925781 25.722656 C 254.234375 25.722656 254.464844 25.644531 254.691406 25.644531 C 254.769531 25.644531 254.769531 25.644531 254.617188 25.566406 Z M 254.617188 25.566406 " fill-opacity="1" fill-rule="nonzero"/><path fill="#0f3800" d="M 53.335938 202.226562 C 53.257812 202.148438 53.105469 201.996094 53.03125 201.917969 C 52.800781 201.765625 52.570312 201.609375 52.339844 201.535156 Z M 53.335938 202.226562 " fill-opacity="1" fill-rule="nonzero"/><path fill="#0f3800" d="M 40.21875 108.257812 C 40.449219 108.027344 40.601562 107.796875 40.757812 107.566406 C 40.527344 107.875 40.371094 108.105469 40.21875 108.257812 Z M 40.21875 108.257812 " fill-opacity="1" fill-rule="nonzero"/><path fill="#0f3800" d="M 254.617188 25.796875 C 255.078125 25.722656 255.460938 25.644531 255.765625 25.566406 C 255.460938 25.644531 255.078125 25.644531 254.617188 25.796875 C 254.691406 25.722656 254.691406 25.722656 254.617188 25.796875 Z M 254.617188 25.796875 " fill-opacity="1" fill-rule="nonzero"/><path fill="#0f3800" d="M 248.328125 25.03125 C 248.554688 25.03125 248.863281 24.953125 249.09375 24.953125 Z M 248.328125 25.03125 " fill-opacity="1" fill-rule="nonzero"/><path fill="#0f3800" d="M 204.375 30.09375 C 203.757812 30.171875 203.605469 30.554688 203.375 30.707031 C 203.683594 30.554688 204.144531 30.398438 204.679688 30.246094 C 204.679688 30.171875 204.601562 30.09375 204.375 30.09375 Z M 204.375 30.09375 " fill-opacity="1" fill-rule="nonzero"/><path fill="#0f3800" d="M 253.925781 25.796875 C 253.542969 25.796875 253.160156 25.875 252.777344 25.875 C 253.3125 25.875 253.621094 25.796875 253.925781 25.796875 Z M 253.925781 25.796875 " fill-opacity="1" fill-rule="nonzero"/><path fill="#0f3800" d="M 181.128906 214.113281 C 178.445312 214.34375 185.351562 212.964844 181.359375 213.425781 C 181.746094 213.425781 177.832031 214.496094 181.128906 214.113281 Z M 181.128906 214.113281 " fill-opacity="1" fill-rule="nonzero"/><path fill="#0f3800" d="M 316.519531 155.433594 L 318.511719 153.59375 L 317.59375 154.4375 Z M 316.519531 155.433594 " fill-opacity="1" fill-rule="nonzero"/><path fill="#0f3800" d="M 24.265625 165.867188 C 24.265625 165.710938 24.265625 165.480469 24.1875 165.25 C 24.1875 165.25 24.1875 165.40625 24.265625 165.867188 Z M 24.265625 165.867188 " fill-opacity="1" fill-rule="nonzero"/><path fill="#0f3800" d="M 35.695312 186.652344 C 35.847656 186.882812 36 187.113281 36.382812 187.496094 C 36.382812 187.421875 36.308594 187.34375 36.230469 187.265625 C 36.078125 187.113281 35.921875 186.960938 35.695312 186.652344 Z M 35.695312 186.652344 " fill-opacity="1" fill-rule="nonzero"/><g clip-path="url(#b534581b02)"><path fill="#0f3800" d="M 117.847656 218.101562 C 118.613281 218.257812 120.609375 218.410156 121.835938 218.257812 C 120.300781 218.257812 118.691406 218.101562 117.847656 218.101562 Z M 117.847656 218.101562 " fill-opacity="1" fill-rule="nonzero"/></g><path fill="#0f3800" d="M 35.695312 186.652344 C 35.617188 186.5 35.539062 186.421875 35.386719 186.269531 C 35.464844 186.347656 35.617188 186.5 35.695312 186.652344 Z M 35.695312 186.652344 " fill-opacity="1" fill-rule="nonzero"/><path fill="#0f3800" d="M 31.089844 122.527344 L 30.554688 123.445312 C 30.707031 123.140625 30.9375 122.832031 31.089844 122.527344 Z M 31.089844 122.527344 " fill-opacity="1" fill-rule="nonzero"/><path fill="#0f3800" d="M 114.472656 56.25 L 114.546875 55.867188 C 112.9375 56.710938 114.625 56.019531 114.472656 56.25 Z M 114.472656 56.25 " fill-opacity="1" fill-rule="nonzero"/><path fill="#0f3800" d="M 30.554688 123.753906 C 30.476562 123.984375 30.402344 124.214844 30.246094 124.445312 C 30.476562 123.984375 30.785156 123.371094 30.554688 123.753906 Z M 30.554688 123.753906 " fill-opacity="1" fill-rule="nonzero"/><path fill="#0f3800" d="M 39.070312 109.484375 C 39.070312 109.484375 39.144531 109.410156 39.144531 109.410156 C 39.527344 108.871094 39.300781 109.179688 39.070312 109.484375 Z M 39.070312 109.484375 " fill-opacity="1" fill-rule="nonzero"/><path fill="#0f3800" d="M 88.390625 69.136719 L 85.859375 70.824219 L 87.703125 69.597656 Z M 88.390625 69.136719 " fill-opacity="1" fill-rule="nonzero"/><path fill="#0f3800" d="M 30.171875 124.75 C 30.246094 124.671875 30.246094 124.519531 30.324219 124.445312 C 30.246094 124.519531 30.171875 124.671875 30.171875 124.75 Z M 30.171875 124.75 " fill-opacity="1" fill-rule="nonzero"/><path fill="#0f3800" d="M 197.546875 32.855469 L 199.925781 32.546875 C 198.925781 32.625 198.160156 32.703125 197.546875 32.855469 Z M 197.546875 32.855469 " fill-opacity="1" fill-rule="nonzero"/><path fill="#0f3800" d="M 49.65625 200 L 49.425781 199.386719 C 48.351562 198.773438 47.890625 198.925781 49.65625 200 Z M 49.65625 200 " fill-opacity="1" fill-rule="nonzero"/><path fill="#0f3800" d="M 37.613281 185.117188 C 37.6875 185.195312 37.765625 185.347656 37.839844 185.425781 Z M 37.613281 185.117188 " fill-opacity="1" fill-rule="nonzero"/><g clip-path="url(#d741ec5ebc)"><path fill="#0f3800" d="M 352.035156 90.460938 C 352.113281 90.308594 352.113281 89.925781 352.113281 89.464844 C 352.113281 88.773438 351.957031 87.929688 351.804688 86.933594 C 351.496094 84.9375 350.960938 82.5625 350.425781 80.949219 L 350.808594 81.410156 C 350.347656 80.03125 349.964844 79.417969 349.65625 78.574219 C 349.351562 77.730469 348.964844 76.808594 348.277344 74.96875 C 348.121094 74.507812 348.121094 74.277344 348.199219 74.355469 C 348.277344 74.355469 348.351562 74.507812 348.429688 74.8125 C 348.046875 73.664062 347.816406 73.203125 347.507812 72.667969 C 347.203125 72.050781 346.820312 71.363281 346.128906 69.597656 L 346.894531 70.824219 C 346.28125 69.367188 345.898438 68.675781 345.589844 68.21875 C 345.285156 67.757812 345.054688 67.449219 344.515625 66.757812 C 343.445312 65.070312 341.527344 61.542969 341.371094 61.007812 C 340.988281 60.777344 339.839844 59.472656 338.765625 57.9375 C 338.6875 57.707031 339.148438 58.167969 339.378906 58.398438 C 338.996094 57.863281 338.609375 57.324219 338.304688 56.863281 C 337.921875 56.402344 337.613281 55.945312 337.230469 55.558594 C 336.539062 54.714844 335.925781 54.101562 335.3125 53.414062 C 334.699219 52.800781 334.085938 52.183594 333.546875 51.570312 C 332.933594 50.957031 332.398438 50.34375 331.785156 49.652344 C 331.785156 49.5 331.628906 49.347656 331.476562 49.117188 C 334.238281 51.800781 336.308594 54.257812 336.464844 54.488281 C 336.691406 54.257812 334.46875 51.726562 336.539062 53.488281 C 336.003906 53.027344 335.464844 52.414062 334.777344 51.800781 C 334.085938 51.1875 333.394531 50.574219 332.703125 49.882812 C 331.9375 49.269531 331.246094 48.578125 330.480469 47.964844 C 329.789062 47.351562 329.097656 46.738281 328.484375 46.125 C 328.410156 45.972656 328.253906 45.894531 328.253906 45.742188 L 328.5625 45.972656 C 328.023438 45.433594 327.488281 45.050781 326.953125 44.667969 C 326.183594 43.902344 325.648438 43.515625 324.878906 42.828125 C 324.726562 42.367188 321.890625 40.296875 320.429688 39.296875 C 320.355469 39.605469 318.589844 38.300781 320.046875 39.683594 C 320.046875 39.605469 320.507812 39.988281 321.273438 40.527344 C 321.503906 40.679688 321.734375 40.832031 321.890625 40.910156 C 321.890625 40.910156 321.8125 40.910156 321.8125 40.832031 C 322.273438 41.140625 322.808594 41.523438 323.347656 41.984375 C 323.882812 42.445312 324.496094 42.902344 325.1875 43.441406 C 324.574219 43.058594 324.035156 42.671875 323.421875 42.289062 C 322.808594 41.828125 322.117188 41.371094 321.429688 40.753906 C 320.585938 40.371094 319.664062 39.988281 319.203125 39.757812 C 318.359375 38.914062 317.054688 37.839844 315.90625 36.84375 C 314.753906 35.921875 313.679688 35.15625 313.527344 34.847656 C 311.226562 33.546875 308.617188 32.089844 306.011719 30.859375 C 304.707031 30.246094 303.480469 29.710938 302.40625 29.25 C 301.253906 28.789062 300.257812 28.484375 299.488281 28.253906 C 298.109375 27.714844 298.03125 27.410156 297.574219 27.101562 C 298.339844 27.410156 299.261719 27.792969 299.71875 27.945312 C 299.03125 27.714844 298.1875 27.332031 297.265625 26.949219 C 296.34375 26.566406 295.425781 26.179688 294.503906 25.875 C 292.738281 25.183594 291.207031 24.722656 290.746094 24.800781 C 287.292969 23.34375 292.816406 25.183594 287.984375 23.496094 C 288.214844 23.496094 288.445312 23.574219 288.675781 23.574219 C 286.375 22.652344 284.226562 21.886719 282.078125 21.273438 C 280.007812 20.660156 277.933594 20.273438 275.863281 19.816406 C 275.328125 19.660156 274.867188 19.585938 274.332031 19.429688 C 273.792969 19.355469 273.257812 19.199219 272.71875 19.125 C 271.644531 18.894531 270.570312 18.664062 269.421875 18.433594 C 267.195312 17.898438 264.742188 17.359375 262.058594 16.59375 C 262.824219 16.824219 263.207031 16.898438 263.285156 16.976562 C 260.214844 16.210938 257.070312 15.671875 253.847656 15.136719 C 253.082031 14.980469 252.238281 14.90625 251.472656 14.828125 L 249.015625 14.523438 C 247.40625 14.367188 245.796875 14.0625 244.183594 13.984375 C 242.574219 13.832031 240.960938 13.679688 239.351562 13.601562 C 238.890625 13.601562 238.046875 13.601562 237.28125 13.523438 C 236.511719 13.449219 235.667969 13.449219 234.902344 13.371094 C 231.679688 13.140625 228.535156 13.066406 225.390625 12.835938 C 224.46875 12.757812 223.78125 12.757812 223.242188 12.835938 C 222.707031 12.835938 222.246094 12.910156 221.785156 12.910156 C 220.941406 12.988281 220.328125 13.140625 219.253906 13.21875 L 218.488281 12.910156 C 217.875 12.988281 217.261719 13.066406 216.644531 13.140625 L 214.804688 13.449219 C 213.5 13.601562 212.273438 13.679688 211.046875 13.679688 C 210.433594 13.679688 209.820312 13.679688 209.28125 13.679688 C 208.667969 13.679688 208.054688 13.679688 207.441406 13.753906 C 204.988281 13.832031 202.378906 13.910156 199.082031 14.597656 L 199.925781 14.675781 C 198.773438 14.828125 196.855469 15.058594 195.320312 15.289062 C 193.789062 15.519531 192.636719 15.75 192.789062 15.597656 C 192.558594 15.671875 192.023438 15.980469 191.101562 15.980469 L 191.101562 15.902344 L 188.1875 16.59375 C 187.265625 16.824219 186.269531 17.054688 185.351562 17.359375 C 183.125 17.742188 183.277344 17.589844 183.125 17.4375 C 183.046875 17.359375 182.972656 17.285156 182.433594 17.359375 C 182.203125 17.359375 181.820312 17.4375 181.359375 17.511719 C 181.128906 17.589844 180.824219 17.589844 180.515625 17.667969 C 180.210938 17.742188 179.828125 17.820312 179.441406 17.898438 C 177.066406 18.585938 172.769531 20.121094 173.691406 19.96875 C 174.6875 19.738281 176.144531 19.429688 176.296875 19.585938 L 174.152344 20.199219 C 173.921875 20.8125 172.386719 21.730469 177.753906 20.734375 C 178.984375 20.351562 180.132812 19.890625 181.359375 19.507812 L 182.589844 19.507812 L 181.054688 19.816406 L 179.519531 20.199219 C 181.359375 19.96875 182.433594 19.585938 183.660156 19.125 C 183.96875 19.199219 184.507812 19.199219 185.273438 19.046875 C 186.5 18.664062 187.652344 18.203125 188.878906 17.820312 C 189.339844 17.972656 187.265625 18.511719 189.796875 18.203125 C 191.484375 17.667969 188.035156 18.050781 190.871094 17.4375 C 192.714844 17.359375 192.253906 17.667969 194.324219 17.054688 C 194.554688 17.128906 194.324219 17.207031 193.789062 17.359375 C 195.628906 16.898438 198.390625 16.667969 199.308594 16.285156 C 200.308594 16.285156 201.839844 16.054688 203.222656 15.902344 C 204.601562 15.75 205.675781 15.671875 205.601562 15.980469 C 205.90625 15.902344 206.75 15.75 207.671875 15.519531 C 208.667969 15.367188 209.742188 15.136719 210.664062 15.136719 C 207.519531 15.902344 217.261719 14.753906 216.417969 15.441406 C 217.566406 15.136719 219.714844 15.058594 222.09375 14.980469 C 222.707031 14.980469 223.320312 14.980469 223.933594 14.90625 C 224.546875 14.90625 225.160156 14.90625 225.773438 14.90625 C 227 14.90625 228.152344 14.90625 229.226562 14.828125 C 228.996094 14.828125 228.535156 14.90625 228.152344 14.90625 C 230.53125 14.980469 231.21875 15.136719 232.679688 15.367188 C 232.984375 14.980469 236.667969 15.058594 238.660156 14.90625 C 240.117188 15.210938 239.660156 15.367188 238.96875 15.367188 C 238.277344 15.441406 237.355469 15.519531 237.742188 15.75 C 237.585938 15.367188 242.804688 15.824219 241.804688 15.441406 C 244.03125 15.902344 243.722656 15.75 244.796875 16.210938 C 245.257812 15.671875 246.867188 16.363281 248.710938 16.285156 C 251.855469 16.976562 249.476562 16.898438 253.003906 17.207031 C 253.773438 17.4375 253.390625 17.4375 252.851562 17.4375 C 252.238281 17.4375 251.472656 17.359375 251.472656 17.359375 C 253.234375 17.589844 253.695312 17.589844 253.773438 17.4375 C 253.847656 17.285156 253.621094 17.128906 254.003906 17.054688 C 258.222656 17.667969 255.921875 17.667969 257.300781 18.128906 C 259.984375 18.433594 262.058594 18.511719 263.976562 18.894531 C 264.128906 18.972656 264.511719 19.125 264.050781 19.046875 C 264.742188 19.125 265.664062 19.277344 266.582031 19.429688 C 267.503906 19.585938 268.578125 19.890625 269.652344 20.121094 C 270.726562 20.351562 271.796875 20.660156 272.796875 20.8125 C 273.332031 20.886719 273.792969 21.042969 274.253906 21.117188 C 274.714844 21.195312 275.175781 21.273438 275.558594 21.347656 C 275.789062 21.425781 275.863281 21.503906 275.941406 21.578125 C 275.480469 21.195312 275.480469 21.042969 275.632812 20.886719 C 277.167969 21.347656 278.625 21.503906 279.085938 21.886719 C 278.164062 21.578125 278.011719 21.65625 277.550781 21.65625 L 279.238281 22.039062 C 280.621094 22.804688 277.015625 21.503906 276.9375 21.808594 C 278.550781 22.191406 280.3125 22.578125 281.925781 23.035156 C 283.535156 23.496094 285.070312 23.957031 286.296875 24.417969 C 286.679688 24.953125 280.621094 22.652344 283.765625 24.035156 C 282.539062 23.574219 281.3125 23.113281 280.082031 22.730469 C 282.769531 24.109375 277.78125 22.039062 280.238281 23.421875 C 280.464844 23.496094 280.621094 23.574219 280.851562 23.574219 L 280.082031 23.957031 L 281.539062 23.804688 C 282.15625 24.035156 282.769531 24.1875 283.226562 24.339844 C 284.070312 24.570312 284.761719 24.800781 285.453125 25.03125 C 286.832031 25.414062 288.214844 25.796875 290.59375 26.796875 C 291.742188 27.023438 290.363281 26.335938 291.511719 26.566406 C 293.277344 27.101562 294.425781 27.640625 295.269531 28.023438 C 296.113281 28.484375 296.730469 28.789062 297.1875 29.171875 C 298.1875 29.863281 298.953125 30.398438 301.484375 31.320312 C 302.175781 31.472656 302.636719 31.550781 303.402344 31.78125 C 303.785156 31.933594 304.246094 32.089844 304.78125 32.316406 C 305.320312 32.546875 306.011719 32.933594 306.777344 33.46875 L 305.398438 33.238281 C 307.542969 34.390625 308.234375 34.621094 308.925781 34.925781 C 309.308594 35.078125 309.617188 35.15625 310.152344 35.464844 C 310.691406 35.769531 311.378906 36.230469 312.453125 36.921875 C 311.609375 36.613281 309 35.078125 309.617188 35.464844 C 312.300781 37.457031 311.761719 36.460938 313.988281 37.839844 L 314.21875 38.453125 C 315.367188 39.144531 316.441406 39.910156 317.59375 40.601562 C 318.742188 41.371094 319.894531 42.136719 321.046875 42.980469 C 323.347656 44.589844 325.648438 46.433594 327.871094 48.351562 C 327.566406 48.195312 326.722656 47.660156 327.640625 48.65625 C 330.402344 51.035156 333.164062 53.871094 335.621094 56.863281 C 338.074219 59.855469 340.144531 63.078125 341.832031 66.144531 C 342.371094 66.835938 342.90625 67.601562 343.445312 68.292969 C 343.75 68.832031 343.828125 69.367188 343.445312 68.832031 C 344.59375 71.285156 343.671875 68.832031 344.441406 69.980469 C 345.132812 71.363281 345.132812 71.898438 344.671875 71.054688 C 345.820312 73.125 347.203125 76.347656 348.199219 79.644531 C 349.195312 83.023438 349.65625 86.472656 349.734375 89.003906 L 349.503906 88.007812 C 349.734375 91.917969 350.5 92.457031 350.039062 96.136719 L 350.039062 95.449219 C 349.808594 99.742188 349.042969 104.269531 347.890625 108.410156 C 346.742188 112.554688 345.054688 116.234375 343.445312 119.152344 C 343.367188 119.839844 342.371094 121.683594 341.296875 123.445312 C 340.757812 124.367188 340.222656 125.210938 339.839844 125.902344 C 339.453125 126.589844 339.226562 127.128906 339.300781 127.28125 C 338.535156 128.277344 337.996094 128.96875 337.613281 129.429688 C 337.152344 129.964844 336.847656 130.351562 336.464844 130.734375 C 336.078125 131.195312 335.695312 131.652344 335.082031 132.34375 C 334.777344 132.726562 334.46875 133.113281 334.007812 133.570312 C 333.625 134.03125 333.089844 134.644531 332.550781 135.257812 C 331.9375 135.949219 331.554688 136.5625 331.171875 137.175781 C 330.785156 137.789062 330.328125 138.558594 329.558594 139.402344 L 329.253906 139.25 C 328.640625 140.09375 328.027344 140.9375 327.410156 141.78125 L 325.953125 142.699219 L 324.496094 144.3125 C 325.109375 143.695312 325.878906 143.082031 325.878906 143.3125 C 325.339844 143.925781 324.648438 144.617188 323.960938 145.230469 C 323.269531 145.84375 322.578125 146.457031 321.964844 146.996094 C 320.660156 148.070312 319.664062 148.761719 319.585938 148.761719 C 317.667969 150.601562 315.675781 152.441406 313.679688 154.207031 C 313.757812 153.976562 314.753906 153.132812 315.523438 152.363281 C 312.453125 155.355469 314.679688 152.59375 311.839844 155.28125 C 312.300781 155.050781 311.761719 155.585938 311.6875 155.738281 C 310 156.8125 306.46875 159.5 303.785156 161.417969 L 304.167969 160.878906 C 302.941406 161.722656 301.714844 162.566406 300.410156 163.488281 C 299.105469 164.332031 297.800781 165.25 296.421875 166.09375 C 295.042969 167.015625 293.660156 167.859375 292.28125 168.78125 C 291.589844 169.242188 290.898438 169.699219 290.207031 170.160156 C 289.519531 170.621094 288.75 171.003906 288.0625 171.464844 C 290.207031 170.316406 289.902344 171.003906 288.214844 172.003906 L 287.371094 172.078125 C 286.375 172.921875 289.210938 171.160156 287.140625 172.691406 C 284.992188 173.917969 285.453125 173.152344 286.679688 172.386719 L 284.148438 173.996094 C 283.917969 173.996094 284.53125 173.613281 284.609375 173.382812 C 284.148438 173.765625 282.921875 174.378906 281.695312 174.992188 C 281.082031 175.300781 280.46875 175.605469 279.929688 175.992188 C 279.394531 176.296875 278.855469 176.605469 278.550781 176.910156 L 278.320312 176.910156 C 272.414062 180.054688 269.804688 181.667969 264.894531 184.046875 C 264.972656 184.351562 262.976562 185.273438 261.597656 186.191406 C 260.675781 186.578125 259.757812 187.035156 258.757812 187.421875 C 257.761719 187.878906 256.765625 188.1875 255.765625 188.648438 C 253.695312 189.492188 251.546875 190.335938 249.324219 191.332031 C 246.253906 192.867188 248.558594 191.945312 247.175781 192.714844 C 246.867188 192.558594 242.34375 194.324219 244.566406 193.25 C 241.882812 194.324219 240.195312 195.015625 238.277344 195.78125 C 237.355469 196.164062 236.359375 196.625 235.132812 197.085938 C 233.90625 197.546875 232.601562 198.082031 230.835938 198.695312 C 231.605469 198.542969 232.523438 198.3125 232.066406 198.542969 C 230.835938 199.003906 229.148438 199.464844 229.304688 199.234375 L 229.609375 199.078125 C 228.691406 199.464844 227.617188 199.847656 226.617188 200.230469 C 225.621094 200.613281 224.546875 200.996094 223.398438 201.304688 C 221.171875 201.917969 218.949219 202.53125 216.722656 203.070312 C 215.648438 203.375 214.574219 203.683594 213.5 203.914062 C 212.425781 204.21875 211.429688 204.449219 210.433594 204.679688 C 208.4375 205.140625 206.597656 205.675781 205.0625 206.289062 L 205.445312 206.136719 C 203.300781 206.828125 201.152344 207.519531 198.925781 208.054688 C 195.859375 208.667969 200.691406 207.441406 198.390625 207.746094 C 194.863281 208.746094 192.023438 209.359375 189.339844 209.972656 C 186.652344 210.433594 184.121094 210.816406 181.132812 211.507812 C 179.980469 211.507812 178.371094 211.738281 176.453125 211.964844 C 174.609375 212.195312 172.464844 212.503906 170.316406 212.808594 C 169.242188 212.964844 168.167969 213.117188 167.09375 213.347656 C 166.554688 213.425781 166.019531 213.5 165.484375 213.578125 C 164.945312 213.652344 164.410156 213.730469 163.949219 213.730469 C 161.878906 213.960938 159.960938 214.113281 158.347656 214.113281 L 158.730469 214.269531 C 157.121094 214.652344 156.738281 214.34375 155.585938 214.421875 C 155.742188 214.574219 157.351562 214.421875 156.355469 214.652344 C 155.511719 214.726562 154.667969 214.882812 153.746094 214.957031 C 152.902344 215.035156 151.980469 215.113281 151.136719 215.1875 C 149.375 215.265625 147.609375 215.417969 145.84375 215.496094 C 144.082031 215.570312 142.316406 215.726562 140.554688 215.726562 C 138.789062 215.726562 136.949219 215.726562 135.183594 215.800781 C 133.417969 215.800781 131.578125 215.800781 129.8125 215.800781 C 128.050781 215.800781 126.207031 215.726562 124.445312 215.648438 C 120.839844 215.496094 117.308594 215.417969 113.78125 215.1875 C 108.640625 214.882812 110.789062 216.109375 104.347656 215.113281 C 104.960938 215.035156 105.574219 214.957031 106.1875 214.882812 C 100.972656 214.652344 95.679688 214.039062 90.460938 213.117188 C 85.246094 212.195312 80.183594 210.96875 75.273438 209.664062 C 75.886719 209.742188 75.886719 209.664062 76.886719 209.972656 C 76.347656 209.742188 75.660156 209.511719 74.890625 209.207031 C 74.125 208.898438 73.203125 208.667969 72.359375 208.4375 C 70.75 207.902344 69.292969 207.519531 69.292969 207.59375 C 67.835938 206.980469 68.984375 207.289062 68.140625 206.828125 C 66.222656 205.90625 63.078125 204.984375 62.15625 204.296875 C 62.082031 204.21875 62.3125 204.296875 62.617188 204.449219 C 61.851562 204.140625 60.777344 203.527344 59.855469 203.070312 C 59.320312 202.761719 58.78125 202.53125 58.476562 202.378906 C 58.167969 202.226562 58.09375 202.226562 58.398438 202.453125 C 57.554688 201.917969 56.789062 201.457031 56.019531 201.074219 C 55.253906 200.613281 54.488281 200.152344 53.796875 199.695312 C 53.414062 199.464844 53.105469 199.234375 52.722656 199.003906 C 52.339844 198.773438 52.03125 198.542969 51.726562 198.3125 C 51.035156 197.851562 50.421875 197.390625 49.882812 196.933594 C 48.964844 196.472656 47.738281 195.398438 46.664062 194.476562 C 45.589844 193.480469 44.59375 192.636719 44.207031 192.636719 C 44.363281 192.558594 44.132812 192.253906 43.671875 191.792969 C 43.210938 191.332031 42.597656 190.640625 41.90625 189.953125 C 41.214844 189.261719 40.449219 188.496094 39.757812 187.804688 C 39.375 187.421875 39.070312 187.113281 38.761719 186.808594 C 38.457031 186.5 38.226562 186.269531 37.996094 186.039062 C 38.609375 186.578125 36.769531 184.351562 37.535156 184.890625 C 37.074219 184.351562 36.691406 183.890625 36.308594 183.355469 C 35.925781 182.894531 35.617188 182.433594 35.308594 182.050781 C 34.773438 181.359375 34.390625 180.976562 34.390625 181.285156 C 34.082031 180.746094 33.777344 180.210938 33.46875 179.597656 C 33.164062 179.058594 32.855469 178.523438 32.472656 177.984375 C 32.089844 177.449219 31.859375 176.910156 31.550781 176.453125 C 31.246094 175.914062 30.9375 175.453125 30.632812 174.992188 C 30.324219 174.535156 30.09375 174.074219 29.863281 173.535156 C 29.632812 173.074219 29.402344 172.617188 29.25 172.15625 C 29.097656 171.695312 28.867188 171.3125 28.789062 170.929688 C 28.714844 170.542969 28.636719 170.160156 28.558594 169.777344 C 28.328125 169.316406 28.175781 168.855469 27.945312 168.398438 C 27.714844 167.9375 27.5625 167.476562 27.410156 167.015625 C 27.101562 166.09375 26.796875 165.175781 26.488281 164.253906 C 26.027344 162.335938 25.492188 160.496094 25.183594 158.65625 C 24.496094 154.894531 24.417969 151.214844 24.648438 147.53125 C 24.878906 147.6875 24.726562 149.679688 24.726562 151.597656 C 24.726562 153.515625 24.878906 155.355469 25.109375 155.203125 C 24.800781 151.828125 24.726562 149.066406 24.878906 146.382812 C 25.03125 143.695312 25.414062 140.9375 26.414062 137.636719 C 26.949219 135.949219 26.335938 138.632812 26.335938 139.25 C 27.101562 135.871094 28.175781 132.726562 29.480469 129.738281 C 30.785156 126.746094 32.242188 123.90625 33.699219 121.222656 C 33.316406 121.605469 33.699219 120.53125 34.3125 119.382812 C 34.925781 118 35.847656 116.464844 35.847656 116.3125 C 35.539062 117.386719 36.382812 116.082031 37.304688 115.007812 C 38.148438 113.933594 38.992188 113.015625 38.300781 114.546875 C 38.761719 113.859375 39.222656 113.015625 38.992188 113.089844 C 39.757812 112.171875 40.066406 111.941406 39.453125 113.015625 C 40.757812 111.25 41.0625 110.636719 41.445312 110.097656 C 41.832031 109.5625 42.136719 109.027344 43.441406 107.492188 C 43.519531 107.566406 43.058594 108.183594 42.828125 108.640625 C 43.976562 106.953125 45.128906 105.265625 47.507812 102.890625 C 47.429688 103.117188 47.738281 102.890625 47.046875 103.578125 C 50.957031 99.359375 53.566406 96.136719 58.550781 92.148438 C 57.402344 93.761719 60.316406 90.847656 60.855469 91 L 63.460938 88.773438 L 62.234375 89.464844 C 63.386719 88.542969 64.460938 87.625 65.457031 86.703125 C 66.53125 85.859375 67.527344 85.015625 68.601562 84.324219 L 66.914062 85.78125 L 71.59375 82.636719 L 68.984375 84.402344 C 71.285156 82.40625 68.371094 84.171875 71.667969 81.871094 C 71.054688 82.40625 74.125 80.183594 75.582031 79.492188 C 76.117188 79.03125 76.730469 78.496094 77.421875 78.035156 C 78.113281 77.5 78.878906 77.039062 79.878906 76.425781 C 80.414062 76.195312 79.722656 77.039062 80.105469 76.960938 C 80.644531 76.425781 82.101562 75.425781 83.558594 74.429688 C 85.09375 73.433594 86.628906 72.4375 87.316406 71.824219 C 86.859375 72.207031 86.933594 72.4375 87.085938 72.359375 L 88.007812 71.515625 C 89.234375 70.902344 89.464844 70.824219 89.3125 71.054688 C 92.917969 68.984375 87.855469 71.285156 92.304688 68.984375 C 91.996094 69.214844 92.148438 69.136719 91.460938 69.597656 C 95.832031 67.21875 99.820312 64.765625 103.964844 62.769531 C 104.652344 62.695312 103.808594 63.15625 102.890625 63.539062 C 102.046875 64 101.203125 64.457031 101.96875 64.226562 C 107.796875 61.160156 114.011719 57.707031 119.917969 55.332031 L 118.84375 55.789062 C 119.152344 55.332031 120.226562 54.945312 121.683594 54.488281 C 123.0625 54.027344 124.828125 53.488281 126.207031 52.722656 C 125.519531 53.027344 125.363281 53.414062 125.519531 53.257812 C 127.589844 52.492188 129.582031 51.570312 131.960938 50.652344 C 133.113281 50.191406 134.339844 49.652344 135.644531 49.117188 C 136.949219 48.578125 138.40625 48.042969 139.9375 47.429688 L 139.25 47.8125 C 140.476562 47.429688 142.085938 46.890625 143.699219 46.355469 C 145.308594 45.820312 146.996094 45.28125 148.375 44.898438 C 149.144531 44.515625 150.679688 44.054688 149.679688 44.132812 C 158.117188 42.445312 165.328125 39.144531 172.921875 37.996094 C 172.003906 38.222656 170.851562 38.609375 171.542969 38.453125 L 177.832031 36.84375 C 177.296875 36.691406 176.988281 36.921875 175.609375 36.996094 C 176.375 36.691406 178.140625 36.078125 179.671875 35.769531 C 176.835938 36.535156 179.828125 36.152344 181.054688 36 C 180.824219 36 181.207031 35.769531 181.128906 35.769531 C 184.582031 35.464844 181.589844 35.15625 186.195312 34.464844 L 185.964844 34.621094 C 187.652344 34.234375 189.183594 33.699219 191.027344 33.390625 C 191.871094 33.546875 189.261719 33.851562 189.183594 34.160156 C 190.488281 33.929688 191.714844 33.46875 192.945312 33.160156 C 194.171875 32.855469 195.398438 32.546875 196.550781 32.472656 C 195.476562 32.777344 193.863281 33.007812 192.789062 33.316406 C 195.398438 33.160156 195.707031 33.007812 197.546875 32.777344 L 197.394531 32.777344 C 198.851562 32.546875 200.308594 32.316406 201.765625 32.164062 L 200.613281 32.242188 C 203.757812 30.9375 207.210938 30.9375 211.507812 29.785156 C 207.289062 30.9375 210.816406 30.171875 210.585938 30.554688 C 211.738281 30.476562 213.425781 30.324219 212.964844 30.476562 C 214.957031 29.863281 216.417969 30.171875 219.332031 29.402344 C 219.484375 29.480469 221.554688 29.097656 221.09375 29.402344 C 223.78125 28.941406 220.40625 29.328125 220.636719 29.171875 C 224.777344 28.253906 230.453125 28.328125 236.4375 27.179688 C 239.042969 26.796875 240.503906 26.488281 242.035156 26.179688 C 243.492188 25.875 244.953125 25.566406 247.328125 25.335938 C 248.941406 25.335938 246.023438 25.875 246.023438 25.875 C 248.632812 25.796875 250.628906 25.566406 253.082031 25.261719 C 252.621094 25.414062 253.082031 25.414062 253.847656 25.492188 C 255.84375 25.335938 255.152344 25.03125 257.761719 24.953125 C 257.300781 25.109375 256.765625 25.335938 255.84375 25.566406 C 258.144531 25.261719 260.445312 24.878906 262.902344 24.648438 C 263.589844 24.800781 261.441406 25.03125 260.597656 25.183594 C 263.285156 24.878906 267.65625 24.492188 268.421875 24.1875 L 267.121094 24.1875 C 267.425781 24.265625 267.042969 24.417969 266.429688 24.492188 C 264.128906 24.878906 263.054688 24.648438 262.902344 24.492188 L 264.589844 24.339844 C 263.667969 24.109375 261.980469 24.265625 259.984375 24.492188 C 258.066406 24.722656 255.921875 25.109375 254.15625 25.183594 L 255.535156 24.570312 L 252.007812 25.261719 C 251.242188 25.183594 250.703125 25.03125 252.390625 24.800781 C 249.859375 24.800781 250.167969 25.183594 248.019531 25.109375 C 247.789062 25.109375 247.867188 25.03125 248.097656 25.03125 L 245.640625 25.414062 C 246.101562 25.261719 245.179688 25.109375 246.714844 25.03125 C 242.34375 25.183594 239.734375 26.105469 238.046875 25.875 L 238.429688 25.796875 C 232.371094 26.640625 237.894531 26.179688 233.367188 27.101562 L 230.222656 26.640625 L 229.6875 27.023438 C 229.074219 27.101562 227.84375 27.253906 228.074219 27.023438 C 225.773438 27.5625 228.460938 27.101562 227.15625 27.484375 C 225.621094 27.5625 223.550781 27.792969 221.785156 28.023438 C 220.019531 28.253906 218.5625 28.484375 218.179688 28.253906 C 217.105469 28.636719 221.09375 28.023438 217.875 28.636719 C 216.875 28.175781 214.191406 29.25 211.429688 29.402344 C 212.195312 28.941406 214.804688 28.710938 212.042969 28.867188 C 210.507812 29.632812 206.75 29.554688 204.449219 30.09375 C 204.375 30.476562 199.464844 31.089844 195.707031 31.933594 C 195.78125 31.859375 194.019531 32.089844 191.714844 32.472656 C 189.414062 32.855469 186.652344 33.316406 184.890625 33.699219 L 184.964844 33.621094 C 184.351562 34.160156 180.671875 34.925781 178.0625 35.539062 C 178.140625 35.308594 178.597656 35.078125 179.980469 34.695312 C 179.136719 34.847656 178.292969 35.078125 177.449219 35.234375 C 176.910156 35.464844 176.144531 35.769531 174.535156 36.152344 L 175.070312 35.691406 C 173.382812 36.078125 171.773438 36.535156 170.007812 37.074219 C 168.242188 37.609375 166.328125 38.148438 164.179688 38.53125 C 164.023438 38.839844 167.785156 38.378906 163.335938 39.757812 C 163.105469 39.683594 162.875 39.453125 164.023438 39.066406 C 163.640625 39.222656 162.722656 39.605469 161.878906 39.683594 L 163.566406 38.914062 C 161.570312 39.375 162.644531 39.375 161.035156 39.835938 C 161.035156 39.605469 159.882812 39.988281 160.035156 39.757812 C 160.417969 39.605469 161.417969 39.453125 161.953125 39.222656 C 160.191406 39.683594 158.042969 40.140625 157.351562 40.140625 C 157.503906 40.21875 157.429688 40.449219 156.199219 40.832031 C 152.902344 41.828125 154.972656 40.910156 153.054688 41.371094 C 152.289062 41.753906 150.140625 42.214844 150.21875 42.519531 C 149.21875 42.828125 149.066406 42.75 148.683594 42.75 C 147.074219 43.441406 140.859375 45.359375 142.855469 45.050781 L 143.3125 44.898438 C 143.238281 44.898438 143.160156 44.976562 143.007812 44.976562 C 141.625 45.511719 140.246094 46.046875 138.863281 46.507812 C 137.484375 47.046875 136.027344 47.429688 134.644531 47.964844 C 131.808594 48.964844 128.96875 49.882812 126.363281 51.035156 L 126.363281 50.957031 C 124.828125 51.648438 122.988281 52.339844 121.375 53.105469 C 119.765625 53.871094 118.230469 54.5625 117.15625 55.101562 C 116.238281 55.484375 114.855469 55.867188 115.238281 55.558594 C 112.859375 56.710938 112.707031 56.941406 109.179688 58.398438 C 111.480469 57.09375 108.257812 58.628906 111.558594 57.171875 C 110.023438 57.863281 109.027344 58.246094 108.027344 58.707031 C 107.03125 59.164062 106.109375 59.703125 104.5 60.621094 C 104.960938 60.238281 104.347656 60.394531 103.503906 60.851562 C 103.042969 61.082031 102.503906 61.3125 101.96875 61.542969 C 101.433594 61.773438 100.972656 62.082031 100.664062 62.3125 C 101.433594 62.003906 102.121094 61.695312 102.890625 61.390625 C 101.277344 62.234375 99.898438 63 98.441406 63.691406 L 99.054688 62.925781 C 97.441406 63.691406 95.984375 64.382812 94.605469 65.226562 C 93.222656 66.070312 91.921875 66.914062 90.691406 67.679688 C 90.078125 68.0625 89.464844 68.445312 88.851562 68.832031 C 88.238281 69.214844 87.703125 69.597656 87.085938 69.980469 C 85.9375 70.671875 84.710938 71.363281 83.480469 71.898438 C 82.023438 73.050781 86.855469 70.058594 85.554688 71.207031 C 82.792969 72.820312 79.722656 74.277344 78.878906 74.8125 C 77.960938 75.351562 77.269531 75.8125 76.730469 76.195312 C 76.195312 76.578125 75.8125 76.960938 75.429688 77.34375 C 74.660156 78.035156 73.816406 78.800781 71.898438 80.03125 C 72.4375 79.800781 73.125 79.722656 70.367188 81.871094 C 67.757812 83.789062 66.835938 83.789062 68.449219 82.484375 C 69.0625 82.023438 69.367188 81.792969 69.367188 81.871094 C 70.136719 81.179688 71.210938 80.335938 70.136719 81.027344 L 70.058594 81.71875 C 68.679688 82.5625 65.148438 85.246094 65.839844 84.402344 C 64.304688 85.628906 64.765625 85.398438 65.839844 84.710938 C 64.535156 85.628906 63.460938 86.472656 62.386719 87.316406 C 61.160156 88.3125 59.855469 89.386719 58.167969 90.691406 C 58.707031 90.308594 59.320312 90 58.78125 90.460938 C 56.328125 92.378906 55.867188 92.917969 55.636719 93.300781 C 55.332031 93.683594 55.332031 93.835938 53.796875 95.292969 C 51.878906 96.753906 54.101562 94.375 51.113281 97.367188 C 49.117188 99.054688 50.5 97.519531 51.113281 96.675781 C 48.503906 99.511719 45.820312 101.660156 44.285156 103.347656 L 45.589844 101.738281 C 44.820312 102.660156 44.132812 103.425781 43.441406 104.191406 C 43.746094 103.960938 44.054688 103.734375 44.4375 103.503906 C 43.59375 104.347656 42.902344 105.113281 42.828125 105.035156 C 42.136719 106.109375 43.746094 104.578125 42.367188 106.648438 C 41.214844 107.796875 39.375 110.484375 38.761719 110.714844 C 41.675781 107.183594 38.761719 110.253906 40.21875 108.257812 C 39.835938 108.71875 39.375 109.332031 38.839844 109.945312 C 38.683594 110.097656 38.914062 109.792969 39.070312 109.484375 C 38.300781 110.40625 37.765625 110.941406 37.535156 111.402344 C 37.226562 111.863281 37.152344 112.09375 36.996094 112.402344 C 36.765625 112.9375 36.539062 113.550781 35.078125 115.621094 C 35.308594 115.007812 34.082031 116.390625 33.699219 117.078125 C 34.851562 115.390625 34.464844 116.464844 33.621094 118.078125 C 31.78125 120.761719 31.933594 121.144531 31.089844 122.601562 C 31.398438 122.066406 31.78125 121.527344 32.089844 120.992188 C 32.011719 121.296875 31.78125 121.835938 31.398438 122.527344 C 31.089844 123.214844 30.632812 124.058594 30.09375 125.058594 C 30.015625 125.058594 30.09375 124.980469 30.09375 124.828125 C 29.097656 126.898438 27.484375 129.199219 26.640625 132.113281 C 25.953125 133.570312 26.257812 132.113281 25.644531 133.417969 C 25.414062 134.339844 25.183594 135.105469 24.953125 135.71875 C 24.722656 136.332031 24.570312 136.871094 24.417969 137.332031 C 24.1875 137.867188 24.035156 138.402344 23.878906 139.019531 C 23.726562 139.632812 23.496094 140.476562 23.34375 141.472656 C 23.804688 140.320312 23.804688 140.167969 23.496094 143.007812 C 23.878906 140.78125 24.265625 138.558594 24.878906 136.410156 C 24.570312 137.867188 24.339844 139.246094 24.1875 140.707031 C 24.417969 139.707031 24.648438 138.632812 24.878906 137.714844 C 25.109375 136.792969 25.339844 135.949219 25.566406 135.335938 C 25.183594 137.332031 25.183594 137.175781 25.644531 136.257812 C 24.417969 138.789062 24.417969 141.625 23.726562 144.695312 L 23.113281 144.539062 C 22.652344 146.917969 22.5 149.144531 22.578125 151.445312 C 22.652344 153.824219 22.808594 156.277344 23.265625 159.421875 L 23.113281 157.425781 C 23.265625 157.8125 23.421875 158.808594 23.574219 159.882812 C 23.652344 160.417969 23.726562 161.03125 23.804688 161.570312 C 23.957031 162.105469 24.035156 162.71875 24.1875 163.179688 C 23.957031 163.027344 24.109375 164.332031 24.1875 165.175781 C 24.339844 165.023438 25.492188 169.625 26.183594 170.007812 L 26.566406 171.386719 C 26.71875 171.847656 26.796875 172.308594 26.949219 172.769531 C 27.484375 173.917969 27.871094 174.839844 28.328125 175.605469 C 28.789062 176.375 29.171875 176.910156 29.632812 177.523438 C 29.863281 177.832031 30.015625 178.136719 30.246094 178.445312 C 30.324219 178.597656 30.476562 178.753906 30.554688 178.90625 C 30.707031 179.058594 30.785156 179.210938 30.9375 179.367188 C 31.398438 180.054688 31.933594 180.824219 32.625 181.820312 C 31.628906 180.746094 32.703125 182.664062 30.785156 179.980469 C 31.628906 181.359375 32.394531 182.664062 32.546875 182.511719 C 32.777344 182.972656 33.46875 183.816406 34.234375 184.734375 C 34.621094 185.195312 35.003906 185.65625 35.386719 186.117188 C 35.769531 186.578125 36.078125 186.960938 36.230469 187.265625 C 36.765625 187.726562 36.996094 187.804688 38.226562 189.109375 C 38.300781 189.183594 38.226562 189.183594 38.226562 189.183594 C 38.53125 189.414062 40.144531 191.027344 39.300781 189.796875 C 39.988281 190.871094 41.0625 191.945312 42.136719 193.097656 C 42.675781 193.710938 43.363281 194.246094 43.976562 194.785156 C 44.589844 195.320312 45.207031 195.933594 45.894531 196.472656 C 47.277344 197.546875 48.582031 198.542969 49.808594 199.464844 C 50.421875 199.921875 51.035156 200.382812 51.496094 200.765625 C 52.03125 201.152344 52.492188 201.535156 52.953125 201.917969 C 53.71875 202.378906 54.488281 202.914062 55.332031 203.296875 C 56.175781 203.757812 57.019531 204.21875 57.863281 204.679688 C 58.707031 205.140625 59.550781 205.523438 60.394531 205.90625 C 60.777344 206.136719 61.160156 206.289062 61.542969 206.519531 C 61.925781 206.671875 62.3125 206.828125 62.695312 207.058594 C 62.464844 207.058594 62.617188 207.132812 62.082031 206.902344 C 66.070312 208.898438 64.765625 207.515625 69.367188 209.511719 C 70.519531 210.125 69.90625 209.894531 69.136719 209.664062 C 68.371094 209.433594 67.527344 209.050781 68.292969 209.433594 C 68.449219 209.894531 69.90625 210.355469 71.667969 210.96875 C 72.589844 211.277344 73.511719 211.507812 74.507812 211.8125 C 75.429688 212.121094 76.347656 212.425781 77.191406 212.734375 L 76.425781 212.582031 C 78.878906 213.578125 82.5625 213.960938 86.703125 214.882812 C 86.703125 214.882812 86.472656 214.882812 86.628906 214.957031 C 87.316406 215.035156 88.238281 215.113281 89.234375 215.1875 C 90.234375 215.339844 91.304688 215.417969 92.378906 215.570312 C 94.605469 215.878906 96.984375 216.109375 98.976562 216.261719 C 97.671875 216.414062 97.136719 216.183594 97.828125 216.570312 C 99.667969 216.722656 97.367188 216.03125 100.972656 216.414062 C 102.121094 216.722656 104.730469 217.027344 105.035156 217.414062 L 101.660156 217.105469 C 103.347656 217.644531 106.109375 217.488281 107.875 217.71875 L 107.644531 217.875 C 110.253906 218.027344 111.632812 217.949219 113.015625 217.949219 C 113.703125 217.949219 114.394531 217.875 115.316406 217.875 C 116.160156 217.875 117.234375 217.875 118.691406 217.949219 L 118.078125 217.796875 C 121.144531 217.414062 120.609375 218.101562 123.753906 217.796875 L 124.675781 218.257812 C 125.671875 218.179688 127.4375 218.179688 129.429688 218.101562 C 131.425781 217.949219 133.570312 217.796875 135.414062 217.71875 C 133.34375 218.101562 129.125 218.410156 126.4375 218.488281 C 126.976562 218.488281 127.589844 218.488281 128.355469 218.488281 C 128.738281 218.488281 129.125 218.488281 129.507812 218.488281 C 129.890625 218.488281 130.273438 218.488281 130.734375 218.410156 C 132.34375 218.332031 133.800781 218.257812 134.339844 218.101562 C 133.496094 218.179688 132.5 218.332031 131.730469 218.257812 C 134.1875 217.875 137.40625 217.566406 141.394531 217.488281 C 141.089844 217.949219 143.699219 217.796875 146.6875 217.644531 C 148.222656 217.566406 149.835938 217.488281 151.292969 217.414062 C 152.75 217.335938 153.976562 217.414062 154.742188 217.488281 C 158.273438 216.953125 161.722656 216.644531 165.40625 216.339844 C 169.011719 215.957031 172.847656 215.417969 176.910156 214.882812 C 173.921875 214.652344 179.289062 214.496094 178.675781 213.882812 C 180.515625 213.5 181.285156 213.347656 181.4375 213.425781 L 187.265625 212.808594 C 188.648438 212.734375 185.503906 213.269531 185.734375 213.425781 C 189.875 212.734375 187.496094 213.425781 190.335938 213.039062 C 189.722656 212.964844 191.714844 212.351562 194.09375 211.964844 L 190.488281 212.273438 C 196.164062 210.664062 195.550781 211.738281 201.304688 210.050781 L 199.539062 210.664062 C 200.308594 210.433594 201.304688 210.203125 202.53125 209.894531 C 203.757812 209.589844 205.0625 209.207031 206.445312 208.820312 C 209.128906 208.054688 211.8125 207.210938 213.195312 206.597656 C 213.730469 206.519531 214.5 206.519531 213.195312 206.902344 C 216.722656 205.90625 220.558594 204.601562 224.164062 203.375 C 225.085938 203.070312 226.003906 202.761719 226.847656 202.378906 C 227.691406 202.070312 228.535156 201.765625 229.378906 201.457031 C 230.992188 200.84375 232.523438 200.382812 233.90625 200 L 233.445312 200.308594 C 234.671875 199.769531 235.59375 199.234375 237.203125 198.851562 C 237.128906 198.925781 236.742188 199.234375 237.355469 199.003906 C 237.972656 198.695312 240.578125 197.390625 242.34375 196.855469 L 240.960938 197.621094 C 242.648438 197.007812 244.109375 196.472656 245.410156 195.859375 C 246.714844 195.320312 247.941406 194.785156 249.09375 194.171875 C 251.394531 193.019531 253.542969 191.871094 256.226562 190.566406 C 256.304688 190.796875 257.683594 190.410156 259.296875 189.796875 C 260.90625 189.109375 262.824219 188.265625 264.128906 187.726562 L 264.050781 187.804688 C 265.890625 186.882812 267.65625 186.039062 269.265625 185.195312 C 270.109375 184.8125 270.878906 184.351562 271.644531 183.890625 C 272.414062 183.429688 273.179688 183.046875 273.871094 182.585938 C 275.328125 181.742188 276.785156 180.824219 278.320312 179.980469 C 279.085938 179.519531 279.851562 179.058594 280.621094 178.597656 C 281.386719 178.140625 282.152344 177.601562 282.996094 177.140625 C 284.070312 176.679688 285.53125 175.914062 287.140625 174.992188 C 287.984375 174.535156 288.828125 174.074219 289.75 173.535156 C 290.667969 173 291.589844 172.539062 292.507812 171.925781 C 294.351562 170.773438 296.269531 169.546875 298.1875 168.320312 C 300.027344 167.167969 301.867188 166.019531 303.480469 165.023438 C 302.480469 165.636719 303.402344 164.636719 304.554688 163.792969 C 306.085938 162.875 308.386719 160.648438 308.464844 161.1875 L 307.929688 161.570312 C 309.308594 161.109375 312.148438 158.808594 314.449219 157.042969 L 314.449219 156.277344 C 317.667969 154.28125 321.351562 150.90625 324.574219 147.761719 C 327.796875 144.539062 330.480469 141.472656 332.089844 140.167969 C 332.628906 139.402344 333.242188 138.632812 333.933594 137.789062 C 334.546875 136.945312 335.160156 136.179688 335.695312 135.414062 L 335.847656 135.71875 C 336.617188 134.722656 337.308594 133.878906 337.996094 133.035156 C 338.609375 132.191406 339.222656 131.425781 339.839844 130.582031 C 340.988281 128.890625 342.214844 127.050781 343.75 124.289062 L 343.289062 125.515625 C 344.210938 123.984375 344.515625 122.910156 344.824219 121.835938 C 344.976562 121.296875 345.132812 120.761719 345.285156 120.226562 C 345.4375 119.609375 345.667969 118.996094 346.050781 118.308594 C 346.359375 118.078125 346.589844 117.847656 346.894531 117.617188 C 348.121094 114.777344 349.273438 111.863281 350.195312 108.871094 C 351.113281 105.878906 351.652344 102.8125 351.804688 99.667969 C 351.882812 99.742188 351.957031 99.972656 351.882812 100.972656 C 351.957031 100.203125 352.109375 99.128906 352.265625 97.980469 C 352.339844 97.367188 352.339844 96.753906 352.417969 96.136719 C 352.417969 95.832031 352.496094 95.523438 352.496094 95.21875 C 352.496094 94.910156 352.496094 94.605469 352.496094 94.296875 C 352.496094 91.996094 352.265625 90.308594 352.035156 90.460938 Z M 322.886719 41.445312 C 322.886719 41.445312 322.808594 41.371094 322.734375 41.371094 C 322.886719 41.371094 322.960938 41.445312 323.191406 41.523438 C 324.113281 42.136719 324.34375 42.445312 324.496094 42.597656 C 324.113281 42.289062 323.578125 41.90625 322.886719 41.445312 Z M 327.949219 48.273438 C 327.410156 47.8125 326.953125 47.351562 326.644531 47.121094 C 326.953125 47.351562 327.257812 47.660156 327.949219 48.273438 Z M 330.863281 50.957031 C 330.785156 50.726562 331.015625 50.804688 331.554688 51.339844 C 331.246094 51.113281 332.320312 52.339844 333.011719 53.183594 C 332.398438 52.570312 331.628906 51.726562 330.863281 50.957031 Z M 330.863281 50.957031 " fill-opacity="1" fill-rule="nonzero"/></g><path fill="#0f3800" d="M 222.09375 27.714844 L 226.464844 27.253906 C 225.699219 27.253906 224.699219 27.179688 226.617188 26.949219 C 221.09375 27.253906 227.769531 27.101562 222.09375 27.714844 Z M 222.09375 27.714844 " fill-opacity="1" fill-rule="nonzero"/><path fill="#0f3800" d="M 321.351562 40.601562 C 321.199219 40.527344 321.121094 40.449219 320.96875 40.371094 C 321.121094 40.527344 321.273438 40.679688 321.503906 40.832031 C 321.660156 40.910156 321.734375 40.910156 321.890625 40.984375 C 321.660156 40.910156 321.503906 40.753906 321.351562 40.601562 Z M 321.351562 40.601562 " fill-opacity="1" fill-rule="nonzero"/><path fill="#0f3800" d="M 348.507812 74.8125 C 348.582031 74.96875 348.582031 75.121094 348.660156 75.273438 C 348.660156 75.121094 348.582031 74.890625 348.507812 74.8125 Z M 348.507812 74.8125 " fill-opacity="1" fill-rule="nonzero"/><path fill="#0f3800" d="M 181.359375 213.425781 L 180.976562 213.5 C 181.128906 213.425781 181.207031 213.425781 181.359375 213.425781 Z M 181.359375 213.425781 " fill-opacity="1" fill-rule="nonzero"/><path fill="#0f3800" d="M 267.578125 24.722656 C 268.117188 24.722656 268.730469 24.648438 269.039062 24.570312 Z M 267.578125 24.722656 " fill-opacity="1" fill-rule="nonzero"/><path fill="#0f3800" d="M 270.496094 24.570312 C 272.027344 24.109375 272.414062 24.265625 274.101562 23.726562 C 275.480469 23.574219 276.476562 23.726562 276.246094 23.878906 C 276.707031 23.726562 278.394531 23.878906 279.085938 23.574219 C 277.320312 23.421875 275.097656 23.496094 272.71875 23.878906 C 272.183594 23.804688 272.71875 23.726562 272.796875 23.648438 C 271.261719 23.878906 269.421875 24.265625 270.496094 24.570312 Z M 270.496094 24.570312 " fill-opacity="1" fill-rule="nonzero"/><path fill="#0f3800" d="M 276.863281 22.269531 C 276.402344 22.039062 276.09375 21.886719 275.863281 21.730469 C 276.171875 22.039062 272.796875 21.117188 276.863281 22.269531 Z M 276.863281 22.269531 " fill-opacity="1" fill-rule="nonzero"/><path fill="#0f3800" d="M 267.578125 24.722656 C 267.273438 24.722656 266.964844 24.800781 266.890625 24.800781 Z M 267.578125 24.722656 " fill-opacity="1" fill-rule="nonzero"/><path fill="#0f3800" d="M 100.589844 64.613281 L 98.363281 65.839844 L 99.972656 65.226562 Z M 100.589844 64.613281 " fill-opacity="1" fill-rule="nonzero"/><path fill="#0f3800" d="M 248.710938 26.410156 L 248.863281 26.335938 C 248.097656 26.566406 245.027344 26.410156 243.878906 26.71875 C 245.105469 26.566406 247.023438 26.640625 248.710938 26.410156 Z M 248.710938 26.410156 " fill-opacity="1" fill-rule="nonzero"/><path fill="#0f3800" d="M 249.09375 26.105469 L 248.941406 26.257812 C 248.941406 26.257812 249.015625 26.179688 249.09375 26.105469 Z M 249.09375 26.105469 " fill-opacity="1" fill-rule="nonzero"/><path fill="#0f3800" d="M 208.667969 29.25 C 207.210938 29.554688 206.828125 29.632812 208.59375 29.480469 C 210.96875 29.097656 208.59375 29.402344 208.667969 29.25 Z M 208.667969 29.25 " fill-opacity="1" fill-rule="nonzero"/><path fill="#0f3800" d="M 48.425781 195.703125 C 48.886719 196.164062 49.347656 196.703125 49.960938 197.160156 C 50.113281 197.238281 50.269531 197.316406 50.34375 197.316406 C 49.65625 196.855469 49.039062 196.242188 48.425781 195.703125 Z M 48.425781 195.703125 " fill-opacity="1" fill-rule="nonzero"/><path fill="#0f3800" d="M 33.316406 122.757812 C 33.238281 122.910156 33.164062 123.0625 33.085938 123.214844 C 32.546875 124.289062 32.933594 123.523438 33.316406 122.757812 Z M 33.316406 122.757812 " fill-opacity="1" fill-rule="nonzero"/><path fill="#0f3800" d="M 40.296875 188.265625 C 39.988281 187.878906 39.527344 187.421875 39.144531 186.960938 C 38.683594 186.5 38.300781 185.960938 37.917969 185.425781 C 38.300781 185.886719 38.683594 186.421875 39.070312 186.882812 Z M 40.296875 188.265625 " fill-opacity="1" fill-rule="nonzero"/><path fill="#0f3800" d="M 34.234375 121.144531 C 34.542969 120.683594 34.695312 120.378906 34.542969 120.378906 C 34.390625 120.761719 34.160156 121.070312 34.007812 121.453125 C 33.929688 121.527344 33.929688 121.527344 33.851562 121.605469 C 33.851562 121.683594 33.621094 122.21875 33.316406 122.832031 C 33.621094 122.296875 34.007812 121.683594 34.234375 121.144531 Z M 34.234375 121.144531 " fill-opacity="1" fill-rule="nonzero"/><path fill="#0f3800" d="M 75.503906 79.492188 C 74.96875 79.875 74.507812 80.335938 73.96875 80.71875 C 74.890625 80.105469 75.582031 79.644531 75.503906 79.492188 Z M 75.503906 79.492188 " fill-opacity="1" fill-rule="nonzero"/><path fill="#0f3800" d="M 73.96875 80.71875 C 73.203125 81.179688 72.359375 81.792969 71.667969 82.332031 C 72.589844 81.792969 73.355469 81.257812 73.96875 80.71875 Z M 73.96875 80.71875 " fill-opacity="1" fill-rule="nonzero"/><path fill="#0f3800" d="M 329.175781 139.324219 L 329.253906 139.402344 L 329.636719 138.863281 Z M 329.175781 139.324219 " fill-opacity="1" fill-rule="nonzero"/><path fill="#0f3800" d="M 62.769531 204.601562 C 62.925781 204.679688 63.15625 204.757812 63.230469 204.757812 C 63.15625 204.757812 62.925781 204.679688 62.769531 204.601562 Z M 62.769531 204.601562 " fill-opacity="1" fill-rule="nonzero"/><path fill="#0f3800" d="M 205.601562 16.132812 C 205.601562 16.054688 205.523438 16.054688 205.601562 16.132812 C 205.371094 16.054688 205.371094 16.132812 205.601562 16.132812 Z M 205.601562 16.132812 " fill-opacity="1" fill-rule="nonzero"/><path fill="#0f3800" d="M 173.691406 20.351562 L 174.152344 20.199219 C 174.152344 20.121094 174.226562 20.042969 174.226562 19.96875 Z M 173.691406 20.351562 " fill-opacity="1" fill-rule="nonzero"/><path fill="#0f3800" d="M 193.789062 17.4375 C 193.632812 17.4375 193.480469 17.511719 193.328125 17.511719 C 193.480469 17.511719 193.632812 17.511719 193.789062 17.4375 Z M 193.789062 17.4375 " fill-opacity="1" fill-rule="nonzero"/><path fill="#0f3800" d="M 324.496094 144.464844 C 324.265625 144.695312 324.035156 144.925781 323.882812 145.078125 Z M 324.496094 144.464844 " fill-opacity="1" fill-rule="nonzero"/></svg>