<svg xmlns="http://www.w3.org/2000/svg" xmlns:xlink="http://www.w3.org/1999/xlink" width="200" zoomAndPan="magnify" viewBox="0 0 150 60" height="80" preserveAspectRatio="xMidYMid meet" version="1.0"><defs><g/></defs><g fill="#000000" fill-opacity="1"><g transform="translate(13.544568, 30.715494)"><g><path d="M 2.875 -7.21875 C 3.007812 -7.582031 3.269531 -8.003906 3.65625 -8.484375 C 4.039062 -8.960938 4.503906 -9.457031 5.046875 -9.96875 C 5.597656 -10.476562 6.179688 -10.972656 6.796875 -11.453125 C 7.410156 -11.941406 8.015625 -12.378906 8.609375 -12.765625 C 9.210938 -13.160156 9.765625 -13.46875 10.265625 -13.6875 C 10.765625 -13.90625 11.164062 -14.003906 11.46875 -13.984375 C 11.71875 -13.972656 11.941406 -13.863281 12.140625 -13.65625 C 12.347656 -13.457031 12.492188 -13.203125 12.578125 -12.890625 C 12.671875 -12.585938 12.664062 -12.273438 12.5625 -11.953125 C 12.476562 -11.691406 12.3125 -11.328125 12.0625 -10.859375 C 11.820312 -10.390625 11.53125 -9.863281 11.1875 -9.28125 C 10.84375 -8.707031 10.488281 -8.117188 10.125 -7.515625 C 9.757812 -6.910156 9.398438 -6.332031 9.046875 -5.78125 C 8.691406 -5.226562 8.378906 -4.738281 8.109375 -4.3125 C 7.847656 -3.894531 7.65625 -3.585938 7.53125 -3.390625 C 8.0625 -3.523438 8.640625 -3.664062 9.265625 -3.8125 C 9.890625 -3.957031 10.523438 -4.097656 11.171875 -4.234375 C 11.828125 -4.378906 12.441406 -4.507812 13.015625 -4.625 C 13.597656 -4.75 14.113281 -4.859375 14.5625 -4.953125 C 15.8125 -6.554688 17.085938 -8.195312 18.390625 -9.875 C 19.703125 -11.550781 21.023438 -13.160156 22.359375 -14.703125 C 22.453125 -14.816406 22.59375 -14.894531 22.78125 -14.9375 C 22.96875 -14.988281 23.117188 -15 23.234375 -14.96875 C 23.347656 -14.945312 23.328125 -14.878906 23.171875 -14.765625 C 23.097656 -14.703125 22.914062 -14.5 22.625 -14.15625 C 22.332031 -13.820312 21.96875 -13.390625 21.53125 -12.859375 C 21.09375 -12.328125 20.613281 -11.726562 20.09375 -11.0625 C 19.570312 -10.40625 19.035156 -9.722656 18.484375 -9.015625 C 17.941406 -8.304688 17.414062 -7.613281 16.90625 -6.9375 C 16.40625 -6.257812 15.953125 -5.632812 15.546875 -5.0625 C 15.753906 -5.082031 16.054688 -5.117188 16.453125 -5.171875 C 16.847656 -5.222656 17.285156 -5.28125 17.765625 -5.34375 C 18.242188 -5.414062 18.707031 -5.472656 19.15625 -5.515625 C 19.601562 -5.554688 19.976562 -5.578125 20.28125 -5.578125 C 20.425781 -5.566406 20.59375 -5.539062 20.78125 -5.5 C 20.96875 -5.457031 21.097656 -5.414062 21.171875 -5.375 C 21.253906 -5.332031 21.191406 -5.3125 20.984375 -5.3125 C 20.742188 -5.3125 20.390625 -5.285156 19.921875 -5.234375 C 19.460938 -5.191406 18.960938 -5.128906 18.421875 -5.046875 C 17.878906 -4.972656 17.351562 -4.890625 16.84375 -4.796875 C 16.34375 -4.703125 15.925781 -4.625 15.59375 -4.5625 C 15.269531 -4.5 15.09375 -4.445312 15.0625 -4.40625 C 14.757812 -3.976562 14.398438 -3.453125 13.984375 -2.828125 C 13.578125 -2.203125 13.140625 -1.519531 12.671875 -0.78125 C 12.203125 -0.0390625 11.738281 0.722656 11.28125 1.515625 C 10.832031 2.304688 10.414062 3.082031 10.03125 3.84375 C 9.65625 4.613281 9.34375 5.34375 9.09375 6.03125 C 8.851562 6.71875 8.710938 7.320312 8.671875 7.84375 C 8.660156 7.9375 8.644531 8.039062 8.625 8.15625 C 8.613281 8.269531 8.5 8.304688 8.28125 8.265625 C 8.226562 8.234375 8.175781 8.203125 8.125 8.171875 C 8.070312 8.148438 8.035156 8.113281 8.015625 8.0625 C 7.847656 7.726562 7.828125 7.265625 7.953125 6.671875 C 8.078125 6.078125 8.300781 5.40625 8.625 4.65625 C 8.957031 3.914062 9.34375 3.144531 9.78125 2.34375 C 10.226562 1.550781 10.691406 0.769531 11.171875 0 C 11.648438 -0.757812 12.097656 -1.453125 12.515625 -2.078125 C 12.941406 -2.710938 13.296875 -3.226562 13.578125 -3.625 C 13.859375 -4.03125 14.023438 -4.273438 14.078125 -4.359375 C 13.929688 -4.316406 13.648438 -4.25 13.234375 -4.15625 C 12.828125 -4.070312 12.347656 -3.96875 11.796875 -3.84375 C 11.242188 -3.71875 10.679688 -3.585938 10.109375 -3.453125 C 9.535156 -3.328125 9.015625 -3.207031 8.546875 -3.09375 C 8.085938 -2.976562 7.738281 -2.890625 7.5 -2.828125 C 7.144531 -2.742188 6.851562 -2.546875 6.625 -2.234375 C 5.894531 -1.171875 5.160156 -0.117188 4.421875 0.921875 C 3.691406 1.972656 2.957031 3.019531 2.21875 4.0625 C 2.15625 4.164062 2.082031 4.257812 2 4.34375 C 1.925781 4.425781 1.828125 4.460938 1.703125 4.453125 C 1.660156 4.453125 1.585938 4.414062 1.484375 4.34375 C 1.390625 4.269531 1.316406 4.191406 1.265625 4.109375 C 0.671875 3.035156 0.351562 2.125 0.3125 1.375 C 0.269531 0.625 0.398438 -0.00390625 0.703125 -0.515625 C 0.929688 -0.898438 1.253906 -1.234375 1.671875 -1.515625 C 2.085938 -1.796875 2.5625 -2.03125 3.09375 -2.21875 C 3.632812 -2.414062 4.191406 -2.585938 4.765625 -2.734375 C 5.347656 -2.878906 5.898438 -3.007812 6.421875 -3.125 C 6.554688 -3.3125 6.78125 -3.640625 7.09375 -4.109375 C 7.40625 -4.585938 7.765625 -5.148438 8.171875 -5.796875 C 8.585938 -6.441406 9.015625 -7.117188 9.453125 -7.828125 C 9.890625 -8.535156 10.300781 -9.21875 10.6875 -9.875 C 11.070312 -10.53125 11.394531 -11.109375 11.65625 -11.609375 C 11.914062 -12.109375 12.066406 -12.46875 12.109375 -12.6875 C 12.171875 -13.007812 12.078125 -13.242188 11.828125 -13.390625 C 11.585938 -13.546875 11.304688 -13.566406 10.984375 -13.453125 C 10.578125 -13.316406 10.085938 -13.070312 9.515625 -12.71875 C 8.941406 -12.363281 8.335938 -11.945312 7.703125 -11.46875 C 7.078125 -10.988281 6.472656 -10.484375 5.890625 -9.953125 C 5.304688 -9.421875 4.796875 -8.910156 4.359375 -8.421875 C 3.921875 -7.929688 3.613281 -7.503906 3.4375 -7.140625 C 3.363281 -6.972656 3.359375 -6.800781 3.421875 -6.625 C 3.492188 -6.445312 3.648438 -6.332031 3.890625 -6.28125 C 4.128906 -6.226562 4.453125 -6.304688 4.859375 -6.515625 C 4.992188 -6.535156 5.113281 -6.554688 5.21875 -6.578125 C 5.320312 -6.597656 5.363281 -6.566406 5.34375 -6.484375 C 5.164062 -6.316406 4.925781 -6.195312 4.625 -6.125 C 4.332031 -6.050781 4.046875 -6.03125 3.765625 -6.0625 C 3.484375 -6.101562 3.257812 -6.195312 3.09375 -6.34375 C 2.945312 -6.46875 2.863281 -6.601562 2.84375 -6.75 C 2.820312 -6.894531 2.832031 -7.050781 2.875 -7.21875 Z M 1.703125 3.78125 C 2.015625 3.3125 2.351562 2.796875 2.71875 2.234375 C 3.09375 1.679688 3.46875 1.125 3.84375 0.5625 C 4.226562 0.0078125 4.601562 -0.519531 4.96875 -1.03125 C 5.34375 -1.539062 5.675781 -1.984375 5.96875 -2.359375 C 4.351562 -2.097656 3.140625 -1.675781 2.328125 -1.09375 C 1.515625 -0.519531 1.066406 0.175781 0.984375 1 C 0.910156 1.820312 1.148438 2.75 1.703125 3.78125 Z M 20.25 -5.578125 C 20.257812 -5.578125 20.265625 -5.578125 20.265625 -5.578125 C 20.273438 -5.578125 20.28125 -5.578125 20.28125 -5.578125 Z M 20.25 -5.578125 "/></g></g></g><g fill="#000000" fill-opacity="1"><g transform="translate(30.284516, 30.715494)"><g><path d="M -0.609375 1.703125 C -0.910156 1.546875 -1.097656 1.328125 -1.171875 1.046875 C -1.242188 0.773438 -1.234375 0.472656 -1.140625 0.140625 C -1.054688 -0.179688 -0.925781 -0.5 -0.75 -0.8125 C -0.582031 -1.132812 -0.410156 -1.414062 -0.234375 -1.65625 C -0.0664062 -1.90625 0.0625 -2.070312 0.15625 -2.15625 C 0.257812 -2.28125 0.410156 -2.34375 0.609375 -2.34375 C 0.816406 -2.34375 1 -2.3125 1.15625 -2.25 C 1.3125 -2.1875 1.359375 -2.125 1.296875 -2.0625 C 0.554688 -1.238281 0.0546875 -0.507812 -0.203125 0.125 C -0.460938 0.769531 -0.5 1.160156 -0.3125 1.296875 C -0.207031 1.359375 -0.0351562 1.320312 0.203125 1.1875 C 0.453125 1.050781 0.738281 0.859375 1.0625 0.609375 C 1.394531 0.367188 1.734375 0.109375 2.078125 -0.171875 C 2.429688 -0.460938 2.765625 -0.734375 3.078125 -0.984375 C 3.390625 -1.242188 3.644531 -1.445312 3.84375 -1.59375 C 4.039062 -1.738281 4.148438 -1.796875 4.171875 -1.765625 C 4.179688 -1.753906 4.097656 -1.648438 3.921875 -1.453125 C 3.753906 -1.253906 3.515625 -1.003906 3.203125 -0.703125 C 2.898438 -0.410156 2.566406 -0.109375 2.203125 0.203125 C 1.847656 0.523438 1.488281 0.8125 1.125 1.0625 C 0.757812 1.320312 0.421875 1.515625 0.109375 1.640625 C -0.191406 1.773438 -0.429688 1.796875 -0.609375 1.703125 Z M 0.875 -3.078125 C 0.90625 -3.140625 1 -3.203125 1.15625 -3.265625 C 1.3125 -3.328125 1.390625 -3.359375 1.390625 -3.359375 C 1.390625 -3.359375 1.453125 -3.367188 1.578125 -3.390625 C 1.703125 -3.410156 1.84375 -3.425781 2 -3.4375 C 2.164062 -3.445312 2.3125 -3.429688 2.4375 -3.390625 C 2.519531 -3.347656 2.523438 -3.304688 2.453125 -3.265625 C 2.390625 -3.234375 2.296875 -3.195312 2.171875 -3.15625 C 2.046875 -3.125 1.925781 -3.097656 1.8125 -3.078125 C 1.707031 -3.054688 1.65625 -3.046875 1.65625 -3.046875 C 1.65625 -3.046875 1.582031 -3.03125 1.4375 -3 C 1.300781 -2.976562 1.171875 -2.96875 1.046875 -2.96875 C 0.921875 -2.976562 0.863281 -3.015625 0.875 -3.078125 Z M 0.875 -3.078125 "/></g></g></g><g fill="#000000" fill-opacity="1"><g transform="translate(34.8745, 30.715494)"><g><path d="M 1.640625 1.078125 C 1.203125 1.847656 0.710938 2.65625 0.171875 3.5 C -0.367188 4.351562 -0.953125 5.207031 -1.578125 6.0625 C -2.203125 6.925781 -2.84375 7.738281 -3.5 8.5 C -4.164062 9.257812 -4.828125 9.929688 -5.484375 10.515625 C -6.140625 11.109375 -6.769531 11.566406 -7.375 11.890625 C -7.976562 12.222656 -8.539062 12.375 -9.0625 12.34375 C -9.582031 12.320312 -10.035156 12.078125 -10.421875 11.609375 C -10.609375 11.378906 -10.695312 11.09375 -10.6875 10.75 C -10.675781 10.40625 -10.585938 10.039062 -10.421875 9.65625 C -10.265625 9.28125 -10.054688 8.914062 -9.796875 8.5625 C -9.398438 8.03125 -8.882812 7.476562 -8.25 6.90625 C -7.613281 6.332031 -6.910156 5.765625 -6.140625 5.203125 C -5.367188 4.640625 -4.578125 4.101562 -3.765625 3.59375 C -2.960938 3.082031 -2.179688 2.617188 -1.421875 2.203125 C -0.660156 1.785156 0.015625 1.441406 0.609375 1.171875 C 0.609375 1.171875 0.65625 1.09375 0.75 0.9375 C 0.851562 0.78125 0.972656 0.585938 1.109375 0.359375 C 1.253906 0.140625 1.398438 -0.078125 1.546875 -0.296875 C 1.691406 -0.515625 1.816406 -0.695312 1.921875 -0.84375 C 1.429688 -0.375 0.945312 0.0390625 0.46875 0.40625 C 0 0.769531 -0.425781 1.015625 -0.8125 1.140625 C -1.207031 1.273438 -1.519531 1.238281 -1.75 1.03125 C -1.957031 0.789062 -2.03125 0.503906 -1.96875 0.171875 C -1.914062 -0.148438 -1.765625 -0.476562 -1.515625 -0.8125 C -1.265625 -1.144531 -0.96875 -1.457031 -0.625 -1.75 C -0.289062 -2.050781 0.0351562 -2.28125 0.359375 -2.4375 C 0.648438 -2.5625 0.953125 -2.617188 1.265625 -2.609375 C 1.585938 -2.597656 1.863281 -2.53125 2.09375 -2.40625 C 2.332031 -2.28125 2.457031 -2.109375 2.46875 -1.890625 C 2.46875 -1.890625 2.519531 -1.953125 2.625 -2.078125 C 2.738281 -2.203125 2.859375 -2.3125 2.984375 -2.40625 C 3.046875 -2.445312 3.171875 -2.472656 3.359375 -2.484375 C 3.546875 -2.492188 3.707031 -2.484375 3.84375 -2.453125 C 3.988281 -2.421875 4.023438 -2.367188 3.953125 -2.296875 C 3.835938 -2.179688 3.585938 -1.875 3.203125 -1.375 C 2.828125 -0.875 2.421875 -0.242188 1.984375 0.515625 C 2.097656 0.460938 2.316406 0.335938 2.640625 0.140625 C 2.960938 -0.046875 3.332031 -0.269531 3.75 -0.53125 C 4.175781 -0.789062 4.597656 -1.039062 5.015625 -1.28125 C 5.429688 -1.53125 5.789062 -1.738281 6.09375 -1.90625 C 6.40625 -2.082031 6.625 -2.1875 6.75 -2.21875 C 6.820312 -2.238281 6.878906 -2.226562 6.921875 -2.1875 C 6.972656 -2.15625 6.988281 -2.132812 6.96875 -2.125 C 6.769531 -1.988281 6.460938 -1.789062 6.046875 -1.53125 C 5.628906 -1.28125 5.171875 -1.003906 4.671875 -0.703125 C 4.171875 -0.410156 3.6875 -0.128906 3.21875 0.140625 C 2.757812 0.421875 2.378906 0.644531 2.078125 0.8125 C 1.785156 0.988281 1.640625 1.078125 1.640625 1.078125 Z M 1.65625 -1.203125 C 1.675781 -1.222656 1.734375 -1.289062 1.828125 -1.40625 C 1.929688 -1.519531 1.988281 -1.59375 2 -1.625 C 2.070312 -1.75 2.085938 -1.867188 2.046875 -1.984375 C 2.003906 -2.109375 1.894531 -2.179688 1.71875 -2.203125 C 1.539062 -2.234375 1.296875 -2.164062 0.984375 -2 C 0.648438 -1.800781 0.328125 -1.554688 0.015625 -1.265625 C -0.296875 -0.984375 -0.566406 -0.695312 -0.796875 -0.40625 C -1.023438 -0.125 -1.1875 0.125 -1.28125 0.34375 C -1.382812 0.5625 -1.398438 0.695312 -1.328125 0.75 C -1.210938 0.851562 -1.015625 0.835938 -0.734375 0.703125 C -0.460938 0.566406 -0.171875 0.375 0.140625 0.125 C 0.460938 -0.125 0.765625 -0.375 1.046875 -0.625 C 1.328125 -0.882812 1.53125 -1.078125 1.65625 -1.203125 Z M -10.15625 10.21875 C -10.238281 10.425781 -10.296875 10.644531 -10.328125 10.875 C -10.359375 11.113281 -10.304688 11.320312 -10.171875 11.5 C -9.890625 11.863281 -9.507812 11.984375 -9.03125 11.859375 C -8.5625 11.742188 -8.019531 11.441406 -7.40625 10.953125 C -6.789062 10.472656 -6.132812 9.867188 -5.4375 9.140625 C -4.75 8.410156 -4.054688 7.613281 -3.359375 6.75 C -2.671875 5.882812 -2.003906 5.007812 -1.359375 4.125 C -0.710938 3.25 -0.140625 2.425781 0.359375 1.65625 C 0.304688 1.664062 0.109375 1.765625 -0.234375 1.953125 C -0.578125 2.148438 -1.03125 2.410156 -1.59375 2.734375 C -2.15625 3.066406 -2.769531 3.453125 -3.4375 3.890625 C -4.113281 4.328125 -4.796875 4.800781 -5.484375 5.3125 C -6.179688 5.820312 -6.84375 6.351562 -7.46875 6.90625 C -8.09375 7.457031 -8.640625 8.015625 -9.109375 8.578125 C -9.585938 9.148438 -9.9375 9.695312 -10.15625 10.21875 Z M -10.15625 10.21875 "/></g></g></g><g fill="#000000" fill-opacity="1"><g transform="translate(41.192486, 30.715494)"><g><path d="M 12.4375 -10.46875 C 12.1875 -9.675781 11.753906 -8.925781 11.140625 -8.21875 C 10.535156 -7.507812 9.832031 -6.851562 9.03125 -6.25 C 8.226562 -5.644531 7.390625 -5.085938 6.515625 -4.578125 C 5.648438 -4.078125 4.816406 -3.640625 4.015625 -3.265625 C 3.222656 -2.890625 2.53125 -2.578125 1.9375 -2.328125 C 1.34375 -2.085938 0.921875 -1.910156 0.671875 -1.796875 C 0.628906 -1.773438 0.539062 -1.671875 0.40625 -1.484375 C 0.28125 -1.304688 0.128906 -1.082031 -0.046875 -0.8125 C -0.234375 -0.539062 -0.410156 -0.265625 -0.578125 0.015625 C -0.753906 0.304688 -0.90625 0.578125 -1.03125 0.828125 C -1.15625 1.078125 -1.234375 1.269531 -1.265625 1.40625 C -1.273438 1.445312 -1.148438 1.390625 -0.890625 1.234375 C -0.640625 1.085938 -0.304688 0.875 0.109375 0.59375 C 0.523438 0.320312 0.984375 0.0195312 1.484375 -0.3125 C 1.992188 -0.644531 2.5 -0.957031 3 -1.25 C 3.5 -1.539062 3.957031 -1.78125 4.375 -1.96875 C 4.789062 -2.15625 5.117188 -2.25 5.359375 -2.25 C 5.390625 -2.25 5.453125 -2.234375 5.546875 -2.203125 C 5.648438 -2.179688 5.75 -2.128906 5.84375 -2.046875 C 5.945312 -1.972656 5.988281 -1.859375 5.96875 -1.703125 C 5.957031 -1.546875 5.882812 -1.347656 5.75 -1.109375 C 5.613281 -0.867188 5.453125 -0.613281 5.265625 -0.34375 C 5.078125 -0.0820312 4.894531 0.164062 4.71875 0.40625 C 4.539062 0.65625 4.394531 0.859375 4.28125 1.015625 C 4.175781 1.179688 4.144531 1.273438 4.1875 1.296875 C 4.425781 1.347656 4.914062 1.125 5.65625 0.625 C 6.394531 0.125 7.328125 -0.726562 8.453125 -1.9375 C 8.503906 -1.96875 8.546875 -1.945312 8.578125 -1.875 C 8.617188 -1.8125 8.628906 -1.769531 8.609375 -1.75 C 8.472656 -1.539062 8.257812 -1.289062 7.96875 -1 C 7.675781 -0.71875 7.34375 -0.414062 6.96875 -0.09375 C 6.59375 0.226562 6.222656 0.53125 5.859375 0.8125 C 5.492188 1.09375 5.171875 1.328125 4.890625 1.515625 C 4.609375 1.703125 4.40625 1.800781 4.28125 1.8125 C 4.195312 1.8125 4.085938 1.8125 3.953125 1.8125 C 3.828125 1.8125 3.710938 1.78125 3.609375 1.71875 C 3.515625 1.664062 3.472656 1.550781 3.484375 1.375 C 3.515625 1.195312 3.59375 0.984375 3.71875 0.734375 C 3.851562 0.492188 4 0.242188 4.15625 -0.015625 C 4.320312 -0.273438 4.472656 -0.519531 4.609375 -0.75 C 4.742188 -0.988281 4.832031 -1.179688 4.875 -1.328125 C 4.914062 -1.472656 4.878906 -1.546875 4.765625 -1.546875 C 4.597656 -1.554688 4.351562 -1.476562 4.03125 -1.3125 C 3.71875 -1.15625 3.359375 -0.941406 2.953125 -0.671875 C 2.554688 -0.410156 2.144531 -0.140625 1.71875 0.140625 C 1.289062 0.429688 0.878906 0.707031 0.484375 0.96875 C 0.0976562 1.238281 -0.238281 1.457031 -0.53125 1.625 C -0.832031 1.789062 -1.0625 1.875 -1.21875 1.875 C -1.414062 1.875 -1.570312 1.832031 -1.6875 1.75 C -1.800781 1.664062 -1.851562 1.476562 -1.84375 1.1875 C -1.820312 1.007812 -1.695312 0.671875 -1.46875 0.171875 C -1.25 -0.316406 -0.929688 -0.914062 -0.515625 -1.625 C -0.0976562 -2.34375 0.378906 -3.113281 0.921875 -3.9375 C 1.472656 -4.769531 2.070312 -5.609375 2.71875 -6.453125 C 3.375 -7.304688 4.0625 -8.117188 4.78125 -8.890625 C 5.507812 -9.660156 6.242188 -10.34375 6.984375 -10.9375 C 7.722656 -11.53125 8.457031 -11.988281 9.1875 -12.3125 C 9.925781 -12.632812 10.640625 -12.765625 11.328125 -12.703125 C 11.648438 -12.691406 11.925781 -12.597656 12.15625 -12.421875 C 12.394531 -12.253906 12.546875 -12.007812 12.609375 -11.6875 C 12.671875 -11.363281 12.613281 -10.957031 12.4375 -10.46875 Z M 11.015625 -12.390625 C 10.429688 -12.316406 9.789062 -12.0625 9.09375 -11.625 C 8.394531 -11.1875 7.671875 -10.625 6.921875 -9.9375 C 6.179688 -9.25 5.445312 -8.484375 4.71875 -7.640625 C 4 -6.804688 3.320312 -5.9375 2.6875 -5.03125 C 2.050781 -4.132812 1.492188 -3.257812 1.015625 -2.40625 C 1.253906 -2.457031 1.613281 -2.585938 2.09375 -2.796875 C 2.582031 -3.003906 3.148438 -3.28125 3.796875 -3.625 C 4.453125 -3.96875 5.140625 -4.359375 5.859375 -4.796875 C 6.585938 -5.242188 7.300781 -5.722656 8 -6.234375 C 8.695312 -6.742188 9.34375 -7.269531 9.9375 -7.8125 C 10.53125 -8.363281 11.019531 -8.914062 11.40625 -9.46875 C 11.800781 -10.019531 12.050781 -10.5625 12.15625 -11.09375 C 12.269531 -11.675781 12.21875 -12.050781 12 -12.21875 C 11.789062 -12.382812 11.460938 -12.441406 11.015625 -12.390625 Z M 11.015625 -12.390625 "/></g></g></g><g fill="#000000" fill-opacity="1"><g transform="translate(49.040466, 30.715494)"><g/></g></g><g fill="#000000" fill-opacity="1"><g transform="translate(56.240447, 30.715494)"><g><path d="M 0.21875 7.015625 C 0.519531 6.503906 0.898438 5.914062 1.359375 5.25 C 1.816406 4.582031 2.3125 3.894531 2.84375 3.1875 C 3.375 2.476562 3.894531 1.789062 4.40625 1.125 C 4.914062 0.46875 5.375 -0.113281 5.78125 -0.625 C 6.195312 -1.132812 6.519531 -1.519531 6.75 -1.78125 C 7.050781 -2.113281 7.429688 -2.582031 7.890625 -3.1875 C 8.359375 -3.789062 8.859375 -4.46875 9.390625 -5.21875 C 9.929688 -5.976562 10.460938 -6.757812 10.984375 -7.5625 C 11.503906 -8.375 11.976562 -9.15625 12.40625 -9.90625 C 12.832031 -10.65625 13.164062 -11.320312 13.40625 -11.90625 C 13.65625 -12.5 13.765625 -12.953125 13.734375 -13.265625 C 13.710938 -13.585938 13.503906 -13.71875 13.109375 -13.65625 C 12.691406 -13.582031 12.179688 -13.394531 11.578125 -13.09375 C 10.972656 -12.800781 10.328125 -12.425781 9.640625 -11.96875 C 8.960938 -11.507812 8.273438 -11.003906 7.578125 -10.453125 C 6.890625 -9.898438 6.25 -9.335938 5.65625 -8.765625 C 5.0625 -8.191406 4.554688 -7.640625 4.140625 -7.109375 C 3.734375 -6.578125 3.453125 -6.101562 3.296875 -5.6875 C 3.148438 -5.269531 3.191406 -4.941406 3.421875 -4.703125 C 3.460938 -4.648438 3.578125 -4.609375 3.765625 -4.578125 C 3.953125 -4.554688 4.203125 -4.578125 4.515625 -4.640625 C 4.828125 -4.703125 5.179688 -4.847656 5.578125 -5.078125 C 5.972656 -5.304688 6.398438 -5.648438 6.859375 -6.109375 C 6.859375 -6.109375 6.90625 -6.128906 7 -6.171875 C 7.101562 -6.210938 7.207031 -6.25 7.3125 -6.28125 C 7.425781 -6.320312 7.503906 -6.332031 7.546875 -6.3125 C 7.597656 -6.289062 7.570312 -6.222656 7.46875 -6.109375 C 6.914062 -5.484375 6.40625 -5.03125 5.9375 -4.75 C 5.46875 -4.476562 5.054688 -4.3125 4.703125 -4.25 C 4.347656 -4.1875 4.066406 -4.175781 3.859375 -4.21875 C 3.660156 -4.257812 3.550781 -4.285156 3.53125 -4.296875 C 3.125 -4.410156 2.875 -4.625 2.78125 -4.9375 C 2.6875 -5.257812 2.710938 -5.65625 2.859375 -6.125 C 3.003906 -6.570312 3.28125 -7.0625 3.6875 -7.59375 C 4.09375 -8.125 4.585938 -8.660156 5.171875 -9.203125 C 5.753906 -9.753906 6.378906 -10.285156 7.046875 -10.796875 C 7.710938 -11.304688 8.378906 -11.773438 9.046875 -12.203125 C 9.710938 -12.640625 10.335938 -13.007812 10.921875 -13.3125 C 11.515625 -13.613281 12.015625 -13.828125 12.421875 -13.953125 C 12.773438 -14.054688 13.09375 -14.101562 13.375 -14.09375 C 13.664062 -14.09375 13.941406 -13.984375 14.203125 -13.765625 C 14.503906 -13.535156 14.640625 -13.273438 14.609375 -12.984375 C 14.585938 -12.691406 14.519531 -12.390625 14.40625 -12.078125 C 14.03125 -11.097656 13.601562 -10.164062 13.125 -9.28125 C 12.644531 -8.394531 12.21875 -7.671875 11.84375 -7.109375 C 11.820312 -7.054688 11.828125 -7.015625 11.859375 -6.984375 C 11.898438 -6.953125 11.941406 -6.953125 11.984375 -6.984375 C 12.492188 -7.410156 13.070312 -7.894531 13.71875 -8.4375 C 14.363281 -8.976562 15.035156 -9.492188 15.734375 -9.984375 C 16.441406 -10.484375 17.132812 -10.894531 17.8125 -11.21875 C 18.488281 -11.539062 19.109375 -11.703125 19.671875 -11.703125 C 20.128906 -11.703125 20.476562 -11.617188 20.71875 -11.453125 C 20.957031 -11.296875 21.113281 -11.085938 21.1875 -10.828125 C 21.269531 -10.578125 21.304688 -10.320312 21.296875 -10.0625 C 21.296875 -9.8125 21.285156 -9.601562 21.265625 -9.4375 C 21.171875 -8.851562 20.960938 -8.265625 20.640625 -7.671875 C 20.316406 -7.078125 19.921875 -6.476562 19.453125 -5.875 C 18.984375 -5.269531 18.484375 -4.65625 17.953125 -4.03125 C 17.921875 -4.007812 17.914062 -3.976562 17.9375 -3.9375 C 17.957031 -3.90625 17.984375 -3.894531 18.015625 -3.90625 C 18.453125 -3.96875 18.796875 -4.003906 19.046875 -4.015625 C 19.304688 -4.023438 19.550781 -4.015625 19.78125 -3.984375 C 20.007812 -3.953125 20.285156 -3.910156 20.609375 -3.859375 C 20.421875 -3.796875 20.195312 -3.753906 19.9375 -3.734375 C 19.675781 -3.710938 19.332031 -3.679688 18.90625 -3.640625 C 18.488281 -3.597656 17.925781 -3.503906 17.21875 -3.359375 C 17.0625 -3.335938 16.941406 -3.273438 16.859375 -3.171875 C 16.679688 -2.984375 16.378906 -2.726562 15.953125 -2.40625 C 15.523438 -2.09375 15.023438 -1.75 14.453125 -1.375 C 13.878906 -1 13.269531 -0.628906 12.625 -0.265625 C 11.976562 0.0859375 11.351562 0.398438 10.75 0.671875 C 10.144531 0.953125 9.597656 1.15625 9.109375 1.28125 C 8.617188 1.40625 8.234375 1.414062 7.953125 1.3125 C 7.554688 1.144531 7.363281 0.945312 7.375 0.71875 C 7.382812 0.5 7.578125 0.242188 7.953125 -0.046875 C 8.523438 -0.535156 9.222656 -1.019531 10.046875 -1.5 C 10.878906 -1.988281 11.78125 -2.429688 12.75 -2.828125 C 13.726562 -3.234375 14.71875 -3.53125 15.71875 -3.71875 C 16.226562 -3.832031 16.648438 -4.054688 16.984375 -4.390625 C 17.347656 -4.734375 17.726562 -5.132812 18.125 -5.59375 C 18.519531 -6.050781 18.894531 -6.535156 19.25 -7.046875 C 19.613281 -7.566406 19.925781 -8.082031 20.1875 -8.59375 C 20.445312 -9.113281 20.613281 -9.597656 20.6875 -10.046875 C 20.757812 -10.515625 20.707031 -10.835938 20.53125 -11.015625 C 20.351562 -11.203125 20.03125 -11.269531 19.5625 -11.21875 C 19.101562 -11.15625 18.625 -11.007812 18.125 -10.78125 C 17.625 -10.5625 17.140625 -10.304688 16.671875 -10.015625 C 16.210938 -9.722656 15.800781 -9.429688 15.4375 -9.140625 C 13.988281 -7.992188 12.609375 -6.78125 11.296875 -5.5 C 9.984375 -4.21875 8.789062 -2.8125 7.71875 -1.28125 C 7.21875 -0.5625 6.660156 0.210938 6.046875 1.046875 C 5.429688 1.878906 4.804688 2.710938 4.171875 3.546875 C 3.535156 4.390625 2.9375 5.171875 2.375 5.890625 C 1.820312 6.617188 1.347656 7.234375 0.953125 7.734375 C 0.816406 7.898438 0.664062 7.957031 0.5 7.90625 C 0.34375 7.863281 0.222656 7.753906 0.140625 7.578125 C 0.0664062 7.410156 0.09375 7.222656 0.21875 7.015625 Z M 15.1875 -2.828125 C 15.25 -2.859375 15.265625 -2.90625 15.234375 -2.96875 C 15.203125 -3.039062 15.148438 -3.066406 15.078125 -3.046875 C 14.546875 -2.929688 13.945312 -2.75 13.28125 -2.5 C 12.613281 -2.257812 11.953125 -1.976562 11.296875 -1.65625 C 10.648438 -1.332031 10.054688 -0.988281 9.515625 -0.625 C 8.984375 -0.269531 8.570312 0.0664062 8.28125 0.390625 C 8.195312 0.492188 8.1875 0.597656 8.25 0.703125 C 8.320312 0.816406 8.414062 0.863281 8.53125 0.84375 C 9.207031 0.738281 9.929688 0.488281 10.703125 0.09375 C 11.472656 -0.300781 12.242188 -0.765625 13.015625 -1.296875 C 13.796875 -1.828125 14.519531 -2.335938 15.1875 -2.828125 Z M 15.1875 -2.828125 "/></g></g></g><g fill="#000000" fill-opacity="1"><g transform="translate(74.240389, 30.715494)"><g><path d="M 0.09375 1.421875 C -0.894531 1.679688 -1.519531 1.523438 -1.78125 0.953125 C -1.90625 0.679688 -1.9375 0.410156 -1.875 0.140625 C -1.820312 -0.128906 -1.71875 -0.390625 -1.5625 -0.640625 C -1.414062 -0.898438 -1.265625 -1.125 -1.109375 -1.3125 C -0.921875 -1.550781 -0.671875 -1.765625 -0.359375 -1.953125 C -0.046875 -2.140625 0.28125 -2.269531 0.625 -2.34375 C 0.96875 -2.414062 1.265625 -2.390625 1.515625 -2.265625 C 1.753906 -2.171875 1.910156 -2.003906 1.984375 -1.765625 C 2.066406 -1.523438 2.023438 -1.316406 1.859375 -1.140625 C 1.515625 -0.796875 1.113281 -0.523438 0.65625 -0.328125 C 0.207031 -0.128906 -0.203125 -0.0507812 -0.578125 -0.09375 C -0.765625 -0.101562 -0.890625 -0.128906 -0.953125 -0.171875 C -1.015625 -0.210938 -1.054688 -0.203125 -1.078125 -0.140625 C -1.222656 0.242188 -1.226562 0.53125 -1.09375 0.71875 C -0.96875 0.914062 -0.804688 1.015625 -0.609375 1.015625 C -0.304688 1.035156 0.03125 0.972656 0.40625 0.828125 C 0.789062 0.691406 1.191406 0.503906 1.609375 0.265625 C 2.023438 0.0351562 2.421875 -0.203125 2.796875 -0.453125 C 3.171875 -0.710938 3.503906 -0.945312 3.796875 -1.15625 C 4.085938 -1.363281 4.296875 -1.519531 4.421875 -1.625 C 4.597656 -1.75 4.707031 -1.804688 4.75 -1.796875 C 4.800781 -1.796875 4.75 -1.710938 4.59375 -1.546875 C 4.28125 -1.285156 3.890625 -0.957031 3.421875 -0.5625 C 2.953125 -0.164062 2.4375 0.21875 1.875 0.59375 C 1.3125 0.96875 0.71875 1.242188 0.09375 1.421875 Z M 1.078125 -2 C 0.671875 -1.914062 0.296875 -1.734375 -0.046875 -1.453125 C -0.390625 -1.179688 -0.65625 -0.90625 -0.84375 -0.625 C -0.5 -0.507812 -0.117188 -0.53125 0.296875 -0.6875 C 0.710938 -0.851562 1.070312 -1.09375 1.375 -1.40625 C 1.4375 -1.476562 1.503906 -1.570312 1.578125 -1.6875 C 1.648438 -1.8125 1.640625 -1.90625 1.546875 -1.96875 C 1.492188 -2.007812 1.425781 -2.03125 1.34375 -2.03125 C 1.257812 -2.03125 1.171875 -2.019531 1.078125 -2 Z M 1.078125 -2 "/></g></g></g><g fill="#000000" fill-opacity="1"><g transform="translate(78.866377, 30.715494)"><g><path d="M 2.40625 -0.625 C 2.59375 -0.90625 2.65625 -1.039062 2.59375 -1.03125 C 2.53125 -1.03125 2.363281 -0.953125 2.09375 -0.796875 C 1.832031 -0.648438 1.488281 -0.5 1.0625 -0.34375 C 0.644531 -0.1875 0.15625 -0.101562 -0.40625 -0.09375 C -0.5 -0.101562 -0.617188 -0.128906 -0.765625 -0.171875 C -0.910156 -0.222656 -1.007812 -0.332031 -1.0625 -0.5 C -1.113281 -0.664062 -1.035156 -0.925781 -0.828125 -1.28125 C -0.703125 -1.476562 -0.515625 -1.6875 -0.265625 -1.90625 C -0.0234375 -2.132812 0.226562 -2.328125 0.5 -2.484375 C 0.769531 -2.648438 0.992188 -2.738281 1.171875 -2.75 C 1.210938 -2.757812 1.269531 -2.722656 1.34375 -2.640625 C 1.414062 -2.554688 1.453125 -2.515625 1.453125 -2.515625 C 1.492188 -2.484375 1.457031 -2.40625 1.34375 -2.28125 C 1.238281 -2.164062 1.097656 -2.035156 0.921875 -1.890625 C 0.753906 -1.742188 0.578125 -1.601562 0.390625 -1.46875 C 0.222656 -1.375 0.078125 -1.289062 -0.046875 -1.21875 C -0.171875 -1.144531 -0.28125 -1.085938 -0.375 -1.046875 C -0.46875 -0.828125 -0.492188 -0.691406 -0.453125 -0.640625 C -0.421875 -0.585938 -0.382812 -0.539062 -0.34375 -0.5 C -0.25 -0.40625 -0.0664062 -0.40625 0.203125 -0.5 C 0.484375 -0.59375 0.8125 -0.734375 1.1875 -0.921875 C 1.5625 -1.109375 1.9375 -1.300781 2.3125 -1.5 C 2.6875 -1.707031 3.023438 -1.882812 3.328125 -2.03125 C 3.628906 -2.175781 3.835938 -2.242188 3.953125 -2.234375 L 3.984375 -2.234375 C 4.078125 -2.179688 4.144531 -2.113281 4.1875 -2.03125 C 4.238281 -1.945312 4.234375 -1.851562 4.171875 -1.75 C 4.046875 -1.457031 3.851562 -1.15625 3.59375 -0.84375 C 3.34375 -0.53125 3.082031 -0.226562 2.8125 0.0625 C 2.539062 0.351562 2.296875 0.625 2.078125 0.875 C 1.867188 1.132812 1.722656 1.351562 1.640625 1.53125 C 1.554688 1.707031 1.585938 1.828125 1.734375 1.890625 C 1.867188 1.953125 2.082031 1.910156 2.375 1.765625 C 2.664062 1.628906 3 1.425781 3.375 1.15625 C 3.75 0.882812 4.140625 0.578125 4.546875 0.234375 C 4.960938 -0.0976562 5.359375 -0.441406 5.734375 -0.796875 C 6.109375 -1.160156 6.445312 -1.492188 6.75 -1.796875 C 6.769531 -1.828125 6.820312 -1.847656 6.90625 -1.859375 C 6.988281 -1.878906 7.054688 -1.882812 7.109375 -1.875 C 7.171875 -1.863281 7.160156 -1.804688 7.078125 -1.703125 C 6.597656 -1.203125 6.066406 -0.675781 5.484375 -0.125 C 4.898438 0.425781 4.300781 0.921875 3.6875 1.359375 C 3.070312 1.804688 2.476562 2.117188 1.90625 2.296875 C 1.738281 2.335938 1.570312 2.332031 1.40625 2.28125 C 1.25 2.238281 1.132812 2.15625 1.0625 2.03125 C 0.90625 1.75 0.867188 1.46875 0.953125 1.1875 C 1.046875 0.914062 1.222656 0.628906 1.484375 0.328125 C 1.753906 0.0234375 2.0625 -0.289062 2.40625 -0.625 Z M 2.40625 -0.625 "/></g></g></g><g fill="#000000" fill-opacity="1"><g transform="translate(85.634356, 30.715494)"><g><path d="M 8.28125 -1.640625 C 7.96875 -1.367188 7.535156 -1.019531 6.984375 -0.59375 C 6.429688 -0.175781 5.8125 0.28125 5.125 0.78125 C 4.445312 1.28125 3.738281 1.769531 3 2.25 C 2.257812 2.726562 1.546875 3.148438 0.859375 3.515625 C 0.867188 3.984375 0.78125 4.476562 0.59375 5 C 0.414062 5.519531 0.171875 6.023438 -0.140625 6.515625 C -0.453125 7.003906 -0.796875 7.441406 -1.171875 7.828125 C -1.546875 8.210938 -1.910156 8.503906 -2.265625 8.703125 C -2.617188 8.898438 -2.925781 8.957031 -3.1875 8.875 C -3.382812 8.8125 -3.523438 8.679688 -3.609375 8.484375 C -3.703125 8.296875 -3.75 8.082031 -3.75 7.84375 C -3.75 7.601562 -3.726562 7.375 -3.6875 7.15625 C -3.59375 6.65625 -3.476562 6.15625 -3.34375 5.65625 C -3.21875 5.15625 -3.078125 4.664062 -2.921875 4.1875 C -2.960938 4.144531 -3.003906 4.078125 -3.046875 3.984375 C -3.085938 3.847656 -3.101562 3.71875 -3.09375 3.59375 C -3.070312 3.46875 -3.03125 3.351562 -2.96875 3.25 C -2.90625 3.15625 -2.847656 3.066406 -2.796875 2.984375 C -2.734375 2.898438 -2.660156 2.820312 -2.578125 2.75 C -2.503906 2.6875 -2.425781 2.628906 -2.34375 2.578125 C -2.09375 1.929688 -1.785156 1.210938 -1.421875 0.421875 C -1.054688 -0.359375 -0.644531 -1.164062 -0.1875 -2 C 0.269531 -2.84375 0.765625 -3.644531 1.296875 -4.40625 C 1.867188 -5.25 2.488281 -6.070312 3.15625 -6.875 C 3.820312 -7.675781 4.503906 -8.421875 5.203125 -9.109375 C 5.910156 -9.804688 6.613281 -10.410156 7.3125 -10.921875 C 8.019531 -11.429688 8.703125 -11.816406 9.359375 -12.078125 C 10.015625 -12.347656 10.628906 -12.460938 11.203125 -12.421875 C 11.523438 -12.410156 11.804688 -12.316406 12.046875 -12.140625 C 12.285156 -11.960938 12.4375 -11.707031 12.5 -11.375 C 12.5625 -11.050781 12.503906 -10.648438 12.328125 -10.171875 C 12.109375 -9.492188 11.75 -8.835938 11.25 -8.203125 C 10.75 -7.578125 10.15625 -6.976562 9.46875 -6.40625 C 8.789062 -5.84375 8.070312 -5.3125 7.3125 -4.8125 C 6.550781 -4.3125 5.796875 -3.859375 5.046875 -3.453125 C 4.304688 -3.054688 3.613281 -2.707031 2.96875 -2.40625 C 2.332031 -2.113281 1.796875 -1.878906 1.359375 -1.703125 C 0.929688 -1.523438 0.660156 -1.421875 0.546875 -1.390625 C 0.265625 -0.828125 -0.00390625 -0.265625 -0.265625 0.296875 C -0.535156 0.867188 -0.796875 1.445312 -1.046875 2.03125 C -0.609375 1.96875 -0.222656 2.015625 0.109375 2.171875 C 0.453125 2.328125 0.679688 2.625 0.796875 3.0625 C 1.441406 2.738281 2.113281 2.363281 2.8125 1.9375 C 3.507812 1.507812 4.1875 1.070312 4.84375 0.625 C 5.507812 0.175781 6.132812 -0.25 6.71875 -0.65625 C 7.300781 -1.070312 7.796875 -1.429688 8.203125 -1.734375 Z M 10.890625 -12.09375 C 10.347656 -12.019531 9.765625 -11.796875 9.140625 -11.421875 C 8.515625 -11.054688 7.875 -10.582031 7.21875 -10 C 6.5625 -9.425781 5.910156 -8.785156 5.265625 -8.078125 C 4.628906 -7.378906 4.023438 -6.664062 3.453125 -5.9375 C 2.890625 -5.207031 2.382812 -4.503906 1.9375 -3.828125 C 1.488281 -3.148438 1.125 -2.539062 0.84375 -2 C 1.175781 -2.101562 1.664062 -2.304688 2.3125 -2.609375 C 2.96875 -2.910156 3.695312 -3.285156 4.5 -3.734375 C 5.300781 -4.179688 6.117188 -4.679688 6.953125 -5.234375 C 7.785156 -5.796875 8.566406 -6.390625 9.296875 -7.015625 C 10.035156 -7.640625 10.648438 -8.269531 11.140625 -8.90625 C 11.628906 -9.550781 11.929688 -10.179688 12.046875 -10.796875 C 12.160156 -11.390625 12.109375 -11.769531 11.890625 -11.9375 C 11.671875 -12.101562 11.335938 -12.15625 10.890625 -12.09375 Z M -1.203125 2.4375 C -1.328125 2.695312 -1.441406 2.960938 -1.546875 3.234375 C -1.648438 3.503906 -1.757812 3.769531 -1.875 4.03125 C -1.5 3.976562 -1.097656 3.867188 -0.671875 3.703125 C -0.253906 3.546875 0.117188 3.390625 0.453125 3.234375 C 0.378906 2.742188 0.179688 2.453125 -0.140625 2.359375 C -0.460938 2.273438 -0.816406 2.300781 -1.203125 2.4375 Z M -2.625 3.328125 C -2.78125 3.535156 -2.835938 3.703125 -2.796875 3.828125 C -2.765625 3.734375 -2.734375 3.644531 -2.703125 3.5625 C -2.671875 3.488281 -2.644531 3.410156 -2.625 3.328125 Z M 0.3125 4.46875 C 0.394531 4.21875 0.441406 3.96875 0.453125 3.71875 C -0.0351562 3.96875 -0.492188 4.160156 -0.921875 4.296875 C -1.359375 4.441406 -1.738281 4.515625 -2.0625 4.515625 C -2.257812 5.003906 -2.4375 5.484375 -2.59375 5.953125 C -2.757812 6.421875 -2.910156 6.867188 -3.046875 7.296875 C -3.066406 7.410156 -3.085938 7.570312 -3.109375 7.78125 C -3.140625 7.988281 -3.125 8.144531 -3.0625 8.25 C -3.039062 8.257812 -3.023438 8.269531 -3.015625 8.28125 C -3.003906 8.289062 -2.992188 8.300781 -2.984375 8.3125 C -2.972656 8.3125 -2.953125 8.3125 -2.921875 8.3125 C -2.898438 8.320312 -2.875 8.320312 -2.84375 8.3125 C -2.65625 8.289062 -2.410156 8.171875 -2.109375 7.953125 C -1.816406 7.734375 -1.507812 7.453125 -1.1875 7.109375 C -0.875 6.765625 -0.582031 6.363281 -0.3125 5.90625 C -0.0390625 5.445312 0.164062 4.96875 0.3125 4.46875 Z M 0.3125 4.46875 "/></g></g></g><g fill="#000000" fill-opacity="1"><g transform="translate(94.148325, 30.715494)"><g><path d="M 4 -1.65625 C 4.0625 -1.675781 4.113281 -1.675781 4.15625 -1.65625 C 4.207031 -1.644531 4.210938 -1.632812 4.171875 -1.625 C 3.691406 -1.332031 3.242188 -1.070312 2.828125 -0.84375 C 2.421875 -0.613281 1.960938 -0.394531 1.453125 -0.1875 C 1.097656 0.25 0.675781 0.632812 0.1875 0.96875 C -0.300781 1.300781 -0.753906 1.5 -1.171875 1.5625 C -1.316406 1.570312 -1.453125 1.5625 -1.578125 1.53125 C -1.703125 1.507812 -1.804688 1.429688 -1.890625 1.296875 C -2.035156 1.078125 -2.046875 0.820312 -1.921875 0.53125 C -1.796875 0.238281 -1.601562 -0.03125 -1.34375 -0.28125 C -1.46875 -0.4375 -1.453125 -0.644531 -1.296875 -0.90625 C -1.148438 -1.164062 -0.914062 -1.421875 -0.59375 -1.671875 C -0.28125 -1.929688 0.0703125 -2.140625 0.46875 -2.296875 C 0.863281 -2.453125 1.242188 -2.507812 1.609375 -2.46875 C 1.785156 -2.457031 1.929688 -2.375 2.046875 -2.21875 C 2.171875 -2.0625 2.222656 -1.90625 2.203125 -1.75 C 2.179688 -1.550781 2.128906 -1.351562 2.046875 -1.15625 C 1.972656 -0.96875 1.875 -0.78125 1.75 -0.59375 C 2.238281 -0.8125 2.660156 -1.007812 3.015625 -1.1875 C 3.378906 -1.375 3.707031 -1.53125 4 -1.65625 Z M -0.546875 0.25 C -0.628906 0.25 -0.734375 0.234375 -0.859375 0.203125 C -1.023438 0.390625 -1.15625 0.566406 -1.25 0.734375 C -1.34375 0.898438 -1.328125 1 -1.203125 1.03125 C -1.046875 1.050781 -0.820312 1.003906 -0.53125 0.890625 C -0.25 0.785156 0.113281 0.53125 0.5625 0.125 C 0.476562 0.132812 0.398438 0.148438 0.328125 0.171875 C 0.253906 0.191406 0.179688 0.210938 0.109375 0.234375 C 0.00390625 0.242188 -0.0976562 0.25 -0.203125 0.25 C -0.304688 0.257812 -0.421875 0.257812 -0.546875 0.25 Z M 1.625 -2 C 1.4375 -2.082031 1.195312 -2.078125 0.90625 -1.984375 C 0.625 -1.890625 0.34375 -1.738281 0.0625 -1.53125 C -0.207031 -1.332031 -0.421875 -1.109375 -0.578125 -0.859375 C -0.421875 -0.921875 -0.289062 -0.9375 -0.1875 -0.90625 C -0.09375 -0.882812 -0.0390625 -0.847656 -0.03125 -0.796875 C 0.0507812 -0.710938 0.0625 -0.640625 0 -0.578125 C -0.0625 -0.515625 -0.207031 -0.390625 -0.4375 -0.203125 C -0.25 -0.160156 -0.015625 -0.160156 0.265625 -0.203125 C 0.554688 -0.242188 0.804688 -0.285156 1.015625 -0.328125 C 1.128906 -0.472656 1.257812 -0.664062 1.40625 -0.90625 C 1.5625 -1.144531 1.671875 -1.367188 1.734375 -1.578125 C 1.804688 -1.796875 1.769531 -1.9375 1.625 -2 Z M 1.625 -2 "/></g></g></g><g fill="#000000" fill-opacity="1"><g transform="translate(98.162317, 30.715494)"><g><path d="M 2.40625 -0.625 C 2.59375 -0.90625 2.65625 -1.039062 2.59375 -1.03125 C 2.53125 -1.03125 2.363281 -0.953125 2.09375 -0.796875 C 1.832031 -0.648438 1.488281 -0.5 1.0625 -0.34375 C 0.644531 -0.1875 0.15625 -0.101562 -0.40625 -0.09375 C -0.5 -0.101562 -0.617188 -0.128906 -0.765625 -0.171875 C -0.910156 -0.222656 -1.007812 -0.332031 -1.0625 -0.5 C -1.113281 -0.664062 -1.035156 -0.925781 -0.828125 -1.28125 C -0.703125 -1.476562 -0.515625 -1.6875 -0.265625 -1.90625 C -0.0234375 -2.132812 0.226562 -2.328125 0.5 -2.484375 C 0.769531 -2.648438 0.992188 -2.738281 1.171875 -2.75 C 1.210938 -2.757812 1.269531 -2.722656 1.34375 -2.640625 C 1.414062 -2.554688 1.453125 -2.515625 1.453125 -2.515625 C 1.492188 -2.484375 1.457031 -2.40625 1.34375 -2.28125 C 1.238281 -2.164062 1.097656 -2.035156 0.921875 -1.890625 C 0.753906 -1.742188 0.578125 -1.601562 0.390625 -1.46875 C 0.222656 -1.375 0.078125 -1.289062 -0.046875 -1.21875 C -0.171875 -1.144531 -0.28125 -1.085938 -0.375 -1.046875 C -0.46875 -0.828125 -0.492188 -0.691406 -0.453125 -0.640625 C -0.421875 -0.585938 -0.382812 -0.539062 -0.34375 -0.5 C -0.25 -0.40625 -0.0664062 -0.40625 0.203125 -0.5 C 0.484375 -0.59375 0.8125 -0.734375 1.1875 -0.921875 C 1.5625 -1.109375 1.9375 -1.300781 2.3125 -1.5 C 2.6875 -1.707031 3.023438 -1.882812 3.328125 -2.03125 C 3.628906 -2.175781 3.835938 -2.242188 3.953125 -2.234375 L 3.984375 -2.234375 C 4.078125 -2.179688 4.144531 -2.113281 4.1875 -2.03125 C 4.238281 -1.945312 4.234375 -1.851562 4.171875 -1.75 C 4.046875 -1.457031 3.851562 -1.15625 3.59375 -0.84375 C 3.34375 -0.53125 3.082031 -0.226562 2.8125 0.0625 C 2.539062 0.351562 2.296875 0.625 2.078125 0.875 C 1.867188 1.132812 1.722656 1.351562 1.640625 1.53125 C 1.554688 1.707031 1.585938 1.828125 1.734375 1.890625 C 1.867188 1.953125 2.082031 1.910156 2.375 1.765625 C 2.664062 1.628906 3 1.425781 3.375 1.15625 C 3.75 0.882812 4.140625 0.578125 4.546875 0.234375 C 4.960938 -0.0976562 5.359375 -0.441406 5.734375 -0.796875 C 6.109375 -1.160156 6.445312 -1.492188 6.75 -1.796875 C 6.769531 -1.828125 6.820312 -1.847656 6.90625 -1.859375 C 6.988281 -1.878906 7.054688 -1.882812 7.109375 -1.875 C 7.171875 -1.863281 7.160156 -1.804688 7.078125 -1.703125 C 6.597656 -1.203125 6.066406 -0.675781 5.484375 -0.125 C 4.898438 0.425781 4.300781 0.921875 3.6875 1.359375 C 3.070312 1.804688 2.476562 2.117188 1.90625 2.296875 C 1.738281 2.335938 1.570312 2.332031 1.40625 2.28125 C 1.25 2.238281 1.132812 2.15625 1.0625 2.03125 C 0.90625 1.75 0.867188 1.46875 0.953125 1.1875 C 1.046875 0.914062 1.222656 0.628906 1.484375 0.328125 C 1.753906 0.0234375 2.0625 -0.289062 2.40625 -0.625 Z M 2.40625 -0.625 "/></g></g></g><g fill="#000000" fill-opacity="1"><g transform="translate(104.930295, 30.715494)"><g><path d="M 4.703125 0.46875 C 4.535156 0.300781 4.476562 0.0664062 4.53125 -0.234375 C 4.582031 -0.546875 4.6875 -0.859375 4.84375 -1.171875 C 5.007812 -1.492188 5.15625 -1.742188 5.28125 -1.921875 C 5.207031 -1.910156 5.070312 -1.8125 4.875 -1.625 C 4.675781 -1.4375 4.445312 -1.210938 4.1875 -0.953125 C 3.925781 -0.691406 3.671875 -0.429688 3.421875 -0.171875 C 3.179688 0.078125 2.976562 0.269531 2.8125 0.40625 C 2.757812 0.457031 2.671875 0.550781 2.546875 0.6875 C 2.421875 0.832031 2.296875 0.875 2.171875 0.8125 C 2.046875 0.738281 1.941406 0.601562 1.859375 0.40625 C 1.773438 0.21875 1.757812 0.0546875 1.8125 -0.078125 C 1.882812 -0.242188 1.984375 -0.445312 2.109375 -0.6875 C 2.234375 -0.9375 2.359375 -1.1875 2.484375 -1.4375 C 2.617188 -1.6875 2.726562 -1.894531 2.8125 -2.0625 C 2.769531 -2.0625 2.625 -1.957031 2.375 -1.75 C 2.132812 -1.550781 1.84375 -1.300781 1.5 -1 C 1.15625 -0.695312 0.8125 -0.390625 0.46875 -0.078125 C 0.125 0.234375 -0.164062 0.492188 -0.40625 0.703125 C -0.664062 0.910156 -0.914062 1.101562 -1.15625 1.28125 C -1.34375 1.40625 -1.550781 1.398438 -1.78125 1.265625 C -1.90625 1.160156 -1.953125 1.054688 -1.921875 0.953125 C -1.890625 0.859375 -1.835938 0.753906 -1.765625 0.640625 C -1.472656 0.191406 -1.15625 -0.242188 -0.8125 -0.671875 C -0.476562 -1.109375 -0.210938 -1.585938 -0.015625 -2.109375 C 0.0234375 -2.210938 0.0859375 -2.265625 0.171875 -2.265625 C 0.265625 -2.273438 0.34375 -2.265625 0.40625 -2.234375 C 0.601562 -2.148438 0.664062 -1.988281 0.59375 -1.75 C 0.570312 -1.664062 0.503906 -1.523438 0.390625 -1.328125 C 0.273438 -1.140625 0.144531 -0.925781 0 -0.6875 C -0.15625 -0.457031 -0.304688 -0.238281 -0.453125 -0.03125 C -0.597656 0.164062 -0.710938 0.328125 -0.796875 0.453125 C -0.628906 0.335938 -0.398438 0.15625 -0.109375 -0.09375 C 0.179688 -0.351562 0.488281 -0.632812 0.8125 -0.9375 C 1.144531 -1.25 1.460938 -1.539062 1.765625 -1.8125 C 2.066406 -2.082031 2.3125 -2.289062 2.5 -2.4375 C 2.644531 -2.539062 2.800781 -2.59375 2.96875 -2.59375 C 3.144531 -2.59375 3.328125 -2.550781 3.515625 -2.46875 C 3.597656 -2.414062 3.648438 -2.34375 3.671875 -2.25 C 3.703125 -2.164062 3.695312 -2.082031 3.65625 -2 C 3.507812 -1.75 3.359375 -1.484375 3.203125 -1.203125 C 3.046875 -0.921875 2.910156 -0.671875 2.796875 -0.453125 C 2.691406 -0.242188 2.640625 -0.101562 2.640625 -0.03125 C 2.828125 -0.226562 3.066406 -0.476562 3.359375 -0.78125 C 3.648438 -1.082031 3.941406 -1.378906 4.234375 -1.671875 C 4.535156 -1.960938 4.769531 -2.164062 4.9375 -2.28125 C 5.101562 -2.40625 5.265625 -2.4375 5.421875 -2.375 C 5.578125 -2.3125 5.679688 -2.265625 5.734375 -2.234375 C 5.773438 -2.210938 5.84375 -2.15625 5.9375 -2.0625 C 6.03125 -1.96875 6.050781 -1.84375 6 -1.6875 C 5.957031 -1.601562 5.882812 -1.46875 5.78125 -1.28125 C 5.6875 -1.101562 5.582031 -0.90625 5.46875 -0.6875 C 5.363281 -0.476562 5.28125 -0.289062 5.21875 -0.125 C 5.15625 0.0390625 5.148438 0.148438 5.203125 0.203125 C 5.316406 0.304688 5.519531 0.289062 5.8125 0.15625 C 6.113281 0.0195312 6.441406 -0.179688 6.796875 -0.453125 C 7.160156 -0.722656 7.507812 -0.992188 7.84375 -1.265625 C 8.1875 -1.546875 8.457031 -1.769531 8.65625 -1.9375 C 8.789062 -2.039062 8.894531 -2.078125 8.96875 -2.046875 C 9.039062 -2.015625 9.019531 -1.953125 8.90625 -1.859375 C 7.726562 -0.804688 6.800781 -0.09375 6.125 0.28125 C 5.445312 0.664062 4.972656 0.726562 4.703125 0.46875 Z M 4.703125 0.46875 "/></g></g></g><g fill="#000000" fill-opacity="1"><g transform="translate(113.678273, 30.715494)"><g><path d="M -1.734375 1.5 C -1.921875 1.34375 -2.007812 1.109375 -2 0.796875 C -1.988281 0.484375 -1.882812 0.140625 -1.6875 -0.234375 C -1.488281 -0.617188 -1.210938 -0.988281 -0.859375 -1.34375 C -0.515625 -1.695312 -0.101562 -1.988281 0.375 -2.21875 C 0.570312 -2.3125 0.804688 -2.359375 1.078125 -2.359375 C 1.359375 -2.359375 1.601562 -2.3125 1.8125 -2.21875 C 2.03125 -2.132812 2.144531 -2.015625 2.15625 -1.859375 C 2.15625 -1.859375 2.195312 -1.90625 2.28125 -2 C 2.363281 -2.09375 2.5 -2.21875 2.6875 -2.375 C 2.789062 -2.5 2.941406 -2.554688 3.140625 -2.546875 C 3.335938 -2.535156 3.515625 -2.5 3.671875 -2.4375 C 3.828125 -2.382812 3.875 -2.328125 3.8125 -2.265625 C 3.082031 -1.453125 2.582031 -0.722656 2.3125 -0.078125 C 2.050781 0.554688 2.019531 0.945312 2.21875 1.09375 C 2.3125 1.15625 2.476562 1.117188 2.71875 0.984375 C 2.96875 0.859375 3.257812 0.664062 3.59375 0.40625 C 3.9375 0.15625 4.28125 -0.109375 4.625 -0.390625 C 4.96875 -0.671875 5.296875 -0.9375 5.609375 -1.1875 C 5.921875 -1.445312 6.175781 -1.648438 6.375 -1.796875 C 6.570312 -1.953125 6.6875 -2.015625 6.71875 -1.984375 C 6.726562 -1.953125 6.640625 -1.835938 6.453125 -1.640625 C 6.273438 -1.441406 6.035156 -1.195312 5.734375 -0.90625 C 5.441406 -0.613281 5.109375 -0.3125 4.734375 0 C 4.367188 0.3125 4.003906 0.59375 3.640625 0.84375 C 3.273438 1.101562 2.941406 1.296875 2.640625 1.421875 C 2.347656 1.554688 2.109375 1.582031 1.921875 1.5 C 1.660156 1.363281 1.46875 1.160156 1.34375 0.890625 C 1.226562 0.617188 1.285156 0.207031 1.515625 -0.34375 C 1.285156 -0.0390625 1.019531 0.25 0.71875 0.53125 C 0.425781 0.820312 0.128906 1.070312 -0.171875 1.28125 C -0.484375 1.5 -0.773438 1.632812 -1.046875 1.6875 C -1.316406 1.738281 -1.546875 1.675781 -1.734375 1.5 Z M 1.890625 -1.78125 C 1.765625 -1.957031 1.585938 -2.019531 1.359375 -1.96875 C 1.128906 -1.914062 0.875 -1.785156 0.59375 -1.578125 C 0.320312 -1.367188 0.0507812 -1.117188 -0.21875 -0.828125 C -0.488281 -0.535156 -0.722656 -0.242188 -0.921875 0.046875 C -1.117188 0.335938 -1.257812 0.597656 -1.34375 0.828125 C -1.425781 1.066406 -1.421875 1.234375 -1.328125 1.328125 C -1.265625 1.390625 -1.109375 1.363281 -0.859375 1.25 C -0.609375 1.132812 -0.351562 0.960938 -0.09375 0.734375 C 0.195312 0.484375 0.503906 0.179688 0.828125 -0.171875 C 1.160156 -0.535156 1.441406 -0.84375 1.671875 -1.09375 C 1.734375 -1.15625 1.800781 -1.257812 1.875 -1.40625 C 1.945312 -1.550781 1.953125 -1.675781 1.890625 -1.78125 Z M 1.890625 -1.78125 "/></g></g></g><g fill="#000000" fill-opacity="1"><g transform="translate(120.248257, 30.715494)"><g><path d="M -1.90625 1.28125 C -2.082031 1.144531 -2.117188 0.960938 -2.015625 0.734375 C -1.722656 0.191406 -1.394531 -0.328125 -1.03125 -0.828125 C -0.675781 -1.328125 -0.296875 -1.804688 0.109375 -2.265625 C 0.160156 -2.316406 0.210938 -2.359375 0.265625 -2.390625 C 0.328125 -2.429688 0.421875 -2.421875 0.546875 -2.359375 C 0.160156 -1.710938 -0.144531 -1.195312 -0.375 -0.8125 C -0.601562 -0.425781 -0.769531 -0.132812 -0.875 0.0625 C -0.976562 0.257812 -1.039062 0.398438 -1.0625 0.484375 C -0.820312 0.296875 -0.546875 0.0625 -0.234375 -0.21875 C 0.0664062 -0.5 0.378906 -0.796875 0.703125 -1.109375 C 1.035156 -1.421875 1.359375 -1.707031 1.671875 -1.96875 C 1.992188 -2.238281 2.300781 -2.453125 2.59375 -2.609375 C 2.789062 -2.734375 2.972656 -2.742188 3.140625 -2.640625 C 3.316406 -2.546875 3.453125 -2.414062 3.546875 -2.25 C 3.640625 -2.09375 3.671875 -1.960938 3.640625 -1.859375 C 3.628906 -1.734375 3.550781 -1.546875 3.40625 -1.296875 C 3.257812 -1.046875 3.097656 -0.78125 2.921875 -0.5 C 2.742188 -0.226562 2.609375 0.0195312 2.515625 0.25 C 2.421875 0.488281 2.414062 0.65625 2.5 0.75 C 2.582031 0.832031 2.738281 0.816406 2.96875 0.703125 C 3.195312 0.597656 3.46875 0.421875 3.78125 0.171875 C 4.101562 -0.0664062 4.429688 -0.328125 4.765625 -0.609375 C 5.109375 -0.890625 5.421875 -1.148438 5.703125 -1.390625 C 5.992188 -1.640625 6.226562 -1.820312 6.40625 -1.9375 C 6.550781 -2.0625 6.640625 -2.117188 6.671875 -2.109375 C 6.703125 -2.109375 6.707031 -2.082031 6.6875 -2.03125 C 6.675781 -1.988281 6.660156 -1.945312 6.640625 -1.90625 C 6.492188 -1.75 6.273438 -1.535156 5.984375 -1.265625 C 5.691406 -0.992188 5.367188 -0.707031 5.015625 -0.40625 C 4.660156 -0.113281 4.3125 0.160156 3.96875 0.421875 C 3.632812 0.691406 3.347656 0.898438 3.109375 1.046875 C 2.953125 1.140625 2.769531 1.203125 2.5625 1.234375 C 2.351562 1.265625 2.171875 1.210938 2.015625 1.078125 C 1.796875 0.910156 1.679688 0.75 1.671875 0.59375 C 1.671875 0.445312 1.703125 0.28125 1.765625 0.09375 C 1.878906 -0.238281 2.03125 -0.566406 2.21875 -0.890625 C 2.40625 -1.222656 2.570312 -1.503906 2.71875 -1.734375 C 2.863281 -1.972656 2.914062 -2.109375 2.875 -2.140625 C 2.820312 -2.160156 2.671875 -2.078125 2.421875 -1.890625 C 2.171875 -1.710938 1.882812 -1.484375 1.5625 -1.203125 C 1.238281 -0.921875 0.914062 -0.628906 0.59375 -0.328125 C 0.269531 -0.0234375 -0.0078125 0.238281 -0.25 0.46875 C -0.5 0.707031 -0.65625 0.859375 -0.71875 0.921875 C -0.800781 1.003906 -0.882812 1.082031 -0.96875 1.15625 C -1.0625 1.238281 -1.160156 1.316406 -1.265625 1.390625 C -1.378906 1.472656 -1.488281 1.488281 -1.59375 1.4375 C -1.707031 1.394531 -1.8125 1.34375 -1.90625 1.28125 Z M -1.90625 1.28125 "/></g></g></g><g fill="#000000" fill-opacity="1"><g transform="translate(126.728234, 30.715494)"><g><path d="M -1.640625 0.453125 C -1.503906 -0.0859375 -1.269531 -0.597656 -0.9375 -1.078125 C -0.613281 -1.554688 -0.253906 -1.960938 0.140625 -2.296875 C 0.546875 -2.640625 0.929688 -2.851562 1.296875 -2.9375 C 1.523438 -2.976562 1.734375 -2.960938 1.921875 -2.890625 C 2.117188 -2.828125 2.269531 -2.722656 2.375 -2.578125 C 2.476562 -2.429688 2.484375 -2.242188 2.390625 -2.015625 C 2.304688 -1.785156 2.171875 -1.570312 1.984375 -1.375 C 1.796875 -1.175781 1.609375 -1.046875 1.421875 -0.984375 C 1.390625 -0.972656 1.363281 -0.976562 1.34375 -1 C 1.320312 -1.03125 1.316406 -1.0625 1.328125 -1.09375 C 1.453125 -1.238281 1.570312 -1.40625 1.6875 -1.59375 C 1.800781 -1.78125 1.867188 -1.953125 1.890625 -2.109375 C 1.921875 -2.265625 1.878906 -2.363281 1.765625 -2.40625 C 1.671875 -2.457031 1.457031 -2.382812 1.125 -2.1875 C 0.800781 -1.988281 0.453125 -1.675781 0.078125 -1.25 C -0.285156 -0.832031 -0.585938 -0.304688 -0.828125 0.328125 C -1.046875 1.128906 -0.742188 1.425781 0.078125 1.21875 C 1.003906 0.769531 1.816406 0.273438 2.515625 -0.265625 C 3.222656 -0.816406 3.957031 -1.332031 4.71875 -1.8125 C 4.78125 -1.863281 4.84375 -1.910156 4.90625 -1.953125 C 4.96875 -2.003906 5.003906 -2.015625 5.015625 -1.984375 C 5.035156 -1.953125 4.921875 -1.828125 4.671875 -1.609375 C 4.421875 -1.390625 4.09375 -1.117188 3.6875 -0.796875 C 3.289062 -0.484375 2.851562 -0.15625 2.375 0.1875 C 1.894531 0.53125 1.414062 0.835938 0.9375 1.109375 C 0.46875 1.378906 0.046875 1.570312 -0.328125 1.6875 C -0.535156 1.6875 -0.75 1.660156 -0.96875 1.609375 C -1.1875 1.554688 -1.359375 1.4375 -1.484375 1.25 C -1.609375 1.070312 -1.660156 0.804688 -1.640625 0.453125 Z M -1.640625 0.453125 "/></g></g></g><g fill="#000000" fill-opacity="1"><g transform="translate(131.804215, 30.715494)"><g><path d="M 0.09375 1.421875 C -0.894531 1.679688 -1.519531 1.523438 -1.78125 0.953125 C -1.90625 0.679688 -1.9375 0.410156 -1.875 0.140625 C -1.820312 -0.128906 -1.71875 -0.390625 -1.5625 -0.640625 C -1.414062 -0.898438 -1.265625 -1.125 -1.109375 -1.3125 C -0.921875 -1.550781 -0.671875 -1.765625 -0.359375 -1.953125 C -0.046875 -2.140625 0.28125 -2.269531 0.625 -2.34375 C 0.96875 -2.414062 1.265625 -2.390625 1.515625 -2.265625 C 1.753906 -2.171875 1.910156 -2.003906 1.984375 -1.765625 C 2.066406 -1.523438 2.023438 -1.316406 1.859375 -1.140625 C 1.515625 -0.796875 1.113281 -0.523438 0.65625 -0.328125 C 0.207031 -0.128906 -0.203125 -0.0507812 -0.578125 -0.09375 C -0.765625 -0.101562 -0.890625 -0.128906 -0.953125 -0.171875 C -1.015625 -0.210938 -1.054688 -0.203125 -1.078125 -0.140625 C -1.222656 0.242188 -1.226562 0.53125 -1.09375 0.71875 C -0.96875 0.914062 -0.804688 1.015625 -0.609375 1.015625 C -0.304688 1.035156 0.03125 0.972656 0.40625 0.828125 C 0.789062 0.691406 1.191406 0.503906 1.609375 0.265625 C 2.023438 0.0351562 2.421875 -0.203125 2.796875 -0.453125 C 3.171875 -0.710938 3.503906 -0.945312 3.796875 -1.15625 C 4.085938 -1.363281 4.296875 -1.519531 4.421875 -1.625 C 4.597656 -1.75 4.707031 -1.804688 4.75 -1.796875 C 4.800781 -1.796875 4.75 -1.710938 4.59375 -1.546875 C 4.28125 -1.285156 3.890625 -0.957031 3.421875 -0.5625 C 2.953125 -0.164062 2.4375 0.21875 1.875 0.59375 C 1.3125 0.96875 0.71875 1.242188 0.09375 1.421875 Z M 1.078125 -2 C 0.671875 -1.914062 0.296875 -1.734375 -0.046875 -1.453125 C -0.390625 -1.179688 -0.65625 -0.90625 -0.84375 -0.625 C -0.5 -0.507812 -0.117188 -0.53125 0.296875 -0.6875 C 0.710938 -0.851562 1.070312 -1.09375 1.375 -1.40625 C 1.4375 -1.476562 1.503906 -1.570312 1.578125 -1.6875 C 1.648438 -1.8125 1.640625 -1.90625 1.546875 -1.96875 C 1.492188 -2.007812 1.425781 -2.03125 1.34375 -2.03125 C 1.257812 -2.03125 1.171875 -2.019531 1.078125 -2 Z M 1.078125 -2 "/></g></g></g></svg>