<svg xmlns="http://www.w3.org/2000/svg" xmlns:xlink="http://www.w3.org/1999/xlink" width="200" zoomAndPan="magnify" viewBox="0 0 150 60" height="80" preserveAspectRatio="xMidYMid meet" version="1.0"><defs><g/></defs><g fill="#000000" fill-opacity="1"><g transform="translate(19.489201, 32.773753)"><g><path d="M 1.84375 8.03125 C 1.457031 8.070312 1.097656 8.03125 0.765625 7.90625 C 0.429688 7.789062 0.15625 7.550781 -0.0625 7.1875 C -0.21875 6.90625 -0.28125 6.628906 -0.25 6.359375 C -0.21875 6.085938 -0.132812 5.832031 0 5.59375 C 0.144531 5.351562 0.304688 5.160156 0.484375 5.015625 C 0.660156 4.867188 0.796875 4.78125 0.890625 4.75 C 1.128906 4.726562 1.296875 4.742188 1.390625 4.796875 C 1.484375 4.859375 1.492188 4.929688 1.421875 5.015625 C 1.003906 5.460938 0.769531 5.890625 0.71875 6.296875 C 0.675781 6.710938 0.765625 7.039062 0.984375 7.28125 C 1.203125 7.519531 1.492188 7.613281 1.859375 7.5625 C 2.796875 7.457031 3.800781 7.15625 4.875 6.65625 C 5.945312 6.15625 7.054688 5.503906 8.203125 4.703125 C 9.347656 3.910156 10.5 3.019531 11.65625 2.03125 C 12.8125 1.039062 13.945312 0 15.0625 -1.09375 C 13.957031 -0.757812 12.921875 -0.488281 11.953125 -0.28125 C 10.992188 -0.0820312 10.175781 0.0078125 9.5 0 C 9.257812 0 9 -0.0234375 8.71875 -0.078125 C 8.4375 -0.128906 8.238281 -0.234375 8.125 -0.390625 C 8.101562 -0.429688 8.09375 -0.472656 8.09375 -0.515625 C 8.101562 -0.554688 8.113281 -0.566406 8.125 -0.546875 C 8.257812 -0.378906 8.46875 -0.273438 8.75 -0.234375 C 9.03125 -0.203125 9.28125 -0.191406 9.5 -0.203125 C 10.238281 -0.242188 11.148438 -0.410156 12.234375 -0.703125 C 13.328125 -1.003906 14.503906 -1.367188 15.765625 -1.796875 C 16.898438 -2.921875 17.972656 -4.046875 18.984375 -5.171875 C 20.003906 -6.304688 20.9375 -7.390625 21.78125 -8.421875 C 22.632812 -9.453125 23.363281 -10.378906 23.96875 -11.203125 C 24.582031 -12.023438 25.039062 -12.691406 25.34375 -13.203125 C 25.65625 -13.710938 25.78125 -14.007812 25.71875 -14.09375 C 25.6875 -14.144531 25.4375 -14.125 24.96875 -14.03125 C 24.507812 -13.9375 23.894531 -13.78125 23.125 -13.5625 C 22.363281 -13.351562 21.488281 -13.082031 20.5 -12.75 C 19.519531 -12.425781 18.488281 -12.054688 17.40625 -11.640625 C 16.320312 -11.222656 15.238281 -10.769531 14.15625 -10.28125 C 13.082031 -9.789062 12.054688 -9.269531 11.078125 -8.71875 C 10.109375 -8.175781 9.238281 -7.609375 8.46875 -7.015625 C 7.695312 -6.421875 7.085938 -5.816406 6.640625 -5.203125 C 6.335938 -4.804688 6.210938 -4.46875 6.265625 -4.1875 C 6.316406 -3.914062 6.476562 -3.703125 6.75 -3.546875 C 7.019531 -3.390625 7.359375 -3.289062 7.765625 -3.25 C 8.179688 -3.21875 8.613281 -3.238281 9.0625 -3.3125 C 9.507812 -3.394531 9.910156 -3.519531 10.265625 -3.6875 C 10.453125 -3.789062 10.617188 -3.800781 10.765625 -3.71875 C 10.921875 -3.644531 10.929688 -3.554688 10.796875 -3.453125 C 10.679688 -3.378906 10.472656 -3.285156 10.171875 -3.171875 C 9.878906 -3.066406 9.53125 -2.976562 9.125 -2.90625 C 8.71875 -2.832031 8.300781 -2.804688 7.875 -2.828125 C 7.445312 -2.859375 7.046875 -2.972656 6.671875 -3.171875 C 6.191406 -3.398438 5.925781 -3.742188 5.875 -4.203125 C 5.820312 -4.660156 5.929688 -5.117188 6.203125 -5.578125 C 6.566406 -6.179688 7.09375 -6.78125 7.78125 -7.375 C 8.476562 -7.976562 9.296875 -8.554688 10.234375 -9.109375 C 11.179688 -9.671875 12.191406 -10.207031 13.265625 -10.71875 C 14.347656 -11.238281 15.457031 -11.722656 16.59375 -12.171875 C 17.738281 -12.617188 18.859375 -13.019531 19.953125 -13.375 C 21.054688 -13.726562 22.09375 -14.023438 23.0625 -14.265625 C 24.039062 -14.503906 24.90625 -14.679688 25.65625 -14.796875 C 26.726562 -14.960938 27.535156 -14.914062 28.078125 -14.65625 C 28.628906 -14.40625 28.957031 -13.988281 29.0625 -13.40625 C 29.175781 -12.820312 29.109375 -12.113281 28.859375 -11.28125 C 28.617188 -10.457031 28.242188 -9.550781 27.734375 -8.5625 C 27.234375 -7.570312 26.65625 -6.554688 26 -5.515625 C 25.988281 -5.484375 25.992188 -5.445312 26.015625 -5.40625 C 26.046875 -5.363281 26.078125 -5.351562 26.109375 -5.375 C 26.273438 -5.414062 26.421875 -5.453125 26.546875 -5.484375 C 26.671875 -5.515625 26.8125 -5.554688 26.96875 -5.609375 C 27.21875 -5.679688 27.46875 -5.75 27.71875 -5.8125 C 27.976562 -5.875 28.234375 -5.929688 28.484375 -5.984375 C 28.734375 -6.035156 29.023438 -6.070312 29.359375 -6.09375 C 29.703125 -6.113281 30.015625 -6.085938 30.296875 -6.015625 C 30.585938 -5.953125 30.765625 -5.804688 30.828125 -5.578125 C 30.867188 -5.398438 30.859375 -5.25 30.796875 -5.125 C 30.753906 -5.007812 30.707031 -4.921875 30.65625 -4.859375 C 30.644531 -4.835938 30.613281 -4.816406 30.5625 -4.796875 C 30.507812 -4.773438 30.488281 -4.785156 30.5 -4.828125 C 30.625 -5.203125 30.609375 -5.441406 30.453125 -5.546875 C 30.304688 -5.648438 30.066406 -5.679688 29.734375 -5.640625 C 29.410156 -5.609375 29.03125 -5.550781 28.59375 -5.46875 C 28.132812 -5.375 27.671875 -5.257812 27.203125 -5.125 C 26.734375 -4.988281 26.171875 -4.816406 25.515625 -4.609375 C 25.492188 -4.609375 25.46875 -4.585938 25.4375 -4.546875 C 25.332031 -4.390625 25.132812 -4.113281 24.84375 -3.71875 C 24.5625 -3.320312 24.210938 -2.847656 23.796875 -2.296875 C 23.390625 -1.753906 22.953125 -1.179688 22.484375 -0.578125 C 22.023438 0.0234375 21.5625 0.628906 21.09375 1.234375 C 20.625 1.835938 20.179688 2.394531 19.765625 2.90625 C 19.359375 3.414062 19.007812 3.84375 18.71875 4.1875 C 18.425781 4.53125 18.226562 4.738281 18.125 4.8125 C 17.925781 5.007812 17.6875 5.160156 17.40625 5.265625 C 17.125 5.367188 16.894531 5.414062 16.71875 5.40625 C 16.539062 5.40625 16.503906 5.347656 16.609375 5.234375 C 17.078125 4.710938 17.707031 4 18.5 3.09375 C 19.300781 2.1875 20.1875 1.128906 21.15625 -0.078125 C 22.125 -1.296875 23.097656 -2.601562 24.078125 -4 C 24.097656 -4.03125 24.097656 -4.054688 24.078125 -4.078125 C 24.054688 -4.109375 24.035156 -4.113281 24.015625 -4.09375 C 22.828125 -3.695312 21.570312 -3.265625 20.25 -2.796875 C 18.9375 -2.335938 17.65625 -1.910156 16.40625 -1.515625 C 15.195312 -0.316406 13.957031 0.828125 12.6875 1.921875 C 11.414062 3.015625 10.144531 4 8.875 4.875 C 7.601562 5.757812 6.375 6.484375 5.1875 7.046875 C 4 7.609375 2.882812 7.9375 1.84375 8.03125 Z M 26.59375 -14 C 26.550781 -13.757812 26.359375 -13.363281 26.015625 -12.8125 C 25.671875 -12.269531 25.207031 -11.609375 24.625 -10.828125 C 24.050781 -10.054688 23.378906 -9.203125 22.609375 -8.265625 C 21.835938 -7.335938 20.992188 -6.363281 20.078125 -5.34375 C 19.160156 -4.332031 18.191406 -3.3125 17.171875 -2.28125 C 18.410156 -2.707031 19.664062 -3.148438 20.9375 -3.609375 C 22.21875 -4.078125 23.441406 -4.503906 24.609375 -4.890625 C 24.671875 -4.910156 24.71875 -4.945312 24.75 -5 C 25.4375 -6 26.050781 -6.972656 26.59375 -7.921875 C 27.144531 -8.867188 27.585938 -9.738281 27.921875 -10.53125 C 28.253906 -11.320312 28.453125 -12.007812 28.515625 -12.59375 C 28.585938 -13.1875 28.492188 -13.628906 28.234375 -13.921875 C 27.972656 -14.210938 27.507812 -14.316406 26.84375 -14.234375 C 26.707031 -14.210938 26.625 -14.132812 26.59375 -14 Z M 26.59375 -14 "/></g></g></g><g fill="#000000" fill-opacity="1"><g transform="translate(46.268286, 32.773753)"><g><path d="M -1.703125 0.46875 C -1.554688 -0.09375 -1.3125 -0.617188 -0.96875 -1.109375 C -0.632812 -1.609375 -0.257812 -2.03125 0.15625 -2.375 C 0.570312 -2.726562 0.96875 -2.945312 1.34375 -3.03125 C 1.582031 -3.082031 1.800781 -3.070312 2 -3 C 2.195312 -2.925781 2.347656 -2.816406 2.453125 -2.671875 C 2.566406 -2.515625 2.578125 -2.316406 2.484375 -2.078125 C 2.390625 -1.847656 2.242188 -1.628906 2.046875 -1.421875 C 1.859375 -1.222656 1.664062 -1.09375 1.46875 -1.03125 C 1.4375 -1.007812 1.410156 -1.007812 1.390625 -1.03125 C 1.367188 -1.0625 1.363281 -1.097656 1.375 -1.140625 C 1.5 -1.285156 1.617188 -1.453125 1.734375 -1.640625 C 1.859375 -1.835938 1.9375 -2.015625 1.96875 -2.171875 C 2 -2.335938 1.953125 -2.445312 1.828125 -2.5 C 1.722656 -2.550781 1.503906 -2.472656 1.171875 -2.265625 C 0.835938 -2.054688 0.476562 -1.734375 0.09375 -1.296875 C -0.289062 -0.867188 -0.609375 -0.328125 -0.859375 0.328125 C -1.078125 1.160156 -0.765625 1.472656 0.078125 1.265625 C 1.046875 0.796875 1.890625 0.28125 2.609375 -0.28125 C 3.335938 -0.851562 4.097656 -1.382812 4.890625 -1.875 C 4.953125 -1.925781 5.015625 -1.976562 5.078125 -2.03125 C 5.148438 -2.082031 5.191406 -2.085938 5.203125 -2.046875 C 5.210938 -2.023438 5.085938 -1.898438 4.828125 -1.671875 C 4.578125 -1.441406 4.242188 -1.160156 3.828125 -0.828125 C 3.410156 -0.492188 2.953125 -0.148438 2.453125 0.203125 C 1.960938 0.554688 1.472656 0.867188 0.984375 1.140625 C 0.492188 1.421875 0.0546875 1.625 -0.328125 1.75 C -0.554688 1.75 -0.78125 1.71875 -1 1.65625 C -1.226562 1.601562 -1.40625 1.484375 -1.53125 1.296875 C -1.664062 1.117188 -1.722656 0.84375 -1.703125 0.46875 Z M -1.703125 0.46875 "/></g></g></g><g fill="#000000" fill-opacity="1"><g transform="translate(51.337134, 32.773753)"><g><path d="M -1.703125 0.46875 C -1.554688 -0.09375 -1.3125 -0.617188 -0.96875 -1.109375 C -0.632812 -1.609375 -0.257812 -2.03125 0.15625 -2.375 C 0.570312 -2.726562 0.96875 -2.945312 1.34375 -3.03125 C 1.582031 -3.082031 1.800781 -3.070312 2 -3 C 2.195312 -2.925781 2.347656 -2.816406 2.453125 -2.671875 C 2.566406 -2.515625 2.578125 -2.316406 2.484375 -2.078125 C 2.390625 -1.847656 2.242188 -1.628906 2.046875 -1.421875 C 1.859375 -1.222656 1.664062 -1.09375 1.46875 -1.03125 C 1.4375 -1.007812 1.410156 -1.007812 1.390625 -1.03125 C 1.367188 -1.0625 1.363281 -1.097656 1.375 -1.140625 C 1.5 -1.285156 1.617188 -1.453125 1.734375 -1.640625 C 1.859375 -1.835938 1.9375 -2.015625 1.96875 -2.171875 C 2 -2.335938 1.953125 -2.445312 1.828125 -2.5 C 1.722656 -2.550781 1.503906 -2.472656 1.171875 -2.265625 C 0.835938 -2.054688 0.476562 -1.734375 0.09375 -1.296875 C -0.289062 -0.867188 -0.609375 -0.328125 -0.859375 0.328125 C -1.078125 1.160156 -0.765625 1.472656 0.078125 1.265625 C 1.046875 0.796875 1.890625 0.28125 2.609375 -0.28125 C 3.335938 -0.851562 4.097656 -1.382812 4.890625 -1.875 C 4.953125 -1.925781 5.015625 -1.976562 5.078125 -2.03125 C 5.148438 -2.082031 5.191406 -2.085938 5.203125 -2.046875 C 5.210938 -2.023438 5.085938 -1.898438 4.828125 -1.671875 C 4.578125 -1.441406 4.242188 -1.160156 3.828125 -0.828125 C 3.410156 -0.492188 2.953125 -0.148438 2.453125 0.203125 C 1.960938 0.554688 1.472656 0.867188 0.984375 1.140625 C 0.492188 1.421875 0.0546875 1.625 -0.328125 1.75 C -0.554688 1.75 -0.78125 1.71875 -1 1.65625 C -1.226562 1.601562 -1.40625 1.484375 -1.53125 1.296875 C -1.664062 1.117188 -1.722656 0.84375 -1.703125 0.46875 Z M -1.703125 0.46875 "/></g></g></g><g fill="#000000" fill-opacity="1"><g transform="translate(56.59235, 32.773753)"><g><path d="M 0.09375 1.46875 C -0.925781 1.738281 -1.570312 1.578125 -1.84375 0.984375 C -1.96875 0.703125 -2 0.421875 -1.9375 0.140625 C -1.882812 -0.140625 -1.78125 -0.410156 -1.625 -0.671875 C -1.46875 -0.929688 -1.3125 -1.160156 -1.15625 -1.359375 C -0.957031 -1.609375 -0.695312 -1.828125 -0.375 -2.015625 C -0.0507812 -2.210938 0.285156 -2.347656 0.640625 -2.421875 C 0.992188 -2.492188 1.300781 -2.46875 1.5625 -2.34375 C 1.8125 -2.25 1.976562 -2.078125 2.0625 -1.828125 C 2.144531 -1.578125 2.097656 -1.359375 1.921875 -1.171875 C 1.566406 -0.828125 1.15625 -0.550781 0.6875 -0.34375 C 0.21875 -0.132812 -0.207031 -0.0507812 -0.59375 -0.09375 C -0.789062 -0.101562 -0.921875 -0.128906 -0.984375 -0.171875 C -1.046875 -0.222656 -1.09375 -0.21875 -1.125 -0.15625 C -1.269531 0.25 -1.273438 0.550781 -1.140625 0.75 C -1.003906 0.945312 -0.835938 1.046875 -0.640625 1.046875 C -0.328125 1.066406 0.0234375 1.003906 0.421875 0.859375 C 0.828125 0.722656 1.242188 0.53125 1.671875 0.28125 C 2.097656 0.0390625 2.503906 -0.207031 2.890625 -0.46875 C 3.285156 -0.738281 3.628906 -0.984375 3.921875 -1.203125 C 4.222656 -1.421875 4.441406 -1.578125 4.578125 -1.671875 C 4.753906 -1.804688 4.867188 -1.867188 4.921875 -1.859375 C 4.972656 -1.859375 4.914062 -1.773438 4.75 -1.609375 C 4.425781 -1.328125 4.019531 -0.984375 3.53125 -0.578125 C 3.050781 -0.171875 2.519531 0.222656 1.9375 0.609375 C 1.351562 0.992188 0.738281 1.28125 0.09375 1.46875 Z M 1.125 -2.0625 C 0.695312 -1.976562 0.304688 -1.789062 -0.046875 -1.5 C -0.398438 -1.21875 -0.675781 -0.9375 -0.875 -0.65625 C -0.507812 -0.53125 -0.113281 -0.550781 0.3125 -0.71875 C 0.738281 -0.882812 1.109375 -1.128906 1.421875 -1.453125 C 1.492188 -1.523438 1.566406 -1.625 1.640625 -1.75 C 1.710938 -1.875 1.703125 -1.96875 1.609375 -2.03125 C 1.554688 -2.082031 1.484375 -2.109375 1.390625 -2.109375 C 1.304688 -2.109375 1.21875 -2.09375 1.125 -2.0625 Z M 1.125 -2.0625 "/></g></g></g><g fill="#000000" fill-opacity="1"><g transform="translate(61.381651, 32.773753)"><g><path d="M -4.9375 5.109375 C -4.757812 4.671875 -4.382812 4.179688 -3.8125 3.640625 C -3.25 3.097656 -2.566406 2.546875 -1.765625 1.984375 C -0.960938 1.421875 -0.125 0.882812 0.75 0.375 C 0.53125 0.0390625 0.304688 -0.296875 0.078125 -0.640625 C -0.148438 -0.984375 -0.238281 -1.351562 -0.1875 -1.75 C -0.125 -2.195312 0.0195312 -2.5625 0.25 -2.84375 C 0.488281 -3.125 0.757812 -3.34375 1.0625 -3.5 C 1.375 -3.65625 1.660156 -3.765625 1.921875 -3.828125 C 2.191406 -3.890625 2.390625 -3.921875 2.515625 -3.921875 C 2.648438 -3.929688 2.65625 -3.929688 2.53125 -3.921875 C 2.914062 -3.953125 3.210938 -3.882812 3.421875 -3.71875 C 3.628906 -3.550781 3.703125 -3.3125 3.640625 -3 C 3.585938 -2.695312 3.347656 -2.34375 2.921875 -1.9375 C 2.859375 -1.882812 2.765625 -1.828125 2.640625 -1.765625 C 2.515625 -1.703125 2.425781 -1.691406 2.375 -1.734375 C 2.320312 -1.773438 2.332031 -1.832031 2.40625 -1.90625 C 2.59375 -2.113281 2.765625 -2.328125 2.921875 -2.546875 C 3.085938 -2.773438 3.171875 -2.96875 3.171875 -3.125 C 3.179688 -3.289062 3.050781 -3.378906 2.78125 -3.390625 C 2.46875 -3.390625 2.140625 -3.320312 1.796875 -3.1875 C 1.453125 -3.0625 1.160156 -2.875 0.921875 -2.625 C 0.679688 -2.375 0.546875 -2.070312 0.515625 -1.71875 C 0.492188 -1.425781 0.585938 -1.144531 0.796875 -0.875 C 1.015625 -0.601562 1.226562 -0.316406 1.4375 -0.015625 C 2.113281 -0.398438 2.769531 -0.738281 3.40625 -1.03125 C 4.039062 -1.332031 4.613281 -1.578125 5.125 -1.765625 C 5.632812 -1.960938 6.046875 -2.082031 6.359375 -2.125 C 6.492188 -2.132812 6.5625 -2.117188 6.5625 -2.078125 C 6.570312 -2.046875 6.582031 -2.035156 6.59375 -2.046875 C 6.269531 -1.992188 5.847656 -1.859375 5.328125 -1.640625 C 4.804688 -1.421875 4.226562 -1.144531 3.59375 -0.8125 C 2.957031 -0.476562 2.304688 -0.113281 1.640625 0.28125 C 1.796875 0.53125 1.910156 0.800781 1.984375 1.09375 C 2.054688 1.394531 2.019531 1.726562 1.875 2.09375 C 1.738281 2.5 1.5 2.910156 1.15625 3.328125 C 0.820312 3.742188 0.425781 4.132812 -0.03125 4.5 C -0.5 4.875 -0.984375 5.203125 -1.484375 5.484375 C -1.984375 5.765625 -2.46875 5.976562 -2.9375 6.125 C -3.40625 6.269531 -3.816406 6.316406 -4.171875 6.265625 C -4.273438 6.253906 -4.410156 6.21875 -4.578125 6.15625 C -4.742188 6.09375 -4.875 5.976562 -4.96875 5.8125 C -5.0625 5.644531 -5.050781 5.410156 -4.9375 5.109375 Z M 0.9375 0.703125 C 0.175781 1.179688 -0.554688 1.671875 -1.265625 2.171875 C -1.972656 2.679688 -2.585938 3.171875 -3.109375 3.640625 C -3.628906 4.117188 -4.007812 4.539062 -4.25 4.90625 C -4.351562 5.0625 -4.4375 5.253906 -4.5 5.484375 C -4.570312 5.710938 -4.507812 5.847656 -4.3125 5.890625 C -4.101562 5.929688 -3.800781 5.859375 -3.40625 5.671875 C -3.007812 5.492188 -2.570312 5.242188 -2.09375 4.921875 C -1.625 4.609375 -1.164062 4.257812 -0.71875 3.875 C -0.28125 3.5 0.101562 3.128906 0.4375 2.765625 C 0.769531 2.398438 0.976562 2.082031 1.0625 1.8125 C 1.125 1.613281 1.140625 1.421875 1.109375 1.234375 C 1.085938 1.054688 1.03125 0.878906 0.9375 0.703125 Z M 0.9375 0.703125 "/></g></g></g><g fill="#000000" fill-opacity="1"><g transform="translate(67.643149, 32.773753)"><g><path d="M -4.9375 5.109375 C -4.757812 4.671875 -4.382812 4.179688 -3.8125 3.640625 C -3.25 3.097656 -2.566406 2.546875 -1.765625 1.984375 C -0.960938 1.421875 -0.125 0.882812 0.75 0.375 C 0.53125 0.0390625 0.304688 -0.296875 0.078125 -0.640625 C -0.148438 -0.984375 -0.238281 -1.351562 -0.1875 -1.75 C -0.125 -2.195312 0.0195312 -2.5625 0.25 -2.84375 C 0.488281 -3.125 0.757812 -3.34375 1.0625 -3.5 C 1.375 -3.65625 1.660156 -3.765625 1.921875 -3.828125 C 2.191406 -3.890625 2.390625 -3.921875 2.515625 -3.921875 C 2.648438 -3.929688 2.65625 -3.929688 2.53125 -3.921875 C 2.914062 -3.953125 3.210938 -3.882812 3.421875 -3.71875 C 3.628906 -3.550781 3.703125 -3.3125 3.640625 -3 C 3.585938 -2.695312 3.347656 -2.34375 2.921875 -1.9375 C 2.859375 -1.882812 2.765625 -1.828125 2.640625 -1.765625 C 2.515625 -1.703125 2.425781 -1.691406 2.375 -1.734375 C 2.320312 -1.773438 2.332031 -1.832031 2.40625 -1.90625 C 2.59375 -2.113281 2.765625 -2.328125 2.921875 -2.546875 C 3.085938 -2.773438 3.171875 -2.96875 3.171875 -3.125 C 3.179688 -3.289062 3.050781 -3.378906 2.78125 -3.390625 C 2.46875 -3.390625 2.140625 -3.320312 1.796875 -3.1875 C 1.453125 -3.0625 1.160156 -2.875 0.921875 -2.625 C 0.679688 -2.375 0.546875 -2.070312 0.515625 -1.71875 C 0.492188 -1.425781 0.585938 -1.144531 0.796875 -0.875 C 1.015625 -0.601562 1.226562 -0.316406 1.4375 -0.015625 C 2.113281 -0.398438 2.769531 -0.738281 3.40625 -1.03125 C 4.039062 -1.332031 4.613281 -1.578125 5.125 -1.765625 C 5.632812 -1.960938 6.046875 -2.082031 6.359375 -2.125 C 6.492188 -2.132812 6.5625 -2.117188 6.5625 -2.078125 C 6.570312 -2.046875 6.582031 -2.035156 6.59375 -2.046875 C 6.269531 -1.992188 5.847656 -1.859375 5.328125 -1.640625 C 4.804688 -1.421875 4.226562 -1.144531 3.59375 -0.8125 C 2.957031 -0.476562 2.304688 -0.113281 1.640625 0.28125 C 1.796875 0.53125 1.910156 0.800781 1.984375 1.09375 C 2.054688 1.394531 2.019531 1.726562 1.875 2.09375 C 1.738281 2.5 1.5 2.910156 1.15625 3.328125 C 0.820312 3.742188 0.425781 4.132812 -0.03125 4.5 C -0.5 4.875 -0.984375 5.203125 -1.484375 5.484375 C -1.984375 5.765625 -2.46875 5.976562 -2.9375 6.125 C -3.40625 6.269531 -3.816406 6.316406 -4.171875 6.265625 C -4.273438 6.253906 -4.410156 6.21875 -4.578125 6.15625 C -4.742188 6.09375 -4.875 5.976562 -4.96875 5.8125 C -5.0625 5.644531 -5.050781 5.410156 -4.9375 5.109375 Z M 0.9375 0.703125 C 0.175781 1.179688 -0.554688 1.671875 -1.265625 2.171875 C -1.972656 2.679688 -2.585938 3.171875 -3.109375 3.640625 C -3.628906 4.117188 -4.007812 4.539062 -4.25 4.90625 C -4.351562 5.0625 -4.4375 5.253906 -4.5 5.484375 C -4.570312 5.710938 -4.507812 5.847656 -4.3125 5.890625 C -4.101562 5.929688 -3.800781 5.859375 -3.40625 5.671875 C -3.007812 5.492188 -2.570312 5.242188 -2.09375 4.921875 C -1.625 4.609375 -1.164062 4.257812 -0.71875 3.875 C -0.28125 3.5 0.101562 3.128906 0.4375 2.765625 C 0.769531 2.398438 0.976562 2.082031 1.0625 1.8125 C 1.125 1.613281 1.140625 1.421875 1.109375 1.234375 C 1.085938 1.054688 1.03125 0.878906 0.9375 0.703125 Z M 0.9375 0.703125 "/></g></g></g><g fill="#000000" fill-opacity="1"><g transform="translate(73.718277, 32.773753)"><g><path d="M -0.640625 1.765625 C -0.941406 1.609375 -1.128906 1.382812 -1.203125 1.09375 C -1.285156 0.8125 -1.28125 0.5 -1.1875 0.15625 C -1.09375 -0.1875 -0.957031 -0.519531 -0.78125 -0.84375 C -0.601562 -1.175781 -0.425781 -1.46875 -0.25 -1.71875 C -0.0703125 -1.976562 0.0664062 -2.148438 0.171875 -2.234375 C 0.265625 -2.359375 0.414062 -2.421875 0.625 -2.421875 C 0.84375 -2.421875 1.03125 -2.390625 1.1875 -2.328125 C 1.351562 -2.265625 1.40625 -2.203125 1.34375 -2.140625 C 0.570312 -1.285156 0.0546875 -0.523438 -0.203125 0.140625 C -0.472656 0.804688 -0.507812 1.207031 -0.3125 1.34375 C -0.21875 1.40625 -0.046875 1.367188 0.203125 1.234375 C 0.460938 1.097656 0.765625 0.898438 1.109375 0.640625 C 1.453125 0.390625 1.800781 0.113281 2.15625 -0.1875 C 2.519531 -0.488281 2.863281 -0.769531 3.1875 -1.03125 C 3.507812 -1.289062 3.769531 -1.492188 3.96875 -1.640625 C 4.175781 -1.796875 4.296875 -1.859375 4.328125 -1.828125 C 4.335938 -1.816406 4.25 -1.707031 4.0625 -1.5 C 3.882812 -1.289062 3.640625 -1.035156 3.328125 -0.734375 C 3.015625 -0.429688 2.671875 -0.117188 2.296875 0.203125 C 1.921875 0.535156 1.539062 0.835938 1.15625 1.109375 C 0.78125 1.378906 0.429688 1.578125 0.109375 1.703125 C -0.203125 1.835938 -0.453125 1.859375 -0.640625 1.765625 Z M 0.90625 -3.1875 C 0.9375 -3.25 1.03125 -3.3125 1.1875 -3.375 C 1.351562 -3.445312 1.4375 -3.484375 1.4375 -3.484375 C 1.4375 -3.484375 1.5 -3.492188 1.625 -3.515625 C 1.757812 -3.535156 1.910156 -3.550781 2.078125 -3.5625 C 2.242188 -3.570312 2.390625 -3.550781 2.515625 -3.5 C 2.597656 -3.46875 2.601562 -3.429688 2.53125 -3.390625 C 2.46875 -3.359375 2.367188 -3.320312 2.234375 -3.28125 C 2.109375 -3.238281 1.988281 -3.207031 1.875 -3.1875 C 1.769531 -3.164062 1.71875 -3.15625 1.71875 -3.15625 C 1.71875 -3.15625 1.644531 -3.140625 1.5 -3.109375 C 1.351562 -3.085938 1.210938 -3.078125 1.078125 -3.078125 C 0.953125 -3.085938 0.894531 -3.125 0.90625 -3.1875 Z M 0.90625 -3.1875 "/></g></g></g><g fill="#000000" fill-opacity="1"><g transform="translate(78.097615, 32.773753)"><g><path d="M -1.0625 3.4375 C -1.425781 3.226562 -1.609375 2.832031 -1.609375 2.25 C -1.609375 1.675781 -1.457031 0.96875 -1.15625 0.125 C -0.851562 -0.707031 -0.441406 -1.609375 0.078125 -2.578125 C 0.597656 -3.554688 1.207031 -4.550781 1.90625 -5.5625 C 2.613281 -6.570312 3.367188 -7.539062 4.171875 -8.46875 C 4.984375 -9.40625 5.8125 -10.242188 6.65625 -10.984375 C 7.507812 -11.722656 8.359375 -12.304688 9.203125 -12.734375 C 10.046875 -13.171875 10.847656 -13.390625 11.609375 -13.390625 C 11.941406 -13.390625 12.234375 -13.296875 12.484375 -13.109375 C 12.734375 -12.921875 12.890625 -12.65625 12.953125 -12.3125 C 13.023438 -11.96875 12.96875 -11.546875 12.78125 -11.046875 C 12.539062 -10.304688 12.109375 -9.582031 11.484375 -8.875 C 10.867188 -8.164062 10.148438 -7.488281 9.328125 -6.84375 C 8.515625 -6.195312 7.660156 -5.585938 6.765625 -5.015625 C 5.867188 -4.453125 4.992188 -3.941406 4.140625 -3.484375 C 3.296875 -3.023438 2.539062 -2.628906 1.875 -2.296875 C 1.21875 -1.972656 0.722656 -1.71875 0.390625 -1.53125 C 0.296875 -1.351562 0.164062 -1.070312 0 -0.6875 C -0.164062 -0.300781 -0.328125 0.113281 -0.484375 0.5625 C -0.648438 1.007812 -0.78125 1.429688 -0.875 1.828125 C -0.976562 2.234375 -1.015625 2.554688 -0.984375 2.796875 C -0.960938 3.046875 -0.851562 3.144531 -0.65625 3.09375 C -0.5625 3.070312 -0.429688 2.921875 -0.265625 2.640625 C -0.0976562 2.359375 0.113281 2.003906 0.375 1.578125 C 0.632812 1.148438 0.9375 0.695312 1.28125 0.21875 C 1.632812 -0.25 2.023438 -0.6875 2.453125 -1.09375 C 2.878906 -1.507812 3.347656 -1.835938 3.859375 -2.078125 C 4.367188 -2.316406 4.921875 -2.421875 5.515625 -2.390625 C 5.679688 -2.378906 5.832031 -2.304688 5.96875 -2.171875 C 6.113281 -2.035156 6.175781 -1.820312 6.15625 -1.53125 C 6.132812 -1.269531 6.050781 -0.992188 5.90625 -0.703125 C 5.769531 -0.421875 5.609375 -0.15625 5.421875 0.09375 C 5.234375 0.34375 5.066406 0.53125 4.921875 0.65625 C 5.460938 0.476562 6.050781 0.191406 6.6875 -0.203125 C 7.332031 -0.597656 8.035156 -1.203125 8.796875 -2.015625 C 8.878906 -2.078125 8.960938 -2.09375 9.046875 -2.0625 C 9.140625 -2.03125 9.15625 -1.984375 9.09375 -1.921875 C 8.375 -1.210938 7.742188 -0.664062 7.203125 -0.28125 C 6.660156 0.101562 6.175781 0.390625 5.75 0.578125 C 5.320312 0.773438 4.914062 0.941406 4.53125 1.078125 C 4.175781 1.441406 3.800781 1.757812 3.40625 2.03125 C 3.007812 2.3125 2.617188 2.523438 2.234375 2.671875 C 2.148438 2.691406 2.0625 2.710938 1.96875 2.734375 C 1.875 2.765625 1.769531 2.773438 1.65625 2.765625 C 1.394531 2.734375 1.21875 2.628906 1.125 2.453125 C 1.03125 2.285156 1.046875 2.09375 1.171875 1.875 C 1.222656 1.789062 1.289062 1.71875 1.375 1.65625 C 1.6875 1.382812 2.035156 1.21875 2.421875 1.15625 C 2.804688 1.09375 3.234375 1.019531 3.703125 0.9375 C 3.867188 0.757812 4.050781 0.523438 4.25 0.234375 C 4.457031 -0.046875 4.640625 -0.332031 4.796875 -0.625 C 4.960938 -0.914062 5.070312 -1.160156 5.125 -1.359375 C 5.1875 -1.566406 5.144531 -1.6875 5 -1.71875 C 4.738281 -1.75 4.429688 -1.679688 4.078125 -1.515625 C 3.734375 -1.347656 3.375 -1.113281 3 -0.8125 C 2.632812 -0.507812 2.28125 -0.171875 1.9375 0.203125 C 1.59375 0.578125 1.28125 0.945312 1 1.3125 C 0.726562 1.675781 0.523438 2.003906 0.390625 2.296875 C 0.191406 2.691406 0 2.972656 -0.1875 3.140625 C -0.382812 3.316406 -0.5625 3.414062 -0.71875 3.4375 C -0.875 3.46875 -0.988281 3.46875 -1.0625 3.4375 Z M 1.703125 2.25 C 1.910156 2.25 2.15625 2.160156 2.4375 1.984375 C 2.71875 1.816406 2.972656 1.632812 3.203125 1.4375 C 2.804688 1.507812 2.472656 1.582031 2.203125 1.65625 C 1.929688 1.726562 1.722656 1.890625 1.578125 2.140625 C 1.554688 2.191406 1.546875 2.222656 1.546875 2.234375 C 1.554688 2.234375 1.5625 2.234375 1.5625 2.234375 C 1.570312 2.234375 1.585938 2.234375 1.609375 2.234375 C 1.640625 2.242188 1.671875 2.25 1.703125 2.25 Z M 11.3125 -13.03125 C 10.707031 -12.957031 10.03125 -12.671875 9.28125 -12.171875 C 8.539062 -11.679688 7.769531 -11.050781 6.96875 -10.28125 C 6.164062 -9.519531 5.367188 -8.675781 4.578125 -7.75 C 3.796875 -6.820312 3.066406 -5.867188 2.390625 -4.890625 C 1.710938 -3.921875 1.128906 -2.992188 0.640625 -2.109375 C 0.910156 -2.234375 1.316406 -2.429688 1.859375 -2.703125 C 2.398438 -2.984375 3.015625 -3.320312 3.703125 -3.71875 C 4.398438 -4.125 5.128906 -4.566406 5.890625 -5.046875 C 6.660156 -5.535156 7.410156 -6.050781 8.140625 -6.59375 C 8.878906 -7.144531 9.554688 -7.707031 10.171875 -8.28125 C 10.796875 -8.851562 11.3125 -9.425781 11.71875 -10 C 12.132812 -10.582031 12.390625 -11.144531 12.484375 -11.6875 C 12.609375 -12.289062 12.554688 -12.679688 12.328125 -12.859375 C 12.097656 -13.035156 11.757812 -13.09375 11.3125 -13.03125 Z M 11.3125 -13.03125 "/></g></g></g><g fill="#000000" fill-opacity="1"><g transform="translate(86.818984, 32.773753)"><g><path d="M -0.640625 1.765625 C -0.941406 1.609375 -1.128906 1.382812 -1.203125 1.09375 C -1.285156 0.8125 -1.28125 0.5 -1.1875 0.15625 C -1.09375 -0.1875 -0.957031 -0.519531 -0.78125 -0.84375 C -0.601562 -1.175781 -0.425781 -1.46875 -0.25 -1.71875 C -0.0703125 -1.976562 0.0664062 -2.148438 0.171875 -2.234375 C 0.265625 -2.359375 0.414062 -2.421875 0.625 -2.421875 C 0.84375 -2.421875 1.03125 -2.390625 1.1875 -2.328125 C 1.351562 -2.265625 1.40625 -2.203125 1.34375 -2.140625 C 0.570312 -1.285156 0.0546875 -0.523438 -0.203125 0.140625 C -0.472656 0.804688 -0.507812 1.207031 -0.3125 1.34375 C -0.21875 1.40625 -0.046875 1.367188 0.203125 1.234375 C 0.460938 1.097656 0.765625 0.898438 1.109375 0.640625 C 1.453125 0.390625 1.800781 0.113281 2.15625 -0.1875 C 2.519531 -0.488281 2.863281 -0.769531 3.1875 -1.03125 C 3.507812 -1.289062 3.769531 -1.492188 3.96875 -1.640625 C 4.175781 -1.796875 4.296875 -1.859375 4.328125 -1.828125 C 4.335938 -1.816406 4.25 -1.707031 4.0625 -1.5 C 3.882812 -1.289062 3.640625 -1.035156 3.328125 -0.734375 C 3.015625 -0.429688 2.671875 -0.117188 2.296875 0.203125 C 1.921875 0.535156 1.539062 0.835938 1.15625 1.109375 C 0.78125 1.378906 0.429688 1.578125 0.109375 1.703125 C -0.203125 1.835938 -0.453125 1.859375 -0.640625 1.765625 Z M 0.90625 -3.1875 C 0.9375 -3.25 1.03125 -3.3125 1.1875 -3.375 C 1.351562 -3.445312 1.4375 -3.484375 1.4375 -3.484375 C 1.4375 -3.484375 1.5 -3.492188 1.625 -3.515625 C 1.757812 -3.535156 1.910156 -3.550781 2.078125 -3.5625 C 2.242188 -3.570312 2.390625 -3.550781 2.515625 -3.5 C 2.597656 -3.46875 2.601562 -3.429688 2.53125 -3.390625 C 2.46875 -3.359375 2.367188 -3.320312 2.234375 -3.28125 C 2.109375 -3.238281 1.988281 -3.207031 1.875 -3.1875 C 1.769531 -3.164062 1.71875 -3.15625 1.71875 -3.15625 C 1.71875 -3.15625 1.644531 -3.140625 1.5 -3.109375 C 1.351562 -3.085938 1.210938 -3.078125 1.078125 -3.078125 C 0.953125 -3.085938 0.894531 -3.125 0.90625 -3.1875 Z M 0.90625 -3.1875 "/></g></g></g><g fill="#000000" fill-opacity="1"><g transform="translate(91.198321, 32.773753)"><g><path d="M 12.859375 -10.828125 C 12.660156 -10.222656 12.3125 -9.613281 11.8125 -9 C 11.320312 -8.394531 10.726562 -7.800781 10.03125 -7.21875 C 9.34375 -6.632812 8.609375 -6.070312 7.828125 -5.53125 C 7.046875 -5 6.265625 -4.507812 5.484375 -4.0625 C 4.703125 -3.613281 3.972656 -3.210938 3.296875 -2.859375 C 2.617188 -2.515625 2.035156 -2.238281 1.546875 -2.03125 C 1.054688 -1.820312 0.722656 -1.6875 0.546875 -1.625 C 0.453125 -1.4375 0.3125 -1.160156 0.125 -0.796875 C -0.0625 -0.429688 -0.25 -0.0234375 -0.4375 0.421875 C -0.632812 0.867188 -0.796875 1.304688 -0.921875 1.734375 C -1.054688 2.171875 -1.128906 2.535156 -1.140625 2.828125 C -1.148438 3.128906 -1.054688 3.3125 -0.859375 3.375 C -0.609375 3.457031 -0.242188 3.40625 0.234375 3.21875 C 0.710938 3.03125 1.253906 2.753906 1.859375 2.390625 C 2.460938 2.023438 3.078125 1.617188 3.703125 1.171875 C 4.335938 0.734375 4.941406 0.300781 5.515625 -0.125 C 6.085938 -0.5625 6.578125 -0.945312 6.984375 -1.28125 C 7.398438 -1.625 7.679688 -1.851562 7.828125 -1.96875 C 7.890625 -2.019531 7.945312 -2.015625 8 -1.953125 C 8.0625 -1.898438 8.0625 -1.851562 8 -1.8125 C 7.769531 -1.582031 7.453125 -1.285156 7.046875 -0.921875 C 6.640625 -0.566406 6.171875 -0.179688 5.640625 0.234375 C 5.117188 0.660156 4.570312 1.082031 4 1.5 C 3.4375 1.914062 2.875 2.300781 2.3125 2.65625 C 1.75 3.019531 1.222656 3.320312 0.734375 3.5625 C 0.253906 3.800781 -0.148438 3.941406 -0.484375 3.984375 C -0.566406 3.992188 -0.691406 3.992188 -0.859375 3.984375 C -1.035156 3.984375 -1.171875 3.960938 -1.265625 3.921875 C -1.671875 3.691406 -1.878906 3.269531 -1.890625 2.65625 C -1.898438 2.039062 -1.742188 1.296875 -1.421875 0.421875 C -1.109375 -0.441406 -0.664062 -1.378906 -0.09375 -2.390625 C 0.46875 -3.410156 1.117188 -4.4375 1.859375 -5.46875 C 2.609375 -6.507812 3.40625 -7.5 4.25 -8.4375 C 5.09375 -9.382812 5.953125 -10.222656 6.828125 -10.953125 C 7.703125 -11.691406 8.550781 -12.257812 9.375 -12.65625 C 10.207031 -13.050781 10.976562 -13.21875 11.6875 -13.15625 C 12.019531 -13.144531 12.304688 -13.046875 12.546875 -12.859375 C 12.796875 -12.679688 12.957031 -12.421875 13.03125 -12.078125 C 13.101562 -11.742188 13.046875 -11.328125 12.859375 -10.828125 Z M 11.375 -12.828125 C 10.757812 -12.734375 10.082031 -12.453125 9.34375 -11.984375 C 8.613281 -11.523438 7.859375 -10.925781 7.078125 -10.1875 C 6.296875 -9.457031 5.519531 -8.644531 4.75 -7.75 C 3.988281 -6.851562 3.273438 -5.929688 2.609375 -4.984375 C 1.941406 -4.035156 1.359375 -3.117188 0.859375 -2.234375 C 1.046875 -2.304688 1.378906 -2.460938 1.859375 -2.703125 C 2.347656 -2.941406 2.929688 -3.242188 3.609375 -3.609375 C 4.285156 -3.984375 5.007812 -4.40625 5.78125 -4.875 C 6.550781 -5.351562 7.3125 -5.859375 8.0625 -6.390625 C 8.8125 -6.921875 9.507812 -7.472656 10.15625 -8.046875 C 10.800781 -8.628906 11.332031 -9.207031 11.75 -9.78125 C 12.175781 -10.363281 12.441406 -10.929688 12.546875 -11.484375 C 12.679688 -12.078125 12.632812 -12.460938 12.40625 -12.640625 C 12.175781 -12.828125 11.832031 -12.890625 11.375 -12.828125 Z M 11.375 -12.828125 "/></g></g></g><g fill="#000000" fill-opacity="1"><g transform="translate(98.987925, 32.773753)"><g><path d="M -0.640625 1.765625 C -0.941406 1.609375 -1.128906 1.382812 -1.203125 1.09375 C -1.285156 0.8125 -1.28125 0.5 -1.1875 0.15625 C -1.09375 -0.1875 -0.957031 -0.519531 -0.78125 -0.84375 C -0.601562 -1.175781 -0.425781 -1.46875 -0.25 -1.71875 C -0.0703125 -1.976562 0.0664062 -2.148438 0.171875 -2.234375 C 0.265625 -2.359375 0.414062 -2.421875 0.625 -2.421875 C 0.84375 -2.421875 1.03125 -2.390625 1.1875 -2.328125 C 1.351562 -2.265625 1.40625 -2.203125 1.34375 -2.140625 C 0.570312 -1.285156 0.0546875 -0.523438 -0.203125 0.140625 C -0.472656 0.804688 -0.507812 1.207031 -0.3125 1.34375 C -0.21875 1.40625 -0.046875 1.367188 0.203125 1.234375 C 0.460938 1.097656 0.765625 0.898438 1.109375 0.640625 C 1.453125 0.390625 1.800781 0.113281 2.15625 -0.1875 C 2.519531 -0.488281 2.863281 -0.769531 3.1875 -1.03125 C 3.507812 -1.289062 3.769531 -1.492188 3.96875 -1.640625 C 4.175781 -1.796875 4.296875 -1.859375 4.328125 -1.828125 C 4.335938 -1.816406 4.25 -1.707031 4.0625 -1.5 C 3.882812 -1.289062 3.640625 -1.035156 3.328125 -0.734375 C 3.015625 -0.429688 2.671875 -0.117188 2.296875 0.203125 C 1.921875 0.535156 1.539062 0.835938 1.15625 1.109375 C 0.78125 1.378906 0.429688 1.578125 0.109375 1.703125 C -0.203125 1.835938 -0.453125 1.859375 -0.640625 1.765625 Z M 0.90625 -3.1875 C 0.9375 -3.25 1.03125 -3.3125 1.1875 -3.375 C 1.351562 -3.445312 1.4375 -3.484375 1.4375 -3.484375 C 1.4375 -3.484375 1.5 -3.492188 1.625 -3.515625 C 1.757812 -3.535156 1.910156 -3.550781 2.078125 -3.5625 C 2.242188 -3.570312 2.390625 -3.550781 2.515625 -3.5 C 2.597656 -3.46875 2.601562 -3.429688 2.53125 -3.390625 C 2.46875 -3.359375 2.367188 -3.320312 2.234375 -3.28125 C 2.109375 -3.238281 1.988281 -3.207031 1.875 -3.1875 C 1.769531 -3.164062 1.71875 -3.15625 1.71875 -3.15625 C 1.71875 -3.15625 1.644531 -3.140625 1.5 -3.109375 C 1.351562 -3.085938 1.210938 -3.078125 1.078125 -3.078125 C 0.953125 -3.085938 0.894531 -3.125 0.90625 -3.1875 Z M 0.90625 -3.1875 "/></g></g></g><g fill="#000000" fill-opacity="1"><g transform="translate(103.180894, 32.773753)"><g><path d="M -1.734375 -8.46875 C -1.742188 -8.507812 -1.554688 -8.578125 -1.171875 -8.671875 C -0.796875 -8.773438 -0.273438 -8.890625 0.390625 -9.015625 C 1.054688 -9.140625 1.828125 -9.269531 2.703125 -9.40625 C 3.585938 -9.550781 4.519531 -9.675781 5.5 -9.78125 C 6.394531 -10.675781 7.296875 -11.441406 8.203125 -12.078125 C 9.117188 -12.710938 9.984375 -13.128906 10.796875 -13.328125 C 10.960938 -13.367188 11.125 -13.394531 11.28125 -13.40625 C 11.4375 -13.414062 11.578125 -13.316406 11.703125 -13.109375 C 11.679688 -13.085938 11.644531 -13.078125 11.59375 -13.078125 C 10.863281 -12.984375 10.070312 -12.644531 9.21875 -12.0625 C 8.375 -11.488281 7.53125 -10.773438 6.6875 -9.921875 C 7.695312 -10.015625 8.703125 -10.09375 9.703125 -10.15625 C 10.703125 -10.21875 11.648438 -10.242188 12.546875 -10.234375 C 13.441406 -10.222656 14.226562 -10.164062 14.90625 -10.0625 C 15.582031 -9.96875 16.113281 -9.8125 16.5 -9.59375 C 16.882812 -9.382812 17.0625 -9.101562 17.03125 -8.75 C 17.03125 -8.664062 17.015625 -8.578125 16.984375 -8.484375 C 16.953125 -8.390625 16.945312 -8.351562 16.96875 -8.375 C 16.914062 -8.238281 16.820312 -8.191406 16.6875 -8.234375 C 16.550781 -8.273438 16.503906 -8.359375 16.546875 -8.484375 C 16.578125 -8.546875 16.609375 -8.585938 16.640625 -8.609375 C 16.679688 -8.640625 16.703125 -8.691406 16.703125 -8.765625 C 16.722656 -9.035156 16.453125 -9.25 15.890625 -9.40625 C 15.335938 -9.5625 14.570312 -9.671875 13.59375 -9.734375 C 12.625 -9.796875 11.515625 -9.804688 10.265625 -9.765625 C 9.015625 -9.734375 7.707031 -9.660156 6.34375 -9.546875 C 5.601562 -8.773438 4.890625 -7.9375 4.203125 -7.03125 C 3.515625 -6.132812 2.867188 -5.222656 2.265625 -4.296875 C 1.671875 -3.378906 1.140625 -2.492188 0.671875 -1.640625 C 0.210938 -0.796875 -0.15625 -0.03125 -0.4375 0.65625 C -0.71875 1.351562 -0.878906 1.914062 -0.921875 2.34375 C -0.960938 2.78125 -0.867188 3.039062 -0.640625 3.125 C -0.378906 3.21875 -0.0078125 3.164062 0.46875 2.96875 C 0.945312 2.78125 1.488281 2.503906 2.09375 2.140625 C 2.695312 1.785156 3.316406 1.382812 3.953125 0.9375 C 4.585938 0.5 5.1875 0.0625 5.75 -0.375 C 6.3125 -0.8125 6.796875 -1.195312 7.203125 -1.53125 C 7.617188 -1.863281 7.898438 -2.097656 8.046875 -2.234375 C 8.109375 -2.285156 8.164062 -2.28125 8.21875 -2.21875 C 8.28125 -2.15625 8.28125 -2.101562 8.21875 -2.0625 C 8 -1.84375 7.679688 -1.550781 7.265625 -1.1875 C 6.859375 -0.832031 6.394531 -0.441406 5.875 -0.015625 C 5.351562 0.398438 4.804688 0.816406 4.234375 1.234375 C 3.660156 1.648438 3.09375 2.035156 2.53125 2.390625 C 1.976562 2.753906 1.457031 3.054688 0.96875 3.296875 C 0.488281 3.546875 0.078125 3.695312 -0.265625 3.75 C -0.347656 3.757812 -0.472656 3.757812 -0.640625 3.75 C -0.804688 3.738281 -0.941406 3.707031 -1.046875 3.65625 C -1.398438 3.457031 -1.597656 3.109375 -1.640625 2.609375 C -1.691406 2.109375 -1.609375 1.5 -1.390625 0.78125 C -1.179688 0.0625 -0.863281 -0.722656 -0.4375 -1.578125 C -0.0195312 -2.429688 0.476562 -3.3125 1.0625 -4.21875 C 1.644531 -5.132812 2.285156 -6.035156 2.984375 -6.921875 C 3.679688 -7.804688 4.398438 -8.644531 5.140625 -9.4375 C 3.972656 -9.3125 2.804688 -9.160156 1.640625 -8.984375 C 0.484375 -8.804688 -0.609375 -8.609375 -1.640625 -8.390625 C -1.703125 -8.390625 -1.734375 -8.414062 -1.734375 -8.46875 Z M -1.734375 -8.46875 "/></g></g></g><g fill="#000000" fill-opacity="1"><g transform="translate(111.194132, 32.773753)"><g><path d="M 2 1.25 C 1.550781 2.039062 1.039062 2.878906 0.46875 3.765625 C -0.09375 4.648438 -0.695312 5.535156 -1.34375 6.421875 C -1.988281 7.304688 -2.648438 8.144531 -3.328125 8.9375 C -4.015625 9.726562 -4.695312 10.425781 -5.375 11.03125 C -6.050781 11.644531 -6.703125 12.117188 -7.328125 12.453125 C -7.960938 12.785156 -8.546875 12.9375 -9.078125 12.90625 C -9.617188 12.882812 -10.09375 12.632812 -10.5 12.15625 C -10.695312 11.90625 -10.785156 11.601562 -10.765625 11.25 C -10.753906 10.894531 -10.664062 10.519531 -10.5 10.125 C -10.332031 9.738281 -10.113281 9.363281 -9.84375 9 C -9.4375 8.445312 -8.898438 7.875 -8.234375 7.28125 C -7.578125 6.6875 -6.847656 6.097656 -6.046875 5.515625 C -5.253906 4.929688 -4.4375 4.375 -3.59375 3.84375 C -2.757812 3.320312 -1.953125 2.84375 -1.171875 2.40625 C -0.390625 1.976562 0.3125 1.625 0.9375 1.34375 C 0.9375 1.34375 0.984375 1.257812 1.078125 1.09375 C 1.179688 0.9375 1.304688 0.742188 1.453125 0.515625 C 1.597656 0.285156 1.742188 0.0546875 1.890625 -0.171875 C 2.046875 -0.398438 2.179688 -0.59375 2.296875 -0.75 C 1.785156 -0.257812 1.28125 0.171875 0.78125 0.546875 C 0.28125 0.929688 -0.164062 1.191406 -0.5625 1.328125 C -0.96875 1.460938 -1.285156 1.414062 -1.515625 1.1875 C -1.722656 0.96875 -1.8125 0.6875 -1.78125 0.34375 C -1.75 0.0078125 -1.632812 -0.332031 -1.4375 -0.6875 C -1.25 -1.039062 -1.007812 -1.378906 -0.71875 -1.703125 C -0.4375 -2.023438 -0.144531 -2.285156 0.15625 -2.484375 C 0.25 -2.546875 0.375 -2.570312 0.53125 -2.5625 C 0.6875 -2.550781 0.816406 -2.523438 0.921875 -2.484375 C 1.035156 -2.441406 1.070312 -2.394531 1.03125 -2.34375 C 0.476562 -1.863281 0.0351562 -1.382812 -0.296875 -0.90625 C -0.640625 -0.4375 -0.878906 -0.0351562 -1.015625 0.296875 C -1.148438 0.628906 -1.171875 0.832031 -1.078125 0.90625 C -0.953125 1.007812 -0.738281 0.984375 -0.4375 0.828125 C -0.144531 0.679688 0.1875 0.460938 0.5625 0.171875 C 0.9375 -0.117188 1.296875 -0.414062 1.640625 -0.71875 C 1.984375 -1.03125 2.269531 -1.296875 2.5 -1.515625 C 2.738281 -1.734375 2.859375 -1.84375 2.859375 -1.84375 C 2.859375 -1.84375 2.859375 -1.835938 2.859375 -1.828125 C 2.859375 -1.828125 2.910156 -1.890625 3.015625 -2.015625 C 3.128906 -2.148438 3.253906 -2.269531 3.390625 -2.375 C 3.453125 -2.414062 3.578125 -2.4375 3.765625 -2.4375 C 3.960938 -2.445312 4.132812 -2.4375 4.28125 -2.40625 C 4.4375 -2.382812 4.476562 -2.332031 4.40625 -2.25 C 4.28125 -2.125 4.019531 -1.800781 3.625 -1.28125 C 3.226562 -0.769531 2.800781 -0.117188 2.34375 0.671875 C 2.46875 0.609375 2.695312 0.476562 3.03125 0.28125 C 3.375 0.0820312 3.757812 -0.144531 4.1875 -0.40625 C 4.625 -0.675781 5.054688 -0.9375 5.484375 -1.1875 C 5.910156 -1.445312 6.285156 -1.664062 6.609375 -1.84375 C 6.941406 -2.03125 7.164062 -2.132812 7.28125 -2.15625 C 7.363281 -2.195312 7.425781 -2.195312 7.46875 -2.15625 C 7.519531 -2.113281 7.535156 -2.082031 7.515625 -2.0625 C 7.316406 -1.925781 7 -1.722656 6.5625 -1.453125 C 6.125 -1.191406 5.644531 -0.910156 5.125 -0.609375 C 4.613281 -0.304688 4.117188 -0.015625 3.640625 0.265625 C 3.160156 0.554688 2.765625 0.789062 2.453125 0.96875 C 2.148438 1.15625 2 1.25 2 1.25 Z M -10.21875 10.71875 C -10.300781 10.925781 -10.359375 11.148438 -10.390625 11.390625 C -10.421875 11.640625 -10.367188 11.859375 -10.234375 12.046875 C -9.953125 12.410156 -9.5625 12.53125 -9.0625 12.40625 C -8.570312 12.289062 -8.003906 11.976562 -7.359375 11.46875 C -6.722656 10.96875 -6.046875 10.335938 -5.328125 9.578125 C -4.617188 8.816406 -3.90625 7.988281 -3.1875 7.09375 C -2.46875 6.207031 -1.773438 5.304688 -1.109375 4.390625 C -0.453125 3.484375 0.132812 2.632812 0.65625 1.84375 C 0.601562 1.851562 0.394531 1.957031 0.03125 2.15625 C -0.320312 2.351562 -0.785156 2.625 -1.359375 2.96875 C -1.929688 3.3125 -2.566406 3.707031 -3.265625 4.15625 C -3.960938 4.613281 -4.671875 5.109375 -5.390625 5.640625 C -6.109375 6.171875 -6.789062 6.71875 -7.4375 7.28125 C -8.082031 7.851562 -8.648438 8.429688 -9.140625 9.015625 C -9.628906 9.597656 -9.988281 10.164062 -10.21875 10.71875 Z M -10.21875 10.71875 "/></g></g></g></svg>